G75*
%MOIN*%
%OFA0B0*%
%FSLAX25Y25*%
%IPPOS*%
%LPD*%
%AMOC8*
5,1,8,0,0,1.08239X$1,22.5*
%
%ADD10C,0.00394*%
%ADD11C,0.00079*%
%ADD12R,0.11579X0.10095*%
%ADD13R,0.02230X0.07841*%
%ADD14R,0.07841X0.02230*%
%ADD15R,0.01981X0.07243*%
%ADD16R,0.03161X0.03161*%
%ADD17R,0.06706X0.06706*%
%ADD18C,0.05918*%
%ADD19R,0.06312X0.06312*%
%ADD20C,0.06312*%
%ADD21R,0.05131X0.05131*%
%ADD22R,0.04300X0.03900*%
%ADD23R,0.04816X0.06312*%
%ADD24R,0.03900X0.04300*%
%ADD25R,0.07098X0.07098*%
%ADD26R,0.08280X0.08280*%
%ADD27R,0.07493X0.04934*%
%ADD28R,0.06706X0.03556*%
%ADD29C,0.00000*%
%ADD30C,0.04540*%
%ADD31C,0.08713*%
D10*
X0022784Y0008696D02*
X0160949Y0008696D01*
X0160949Y0038821D01*
X0136952Y0038821D01*
X0136810Y0038823D01*
X0136668Y0038829D01*
X0136526Y0038839D01*
X0136385Y0038852D01*
X0136244Y0038870D01*
X0136103Y0038891D01*
X0135963Y0038917D01*
X0135824Y0038946D01*
X0135686Y0038979D01*
X0135549Y0039016D01*
X0135413Y0039056D01*
X0135278Y0039100D01*
X0135144Y0039148D01*
X0135011Y0039200D01*
X0134880Y0039255D01*
X0134751Y0039314D01*
X0134623Y0039377D01*
X0134498Y0039443D01*
X0134373Y0039512D01*
X0134251Y0039585D01*
X0134131Y0039661D01*
X0134013Y0039740D01*
X0133898Y0039823D01*
X0133785Y0039908D01*
X0133674Y0039997D01*
X0133565Y0040089D01*
X0133459Y0040184D01*
X0133356Y0040282D01*
X0133256Y0040382D01*
X0133158Y0040485D01*
X0133063Y0040591D01*
X0132971Y0040700D01*
X0132882Y0040811D01*
X0132797Y0040924D01*
X0132714Y0041039D01*
X0132635Y0041157D01*
X0132559Y0041277D01*
X0132486Y0041400D01*
X0132417Y0041524D01*
X0132351Y0041649D01*
X0132288Y0041777D01*
X0132229Y0041906D01*
X0132174Y0042037D01*
X0132122Y0042170D01*
X0132074Y0042304D01*
X0132030Y0042439D01*
X0131990Y0042575D01*
X0131953Y0042712D01*
X0131920Y0042850D01*
X0131891Y0042989D01*
X0131865Y0043129D01*
X0131844Y0043270D01*
X0131826Y0043411D01*
X0131813Y0043552D01*
X0131803Y0043694D01*
X0131797Y0043836D01*
X0131795Y0043978D01*
X0131795Y0048540D01*
X0131797Y0048694D01*
X0131803Y0048848D01*
X0131813Y0049001D01*
X0131827Y0049154D01*
X0131844Y0049307D01*
X0131866Y0049459D01*
X0131892Y0049611D01*
X0131921Y0049762D01*
X0131955Y0049912D01*
X0131992Y0050062D01*
X0132033Y0050210D01*
X0132078Y0050357D01*
X0132127Y0050503D01*
X0132179Y0050648D01*
X0132235Y0050791D01*
X0132295Y0050933D01*
X0132358Y0051073D01*
X0132425Y0051211D01*
X0132496Y0051348D01*
X0132570Y0051483D01*
X0132648Y0051616D01*
X0132728Y0051747D01*
X0132813Y0051876D01*
X0132900Y0052002D01*
X0132991Y0052126D01*
X0133085Y0052248D01*
X0133182Y0052368D01*
X0133282Y0052484D01*
X0133385Y0052599D01*
X0133491Y0052710D01*
X0133600Y0052819D01*
X0133711Y0052925D01*
X0133826Y0053028D01*
X0133942Y0053128D01*
X0134062Y0053225D01*
X0134184Y0053319D01*
X0134308Y0053410D01*
X0134434Y0053497D01*
X0134563Y0053582D01*
X0134694Y0053662D01*
X0134827Y0053740D01*
X0134962Y0053814D01*
X0135099Y0053885D01*
X0135237Y0053952D01*
X0135377Y0054015D01*
X0135519Y0054075D01*
X0135662Y0054131D01*
X0135807Y0054183D01*
X0135953Y0054232D01*
X0136100Y0054277D01*
X0136248Y0054318D01*
X0136398Y0054355D01*
X0136548Y0054389D01*
X0136699Y0054418D01*
X0136851Y0054444D01*
X0137003Y0054466D01*
X0137156Y0054483D01*
X0137309Y0054497D01*
X0137462Y0054507D01*
X0137616Y0054513D01*
X0137770Y0054515D01*
X0137770Y0054516D02*
X0175455Y0054516D01*
X0175455Y0138091D01*
X0143886Y0138091D01*
X0143738Y0138093D01*
X0143590Y0138099D01*
X0143443Y0138108D01*
X0143296Y0138122D01*
X0143149Y0138139D01*
X0143002Y0138161D01*
X0142857Y0138186D01*
X0142712Y0138214D01*
X0142568Y0138247D01*
X0142424Y0138283D01*
X0142282Y0138324D01*
X0142141Y0138367D01*
X0142001Y0138415D01*
X0141862Y0138466D01*
X0141725Y0138521D01*
X0141589Y0138579D01*
X0141454Y0138641D01*
X0141322Y0138707D01*
X0141191Y0138775D01*
X0141062Y0138848D01*
X0140935Y0138923D01*
X0140810Y0139002D01*
X0140687Y0139084D01*
X0140566Y0139170D01*
X0140448Y0139258D01*
X0140332Y0139350D01*
X0140218Y0139444D01*
X0140107Y0139542D01*
X0139998Y0139642D01*
X0139892Y0139745D01*
X0139789Y0139851D01*
X0139689Y0139960D01*
X0139591Y0140071D01*
X0139497Y0140185D01*
X0139405Y0140301D01*
X0139317Y0140419D01*
X0139231Y0140540D01*
X0139149Y0140663D01*
X0139070Y0140788D01*
X0138995Y0140915D01*
X0138922Y0141044D01*
X0138854Y0141175D01*
X0138788Y0141307D01*
X0138726Y0141442D01*
X0138668Y0141578D01*
X0138613Y0141715D01*
X0138562Y0141854D01*
X0138514Y0141994D01*
X0138471Y0142135D01*
X0138430Y0142277D01*
X0138394Y0142421D01*
X0138361Y0142565D01*
X0138333Y0142710D01*
X0138308Y0142855D01*
X0138286Y0143002D01*
X0138269Y0143149D01*
X0138255Y0143296D01*
X0138246Y0143443D01*
X0138240Y0143591D01*
X0138238Y0143739D01*
X0138239Y0143739D02*
X0138239Y0165285D01*
X0022784Y0165285D01*
X0022784Y0008696D01*
X0045436Y0131992D02*
X0082738Y0131992D01*
X0082818Y0131994D01*
X0082897Y0132000D01*
X0082977Y0132009D01*
X0083055Y0132022D01*
X0083133Y0132039D01*
X0083210Y0132060D01*
X0083286Y0132084D01*
X0083361Y0132112D01*
X0083435Y0132144D01*
X0083506Y0132178D01*
X0083577Y0132217D01*
X0083645Y0132258D01*
X0083711Y0132303D01*
X0083775Y0132351D01*
X0083836Y0132402D01*
X0083895Y0132455D01*
X0083952Y0132512D01*
X0084005Y0132571D01*
X0084056Y0132632D01*
X0084104Y0132696D01*
X0084149Y0132762D01*
X0084190Y0132831D01*
X0084229Y0132901D01*
X0084263Y0132972D01*
X0084295Y0133046D01*
X0084323Y0133121D01*
X0084347Y0133197D01*
X0084368Y0133274D01*
X0084385Y0133352D01*
X0084398Y0133430D01*
X0084407Y0133510D01*
X0084413Y0133589D01*
X0084415Y0133669D01*
X0084413Y0133755D01*
X0084407Y0133841D01*
X0084398Y0133927D01*
X0084385Y0134013D01*
X0084368Y0134097D01*
X0084348Y0134181D01*
X0084323Y0134264D01*
X0084296Y0134346D01*
X0084264Y0134426D01*
X0084230Y0134505D01*
X0084191Y0134583D01*
X0084150Y0134659D01*
X0084105Y0134732D01*
X0084057Y0134804D01*
X0084006Y0134874D01*
X0083952Y0134941D01*
X0083895Y0135006D01*
X0083835Y0135068D01*
X0083773Y0135128D01*
X0083708Y0135185D01*
X0083641Y0135239D01*
X0083571Y0135290D01*
X0083499Y0135338D01*
X0083426Y0135383D01*
X0083350Y0135424D01*
X0083272Y0135463D01*
X0083193Y0135497D01*
X0083113Y0135529D01*
X0083031Y0135556D01*
X0082948Y0135581D01*
X0082864Y0135601D01*
X0082780Y0135618D01*
X0082694Y0135631D01*
X0082608Y0135640D01*
X0082522Y0135646D01*
X0082436Y0135648D01*
X0081529Y0135648D01*
X0081529Y0135647D01*
X0081528Y0135646D01*
X0081527Y0135646D01*
X0045655Y0135646D01*
X0045656Y0135646D02*
X0045573Y0135644D01*
X0045491Y0135638D01*
X0045409Y0135629D01*
X0045328Y0135616D01*
X0045247Y0135599D01*
X0045167Y0135578D01*
X0045088Y0135554D01*
X0045011Y0135526D01*
X0044934Y0135494D01*
X0044860Y0135459D01*
X0044787Y0135421D01*
X0044715Y0135379D01*
X0044646Y0135334D01*
X0044579Y0135286D01*
X0044515Y0135235D01*
X0044452Y0135180D01*
X0044393Y0135123D01*
X0044336Y0135064D01*
X0044281Y0135002D01*
X0044230Y0134937D01*
X0044182Y0134870D01*
X0044137Y0134801D01*
X0044095Y0134730D01*
X0044057Y0134657D01*
X0044022Y0134582D01*
X0043990Y0134506D01*
X0043962Y0134428D01*
X0043937Y0134350D01*
X0043917Y0134270D01*
X0043900Y0134189D01*
X0043886Y0134108D01*
X0043877Y0134026D01*
X0043871Y0133943D01*
X0043869Y0133861D01*
X0043869Y0133559D01*
X0043871Y0133482D01*
X0043877Y0133405D01*
X0043886Y0133329D01*
X0043899Y0133253D01*
X0043916Y0133178D01*
X0043936Y0133104D01*
X0043961Y0133031D01*
X0043988Y0132959D01*
X0044019Y0132889D01*
X0044054Y0132820D01*
X0044092Y0132753D01*
X0044133Y0132688D01*
X0044177Y0132626D01*
X0044225Y0132565D01*
X0044275Y0132507D01*
X0044328Y0132451D01*
X0044384Y0132398D01*
X0044442Y0132348D01*
X0044503Y0132300D01*
X0044565Y0132256D01*
X0044630Y0132215D01*
X0044697Y0132177D01*
X0044766Y0132142D01*
X0044836Y0132111D01*
X0044908Y0132084D01*
X0044981Y0132059D01*
X0045055Y0132039D01*
X0045130Y0132022D01*
X0045206Y0132009D01*
X0045282Y0132000D01*
X0045359Y0131994D01*
X0045436Y0131992D01*
X0048098Y0145156D02*
X0109088Y0145156D01*
X0109089Y0145156D02*
X0109224Y0145159D01*
X0109360Y0145165D01*
X0109495Y0145176D01*
X0109630Y0145190D01*
X0109764Y0145208D01*
X0109898Y0145230D01*
X0110031Y0145257D01*
X0110163Y0145286D01*
X0110294Y0145320D01*
X0110425Y0145358D01*
X0110554Y0145399D01*
X0110682Y0145444D01*
X0110808Y0145493D01*
X0110933Y0145545D01*
X0111057Y0145602D01*
X0111179Y0145661D01*
X0111299Y0145724D01*
X0111417Y0145791D01*
X0111533Y0145861D01*
X0111647Y0145934D01*
X0111759Y0146011D01*
X0111868Y0146091D01*
X0111976Y0146174D01*
X0112080Y0146260D01*
X0112183Y0146349D01*
X0112282Y0146441D01*
X0112379Y0146536D01*
X0112473Y0146634D01*
X0112564Y0146734D01*
X0112652Y0146837D01*
X0112738Y0146943D01*
X0112820Y0147051D01*
X0112899Y0147161D01*
X0112974Y0147273D01*
X0113047Y0147388D01*
X0113116Y0147505D01*
X0113181Y0147623D01*
X0113243Y0147744D01*
X0113302Y0147866D01*
X0113357Y0147990D01*
X0113408Y0148116D01*
X0113456Y0148243D01*
X0113500Y0148371D01*
X0113540Y0148501D01*
X0113576Y0148631D01*
X0113609Y0148763D01*
X0113638Y0148895D01*
X0113663Y0149029D01*
X0113684Y0149163D01*
X0113701Y0149297D01*
X0113714Y0149432D01*
X0113723Y0149567D01*
X0113729Y0149703D01*
X0113730Y0149839D01*
X0113729Y0149838D02*
X0113729Y0150957D01*
X0113727Y0151069D01*
X0113721Y0151180D01*
X0113712Y0151292D01*
X0113699Y0151403D01*
X0113681Y0151513D01*
X0113661Y0151623D01*
X0113636Y0151732D01*
X0113608Y0151840D01*
X0113576Y0151947D01*
X0113540Y0152053D01*
X0113501Y0152158D01*
X0113458Y0152261D01*
X0113412Y0152363D01*
X0113362Y0152463D01*
X0113309Y0152562D01*
X0113252Y0152658D01*
X0113193Y0152753D01*
X0113130Y0152845D01*
X0113064Y0152935D01*
X0112995Y0153023D01*
X0112923Y0153109D01*
X0112848Y0153192D01*
X0112770Y0153272D01*
X0112690Y0153350D01*
X0112607Y0153425D01*
X0112521Y0153497D01*
X0112433Y0153566D01*
X0112343Y0153632D01*
X0112251Y0153695D01*
X0112156Y0153754D01*
X0112060Y0153811D01*
X0111961Y0153864D01*
X0111861Y0153914D01*
X0111759Y0153960D01*
X0111656Y0154003D01*
X0111551Y0154042D01*
X0111445Y0154078D01*
X0111338Y0154110D01*
X0111230Y0154138D01*
X0111121Y0154163D01*
X0111011Y0154183D01*
X0110901Y0154201D01*
X0110790Y0154214D01*
X0110678Y0154223D01*
X0110567Y0154229D01*
X0110455Y0154231D01*
X0110455Y0154230D02*
X0048720Y0154230D01*
X0048592Y0154228D01*
X0048464Y0154222D01*
X0048337Y0154212D01*
X0048210Y0154199D01*
X0048083Y0154181D01*
X0047957Y0154159D01*
X0047831Y0154134D01*
X0047707Y0154105D01*
X0047583Y0154071D01*
X0047461Y0154035D01*
X0047339Y0153994D01*
X0047219Y0153949D01*
X0047101Y0153901D01*
X0046984Y0153850D01*
X0046868Y0153795D01*
X0046755Y0153736D01*
X0046643Y0153673D01*
X0046533Y0153608D01*
X0046425Y0153539D01*
X0046320Y0153466D01*
X0046217Y0153391D01*
X0046116Y0153312D01*
X0046017Y0153231D01*
X0045921Y0153146D01*
X0045828Y0153058D01*
X0045738Y0152968D01*
X0045650Y0152875D01*
X0045565Y0152779D01*
X0045484Y0152680D01*
X0045405Y0152579D01*
X0045330Y0152476D01*
X0045257Y0152371D01*
X0045188Y0152263D01*
X0045123Y0152153D01*
X0045060Y0152041D01*
X0045001Y0151928D01*
X0044946Y0151812D01*
X0044895Y0151695D01*
X0044847Y0151577D01*
X0044802Y0151457D01*
X0044761Y0151335D01*
X0044725Y0151213D01*
X0044691Y0151089D01*
X0044662Y0150965D01*
X0044637Y0150839D01*
X0044615Y0150713D01*
X0044597Y0150586D01*
X0044584Y0150459D01*
X0044574Y0150332D01*
X0044568Y0150204D01*
X0044566Y0150076D01*
X0044566Y0148688D01*
X0044568Y0148570D01*
X0044574Y0148452D01*
X0044584Y0148334D01*
X0044598Y0148217D01*
X0044615Y0148101D01*
X0044637Y0147984D01*
X0044662Y0147869D01*
X0044691Y0147755D01*
X0044725Y0147642D01*
X0044761Y0147529D01*
X0044802Y0147419D01*
X0044846Y0147309D01*
X0044894Y0147201D01*
X0044946Y0147095D01*
X0045001Y0146991D01*
X0045059Y0146888D01*
X0045121Y0146787D01*
X0045186Y0146689D01*
X0045254Y0146593D01*
X0045326Y0146499D01*
X0045401Y0146408D01*
X0045478Y0146319D01*
X0045559Y0146233D01*
X0045643Y0146149D01*
X0045729Y0146068D01*
X0045818Y0145991D01*
X0045909Y0145916D01*
X0046003Y0145844D01*
X0046099Y0145776D01*
X0046197Y0145711D01*
X0046298Y0145649D01*
X0046401Y0145591D01*
X0046505Y0145536D01*
X0046611Y0145484D01*
X0046719Y0145436D01*
X0046829Y0145392D01*
X0046939Y0145351D01*
X0047052Y0145315D01*
X0047165Y0145281D01*
X0047279Y0145252D01*
X0047394Y0145227D01*
X0047511Y0145205D01*
X0047627Y0145188D01*
X0047744Y0145174D01*
X0047862Y0145164D01*
X0047980Y0145158D01*
X0048098Y0145156D01*
D11*
X0049074Y0143655D02*
X0054127Y0143655D01*
X0054017Y0143732D02*
X0049185Y0143732D01*
X0049295Y0143809D02*
X0053906Y0143809D01*
X0053796Y0143887D02*
X0049405Y0143887D01*
X0049516Y0143964D02*
X0053686Y0143964D01*
X0053667Y0143977D02*
X0054256Y0143565D01*
X0054764Y0143056D01*
X0055177Y0142467D01*
X0055480Y0141816D01*
X0055667Y0141121D01*
X0055729Y0140405D01*
X0055729Y0140389D01*
X0055667Y0139673D01*
X0055481Y0138979D01*
X0055177Y0138328D01*
X0054765Y0137739D01*
X0054256Y0137231D01*
X0053668Y0136819D01*
X0053016Y0136515D01*
X0052322Y0136329D01*
X0051606Y0136266D01*
X0051597Y0136266D01*
X0050880Y0136329D01*
X0050183Y0136515D01*
X0049530Y0136820D01*
X0048940Y0137233D01*
X0048431Y0137743D01*
X0048017Y0138333D01*
X0047713Y0138986D01*
X0047526Y0139682D01*
X0047463Y0140400D01*
X0047463Y0140400D01*
X0047463Y0140392D01*
X0047526Y0141110D01*
X0047713Y0141807D01*
X0048018Y0142461D01*
X0048432Y0143052D01*
X0048942Y0143562D01*
X0049533Y0143976D01*
X0050186Y0144280D01*
X0050883Y0144467D01*
X0051602Y0144530D01*
X0051604Y0144530D01*
X0052320Y0144467D01*
X0053015Y0144281D01*
X0053667Y0143977D01*
X0053530Y0144041D02*
X0049673Y0144041D01*
X0049839Y0144118D02*
X0053364Y0144118D01*
X0053198Y0144196D02*
X0050004Y0144196D01*
X0050170Y0144273D02*
X0053033Y0144273D01*
X0052758Y0144350D02*
X0050446Y0144350D01*
X0050735Y0144427D02*
X0052469Y0144427D01*
X0051894Y0144505D02*
X0051311Y0144505D01*
X0048964Y0143578D02*
X0054237Y0143578D01*
X0054320Y0143500D02*
X0048880Y0143500D01*
X0048803Y0143423D02*
X0054397Y0143423D01*
X0054475Y0143346D02*
X0048726Y0143346D01*
X0048648Y0143269D02*
X0054552Y0143269D01*
X0054629Y0143191D02*
X0048571Y0143191D01*
X0048494Y0143114D02*
X0054706Y0143114D01*
X0054778Y0143037D02*
X0048421Y0143037D01*
X0048367Y0142960D02*
X0054832Y0142960D01*
X0054886Y0142882D02*
X0048313Y0142882D01*
X0048259Y0142805D02*
X0054940Y0142805D01*
X0054994Y0142728D02*
X0048205Y0142728D01*
X0048151Y0142651D02*
X0055048Y0142651D01*
X0055102Y0142573D02*
X0048097Y0142573D01*
X0048042Y0142496D02*
X0055156Y0142496D01*
X0055199Y0142419D02*
X0047998Y0142419D01*
X0047962Y0142342D02*
X0055235Y0142342D01*
X0055271Y0142264D02*
X0047926Y0142264D01*
X0047890Y0142187D02*
X0055307Y0142187D01*
X0055343Y0142110D02*
X0047854Y0142110D01*
X0047818Y0142033D02*
X0055379Y0142033D01*
X0055415Y0141955D02*
X0047782Y0141955D01*
X0047746Y0141878D02*
X0055451Y0141878D01*
X0055484Y0141801D02*
X0047711Y0141801D01*
X0047691Y0141724D02*
X0055505Y0141724D01*
X0055526Y0141646D02*
X0047670Y0141646D01*
X0047649Y0141569D02*
X0055546Y0141569D01*
X0055567Y0141492D02*
X0047628Y0141492D01*
X0047608Y0141415D02*
X0055588Y0141415D01*
X0055609Y0141337D02*
X0047587Y0141337D01*
X0047566Y0141260D02*
X0055629Y0141260D01*
X0055650Y0141183D02*
X0047546Y0141183D01*
X0047526Y0141106D02*
X0055668Y0141106D01*
X0055675Y0141028D02*
X0047519Y0141028D01*
X0047512Y0140951D02*
X0055681Y0140951D01*
X0055688Y0140874D02*
X0047506Y0140874D01*
X0047499Y0140797D02*
X0055695Y0140797D01*
X0055702Y0140719D02*
X0047492Y0140719D01*
X0047485Y0140642D02*
X0055708Y0140642D01*
X0055715Y0140565D02*
X0047479Y0140565D01*
X0047472Y0140488D02*
X0055722Y0140488D01*
X0055729Y0140410D02*
X0047465Y0140410D01*
X0047469Y0140333D02*
X0055724Y0140333D01*
X0055718Y0140256D02*
X0047476Y0140256D01*
X0047483Y0140178D02*
X0055711Y0140178D01*
X0055704Y0140101D02*
X0047490Y0140101D01*
X0047496Y0140024D02*
X0055697Y0140024D01*
X0055690Y0139947D02*
X0047503Y0139947D01*
X0047510Y0139869D02*
X0055684Y0139869D01*
X0055677Y0139792D02*
X0047517Y0139792D01*
X0047523Y0139715D02*
X0055670Y0139715D01*
X0055657Y0139638D02*
X0047538Y0139638D01*
X0047559Y0139560D02*
X0055636Y0139560D01*
X0055616Y0139483D02*
X0047580Y0139483D01*
X0047600Y0139406D02*
X0055595Y0139406D01*
X0055574Y0139329D02*
X0047621Y0139329D01*
X0047642Y0139251D02*
X0055554Y0139251D01*
X0055533Y0139174D02*
X0047662Y0139174D01*
X0047683Y0139097D02*
X0055512Y0139097D01*
X0055491Y0139020D02*
X0047704Y0139020D01*
X0047733Y0138942D02*
X0055463Y0138942D01*
X0055427Y0138865D02*
X0047769Y0138865D01*
X0047805Y0138788D02*
X0055391Y0138788D01*
X0055355Y0138711D02*
X0047841Y0138711D01*
X0047877Y0138633D02*
X0055319Y0138633D01*
X0055283Y0138556D02*
X0047913Y0138556D01*
X0047949Y0138479D02*
X0055247Y0138479D01*
X0055211Y0138402D02*
X0047985Y0138402D01*
X0048023Y0138324D02*
X0055174Y0138324D01*
X0055120Y0138247D02*
X0048077Y0138247D01*
X0048131Y0138170D02*
X0055066Y0138170D01*
X0055012Y0138093D02*
X0048186Y0138093D01*
X0048240Y0138015D02*
X0054958Y0138015D01*
X0054904Y0137938D02*
X0048294Y0137938D01*
X0048348Y0137861D02*
X0054850Y0137861D01*
X0054796Y0137784D02*
X0048402Y0137784D01*
X0048467Y0137706D02*
X0054732Y0137706D01*
X0054655Y0137629D02*
X0048544Y0137629D01*
X0048621Y0137552D02*
X0054577Y0137552D01*
X0054500Y0137475D02*
X0048699Y0137475D01*
X0048776Y0137397D02*
X0054423Y0137397D01*
X0054346Y0137320D02*
X0048853Y0137320D01*
X0048930Y0137243D02*
X0054268Y0137243D01*
X0054163Y0137166D02*
X0049037Y0137166D01*
X0049147Y0137088D02*
X0054053Y0137088D01*
X0053943Y0137011D02*
X0049257Y0137011D01*
X0049368Y0136934D02*
X0053832Y0136934D01*
X0053722Y0136857D02*
X0049478Y0136857D01*
X0049617Y0136779D02*
X0053584Y0136779D01*
X0053418Y0136702D02*
X0049783Y0136702D01*
X0049949Y0136625D02*
X0053252Y0136625D01*
X0053087Y0136548D02*
X0050114Y0136548D01*
X0050352Y0136470D02*
X0052850Y0136470D01*
X0052562Y0136393D02*
X0050640Y0136393D01*
X0051028Y0136316D02*
X0052175Y0136316D01*
X0147701Y0021931D02*
X0148292Y0022345D01*
X0148946Y0022649D01*
X0149643Y0022836D01*
X0150362Y0022899D01*
X0150364Y0022899D01*
X0151080Y0022836D01*
X0151775Y0022650D01*
X0152426Y0022346D01*
X0153015Y0021934D01*
X0153524Y0021425D01*
X0153936Y0020836D01*
X0154240Y0020185D01*
X0154426Y0019490D01*
X0154489Y0018774D01*
X0154489Y0018759D01*
X0154426Y0018043D01*
X0154240Y0017348D01*
X0153937Y0016697D01*
X0153524Y0016108D01*
X0153016Y0015600D01*
X0152427Y0015188D01*
X0151776Y0014884D01*
X0151082Y0014698D01*
X0150366Y0014635D01*
X0150357Y0014635D01*
X0149639Y0014698D01*
X0148943Y0014884D01*
X0148290Y0015189D01*
X0147700Y0015602D01*
X0147190Y0016112D01*
X0146777Y0016702D01*
X0146473Y0017355D01*
X0146286Y0018051D01*
X0146223Y0018769D01*
X0146223Y0018769D01*
X0146223Y0018761D01*
X0146286Y0019479D01*
X0146473Y0020176D01*
X0146778Y0020830D01*
X0147191Y0021421D01*
X0147701Y0021931D01*
X0147677Y0021906D02*
X0153043Y0021906D01*
X0153120Y0021829D02*
X0147600Y0021829D01*
X0147523Y0021752D02*
X0153197Y0021752D01*
X0153275Y0021675D02*
X0147445Y0021675D01*
X0147368Y0021597D02*
X0153352Y0021597D01*
X0153429Y0021520D02*
X0147291Y0021520D01*
X0147214Y0021443D02*
X0153506Y0021443D01*
X0153566Y0021366D02*
X0147153Y0021366D01*
X0147099Y0021288D02*
X0153620Y0021288D01*
X0153674Y0021211D02*
X0147045Y0021211D01*
X0146991Y0021134D02*
X0153728Y0021134D01*
X0153782Y0021057D02*
X0146937Y0021057D01*
X0146882Y0020979D02*
X0153836Y0020979D01*
X0153890Y0020902D02*
X0146828Y0020902D01*
X0146775Y0020825D02*
X0153942Y0020825D01*
X0153978Y0020748D02*
X0146739Y0020748D01*
X0146703Y0020670D02*
X0154014Y0020670D01*
X0154050Y0020593D02*
X0146667Y0020593D01*
X0146631Y0020516D02*
X0154086Y0020516D01*
X0154122Y0020439D02*
X0146595Y0020439D01*
X0146559Y0020361D02*
X0154158Y0020361D01*
X0154194Y0020284D02*
X0146523Y0020284D01*
X0146487Y0020207D02*
X0154230Y0020207D01*
X0154255Y0020130D02*
X0146460Y0020130D01*
X0146440Y0020052D02*
X0154276Y0020052D01*
X0154296Y0019975D02*
X0146419Y0019975D01*
X0146398Y0019898D02*
X0154317Y0019898D01*
X0154338Y0019821D02*
X0146378Y0019821D01*
X0146357Y0019743D02*
X0154358Y0019743D01*
X0154379Y0019666D02*
X0146336Y0019666D01*
X0146315Y0019589D02*
X0154400Y0019589D01*
X0154421Y0019512D02*
X0146295Y0019512D01*
X0146282Y0019434D02*
X0154431Y0019434D01*
X0154438Y0019357D02*
X0146275Y0019357D01*
X0146269Y0019280D02*
X0154445Y0019280D01*
X0154452Y0019203D02*
X0146262Y0019203D01*
X0146255Y0019125D02*
X0154458Y0019125D01*
X0154465Y0019048D02*
X0146248Y0019048D01*
X0146242Y0018971D02*
X0154472Y0018971D01*
X0154479Y0018894D02*
X0146235Y0018894D01*
X0146228Y0018816D02*
X0154485Y0018816D01*
X0154487Y0018739D02*
X0146226Y0018739D01*
X0146233Y0018662D02*
X0154481Y0018662D01*
X0154474Y0018585D02*
X0146239Y0018585D01*
X0146246Y0018507D02*
X0154467Y0018507D01*
X0154460Y0018430D02*
X0146253Y0018430D01*
X0146260Y0018353D02*
X0154454Y0018353D01*
X0154447Y0018276D02*
X0146266Y0018276D01*
X0146273Y0018198D02*
X0154440Y0018198D01*
X0154433Y0018121D02*
X0146280Y0018121D01*
X0146288Y0018044D02*
X0154427Y0018044D01*
X0154406Y0017967D02*
X0146309Y0017967D01*
X0146329Y0017889D02*
X0154385Y0017889D01*
X0154365Y0017812D02*
X0146350Y0017812D01*
X0146371Y0017735D02*
X0154344Y0017735D01*
X0154323Y0017658D02*
X0146392Y0017658D01*
X0146412Y0017580D02*
X0154303Y0017580D01*
X0154282Y0017503D02*
X0146433Y0017503D01*
X0146454Y0017426D02*
X0154261Y0017426D01*
X0154241Y0017349D02*
X0146476Y0017349D01*
X0146512Y0017271D02*
X0154205Y0017271D01*
X0154169Y0017194D02*
X0146548Y0017194D01*
X0146584Y0017117D02*
X0154133Y0017117D01*
X0154096Y0017040D02*
X0146620Y0017040D01*
X0146656Y0016962D02*
X0154060Y0016962D01*
X0154024Y0016885D02*
X0146692Y0016885D01*
X0146728Y0016808D02*
X0153988Y0016808D01*
X0153952Y0016731D02*
X0146764Y0016731D01*
X0146811Y0016653D02*
X0153906Y0016653D01*
X0153852Y0016576D02*
X0146865Y0016576D01*
X0146919Y0016499D02*
X0153798Y0016499D01*
X0153744Y0016422D02*
X0146974Y0016422D01*
X0147028Y0016344D02*
X0153690Y0016344D01*
X0153636Y0016267D02*
X0147082Y0016267D01*
X0147136Y0016190D02*
X0153582Y0016190D01*
X0153528Y0016113D02*
X0147190Y0016113D01*
X0147267Y0016035D02*
X0153452Y0016035D01*
X0153374Y0015958D02*
X0147344Y0015958D01*
X0147421Y0015881D02*
X0153297Y0015881D01*
X0153220Y0015804D02*
X0147499Y0015804D01*
X0147576Y0015726D02*
X0153143Y0015726D01*
X0153065Y0015649D02*
X0147653Y0015649D01*
X0147743Y0015572D02*
X0152976Y0015572D01*
X0152866Y0015495D02*
X0147854Y0015495D01*
X0147964Y0015417D02*
X0152756Y0015417D01*
X0152645Y0015340D02*
X0148074Y0015340D01*
X0148185Y0015263D02*
X0152535Y0015263D01*
X0152423Y0015186D02*
X0148298Y0015186D01*
X0148463Y0015108D02*
X0152257Y0015108D01*
X0152092Y0015031D02*
X0148629Y0015031D01*
X0148795Y0014954D02*
X0151926Y0014954D01*
X0151749Y0014877D02*
X0148973Y0014877D01*
X0149261Y0014799D02*
X0151461Y0014799D01*
X0151172Y0014722D02*
X0149549Y0014722D01*
X0150247Y0014645D02*
X0150476Y0014645D01*
X0152944Y0021984D02*
X0147777Y0021984D01*
X0147887Y0022061D02*
X0152834Y0022061D01*
X0152723Y0022138D02*
X0147998Y0022138D01*
X0148108Y0022215D02*
X0152613Y0022215D01*
X0152503Y0022293D02*
X0148218Y0022293D01*
X0148347Y0022370D02*
X0152376Y0022370D01*
X0152210Y0022447D02*
X0148513Y0022447D01*
X0148678Y0022524D02*
X0152044Y0022524D01*
X0151879Y0022602D02*
X0148844Y0022602D01*
X0149056Y0022679D02*
X0151667Y0022679D01*
X0151379Y0022756D02*
X0149345Y0022756D01*
X0149633Y0022834D02*
X0151091Y0022834D01*
D12*
X0094520Y0019790D03*
D13*
X0094560Y0042547D03*
X0096528Y0042547D03*
X0098497Y0042547D03*
X0100465Y0042547D03*
X0102434Y0042547D03*
X0104402Y0042547D03*
X0106371Y0042547D03*
X0108339Y0042547D03*
X0110308Y0042547D03*
X0112276Y0042547D03*
X0114245Y0042547D03*
X0116213Y0042547D03*
X0092591Y0042547D03*
X0090623Y0042547D03*
X0088654Y0042547D03*
X0086686Y0042547D03*
X0086686Y0087639D03*
X0088654Y0087639D03*
X0090623Y0087639D03*
X0092591Y0087639D03*
X0094560Y0087639D03*
X0096528Y0087639D03*
X0098497Y0087639D03*
X0100465Y0087639D03*
X0102434Y0087639D03*
X0104402Y0087639D03*
X0106371Y0087639D03*
X0108339Y0087639D03*
X0110308Y0087639D03*
X0112276Y0087639D03*
X0114245Y0087639D03*
X0116213Y0087639D03*
D14*
X0123995Y0079857D03*
X0123995Y0077888D03*
X0123995Y0075920D03*
X0123995Y0073951D03*
X0123995Y0071983D03*
X0123995Y0070014D03*
X0123995Y0068046D03*
X0123995Y0066077D03*
X0123995Y0064109D03*
X0123995Y0062140D03*
X0123995Y0060172D03*
X0123995Y0058203D03*
X0123995Y0056235D03*
X0123995Y0054266D03*
X0123995Y0052298D03*
X0123995Y0050329D03*
X0078904Y0050329D03*
X0078904Y0052298D03*
X0078904Y0054266D03*
X0078904Y0056235D03*
X0078904Y0058203D03*
X0078904Y0060172D03*
X0078904Y0062140D03*
X0078904Y0064109D03*
X0078904Y0066077D03*
X0078904Y0068046D03*
X0078904Y0070014D03*
X0078904Y0071983D03*
X0078904Y0073951D03*
X0078904Y0075920D03*
X0078904Y0077888D03*
X0078904Y0079857D03*
D15*
X0072426Y0118438D03*
X0070458Y0118438D03*
X0068489Y0118438D03*
X0066521Y0118438D03*
X0064552Y0118438D03*
X0062584Y0118438D03*
X0060615Y0118438D03*
X0058647Y0118438D03*
X0056678Y0118438D03*
X0054710Y0118438D03*
X0052741Y0118438D03*
X0050773Y0118438D03*
X0048804Y0118438D03*
X0046836Y0118438D03*
X0044867Y0118438D03*
X0042899Y0118438D03*
X0040930Y0118438D03*
X0038962Y0118438D03*
X0036993Y0118438D03*
X0035025Y0118438D03*
X0033056Y0118438D03*
X0031088Y0118438D03*
X0029119Y0118438D03*
X0027151Y0118438D03*
X0027151Y0040963D03*
X0029119Y0040963D03*
X0031088Y0040963D03*
X0033056Y0040963D03*
X0035025Y0040963D03*
X0036993Y0040963D03*
X0038962Y0040963D03*
X0040930Y0040963D03*
X0042899Y0040963D03*
X0044867Y0040963D03*
X0046836Y0040963D03*
X0048804Y0040963D03*
X0050773Y0040963D03*
X0052741Y0040963D03*
X0054710Y0040963D03*
X0056678Y0040963D03*
X0058647Y0040963D03*
X0060615Y0040963D03*
X0062584Y0040963D03*
X0064552Y0040963D03*
X0066521Y0040963D03*
X0068489Y0040963D03*
X0070458Y0040963D03*
X0072426Y0040963D03*
D16*
X0152763Y0064833D03*
X0154535Y0064833D03*
X0156306Y0064833D03*
X0158274Y0064833D03*
X0158282Y0068769D03*
X0156314Y0068769D03*
X0154543Y0068769D03*
X0152771Y0068769D03*
X0152763Y0072713D03*
X0154535Y0072713D03*
X0156306Y0072713D03*
X0158274Y0072713D03*
X0158278Y0076651D03*
X0156311Y0076651D03*
X0154539Y0076651D03*
X0152767Y0076651D03*
X0152763Y0080585D03*
X0154534Y0080585D03*
X0156306Y0080585D03*
X0158274Y0080585D03*
X0158278Y0084526D03*
X0156310Y0084526D03*
X0154538Y0084526D03*
X0152767Y0084526D03*
X0152775Y0088461D03*
X0154546Y0088461D03*
X0156318Y0088461D03*
X0158286Y0088461D03*
X0158278Y0092405D03*
X0156310Y0092405D03*
X0154538Y0092405D03*
X0152767Y0092405D03*
X0152771Y0096344D03*
X0154543Y0096344D03*
X0156314Y0096344D03*
X0158282Y0096344D03*
X0158277Y0100278D03*
X0156310Y0100278D03*
X0154538Y0100278D03*
X0152767Y0100278D03*
X0128080Y0141130D03*
X0128080Y0142901D03*
X0128080Y0144673D03*
X0128080Y0146640D03*
X0124145Y0146649D03*
X0124143Y0144681D03*
X0124143Y0142909D03*
X0124143Y0141138D03*
X0036545Y0141130D03*
X0036545Y0142901D03*
X0036545Y0144673D03*
X0036545Y0146640D03*
X0032609Y0146649D03*
X0032608Y0144681D03*
X0032608Y0142909D03*
X0032608Y0141138D03*
D17*
X0026796Y0154544D03*
X0026796Y0157496D03*
X0026796Y0160893D03*
X0042612Y0160889D03*
X0042612Y0157492D03*
X0042612Y0154539D03*
X0118332Y0154544D03*
X0118332Y0157496D03*
X0118332Y0160893D03*
X0134147Y0160889D03*
X0134147Y0157492D03*
X0134147Y0154539D03*
X0166173Y0106090D03*
X0169125Y0106090D03*
X0172522Y0106090D03*
X0172522Y0058766D03*
X0169125Y0058766D03*
X0166173Y0058766D03*
D18*
X0150359Y0018768D03*
X0051599Y0140399D03*
D19*
X0093257Y0141987D03*
X0098769Y0141987D03*
X0104280Y0141987D03*
X0109792Y0141987D03*
X0112548Y0141987D03*
X0097233Y0133973D03*
X0097233Y0129556D03*
D20*
X0107298Y0129474D03*
X0107298Y0133994D03*
X0117298Y0133994D03*
X0117298Y0129474D03*
X0127298Y0129474D03*
X0127298Y0133994D03*
X0137298Y0133994D03*
X0137298Y0129474D03*
X0147298Y0129474D03*
X0147298Y0133994D03*
X0147298Y0111041D03*
X0147298Y0106521D03*
X0137298Y0106521D03*
X0137298Y0111041D03*
X0127298Y0111041D03*
X0127298Y0106521D03*
X0117298Y0106521D03*
X0117298Y0111041D03*
X0107298Y0111041D03*
X0107298Y0106521D03*
X0097298Y0106521D03*
X0097298Y0111041D03*
D21*
X0096710Y0108800D03*
X0097889Y0108800D03*
X0106710Y0108800D03*
X0107889Y0108800D03*
X0116710Y0108800D03*
X0117889Y0108800D03*
X0126710Y0108800D03*
X0127889Y0108800D03*
X0136710Y0108800D03*
X0137889Y0108800D03*
X0146710Y0108800D03*
X0147889Y0108800D03*
X0147889Y0131753D03*
X0146710Y0131753D03*
X0137889Y0131753D03*
X0136710Y0131753D03*
X0127889Y0131753D03*
X0126710Y0131753D03*
X0117889Y0131753D03*
X0116710Y0131753D03*
X0107889Y0131753D03*
X0106710Y0131753D03*
D22*
X0129061Y0023161D03*
X0129061Y0015561D03*
X0137061Y0019361D03*
X0052794Y0018979D03*
X0044794Y0022779D03*
X0044794Y0015179D03*
X0037617Y0018979D03*
X0029617Y0022779D03*
X0029617Y0015179D03*
D23*
X0029527Y0031068D03*
X0036929Y0031068D03*
X0058635Y0024978D03*
X0066037Y0024978D03*
X0073166Y0023627D03*
X0080568Y0023627D03*
X0080568Y0015806D03*
X0073166Y0015806D03*
X0110995Y0018179D03*
X0110995Y0025115D03*
X0118396Y0025115D03*
X0118396Y0018179D03*
X0118320Y0034299D03*
X0125721Y0034299D03*
X0135817Y0030741D03*
X0143218Y0030741D03*
X0134646Y0087221D03*
X0127244Y0087221D03*
X0117058Y0099671D03*
X0109656Y0099671D03*
D24*
X0088222Y0113297D03*
X0080622Y0113297D03*
X0084422Y0121297D03*
D25*
X0038783Y0130867D03*
X0038783Y0134811D03*
D26*
X0063571Y0140553D03*
X0063571Y0141221D03*
X0073571Y0141221D03*
X0073571Y0140553D03*
X0073571Y0158153D03*
X0073571Y0158821D03*
X0063571Y0158821D03*
X0063571Y0158153D03*
X0053571Y0158153D03*
X0053571Y0158821D03*
X0083571Y0158821D03*
X0083571Y0158153D03*
X0093571Y0158153D03*
X0093571Y0158821D03*
X0103571Y0158821D03*
X0103571Y0158153D03*
D27*
X0101834Y0022483D03*
X0101834Y0016987D03*
X0087310Y0016987D03*
X0087310Y0022483D03*
D28*
X0158446Y0114638D03*
X0158446Y0126449D03*
X0158446Y0132354D03*
D29*
X0163466Y0129512D02*
X0163468Y0129598D01*
X0163474Y0129685D01*
X0163484Y0129770D01*
X0163498Y0129856D01*
X0163516Y0129940D01*
X0163537Y0130024D01*
X0163563Y0130106D01*
X0163592Y0130188D01*
X0163625Y0130267D01*
X0163662Y0130346D01*
X0163702Y0130422D01*
X0163746Y0130496D01*
X0163793Y0130569D01*
X0163844Y0130639D01*
X0163897Y0130707D01*
X0163954Y0130772D01*
X0164014Y0130834D01*
X0164076Y0130894D01*
X0164141Y0130951D01*
X0164209Y0131004D01*
X0164279Y0131055D01*
X0164352Y0131102D01*
X0164426Y0131146D01*
X0164502Y0131186D01*
X0164581Y0131223D01*
X0164660Y0131256D01*
X0164742Y0131285D01*
X0164824Y0131311D01*
X0164908Y0131332D01*
X0164992Y0131350D01*
X0165078Y0131364D01*
X0165163Y0131374D01*
X0165250Y0131380D01*
X0165336Y0131382D01*
X0165422Y0131380D01*
X0165509Y0131374D01*
X0165594Y0131364D01*
X0165680Y0131350D01*
X0165764Y0131332D01*
X0165848Y0131311D01*
X0165930Y0131285D01*
X0166012Y0131256D01*
X0166091Y0131223D01*
X0166170Y0131186D01*
X0166246Y0131146D01*
X0166320Y0131102D01*
X0166393Y0131055D01*
X0166463Y0131004D01*
X0166531Y0130951D01*
X0166596Y0130894D01*
X0166658Y0130834D01*
X0166718Y0130772D01*
X0166775Y0130707D01*
X0166828Y0130639D01*
X0166879Y0130569D01*
X0166926Y0130496D01*
X0166970Y0130422D01*
X0167010Y0130346D01*
X0167047Y0130267D01*
X0167080Y0130188D01*
X0167109Y0130106D01*
X0167135Y0130024D01*
X0167156Y0129940D01*
X0167174Y0129856D01*
X0167188Y0129770D01*
X0167198Y0129685D01*
X0167204Y0129598D01*
X0167206Y0129512D01*
X0167204Y0129426D01*
X0167198Y0129339D01*
X0167188Y0129254D01*
X0167174Y0129168D01*
X0167156Y0129084D01*
X0167135Y0129000D01*
X0167109Y0128918D01*
X0167080Y0128836D01*
X0167047Y0128757D01*
X0167010Y0128678D01*
X0166970Y0128602D01*
X0166926Y0128528D01*
X0166879Y0128455D01*
X0166828Y0128385D01*
X0166775Y0128317D01*
X0166718Y0128252D01*
X0166658Y0128190D01*
X0166596Y0128130D01*
X0166531Y0128073D01*
X0166463Y0128020D01*
X0166393Y0127969D01*
X0166320Y0127922D01*
X0166246Y0127878D01*
X0166170Y0127838D01*
X0166091Y0127801D01*
X0166012Y0127768D01*
X0165930Y0127739D01*
X0165848Y0127713D01*
X0165764Y0127692D01*
X0165680Y0127674D01*
X0165594Y0127660D01*
X0165509Y0127650D01*
X0165422Y0127644D01*
X0165336Y0127642D01*
X0165250Y0127644D01*
X0165163Y0127650D01*
X0165078Y0127660D01*
X0164992Y0127674D01*
X0164908Y0127692D01*
X0164824Y0127713D01*
X0164742Y0127739D01*
X0164660Y0127768D01*
X0164581Y0127801D01*
X0164502Y0127838D01*
X0164426Y0127878D01*
X0164352Y0127922D01*
X0164279Y0127969D01*
X0164209Y0128020D01*
X0164141Y0128073D01*
X0164076Y0128130D01*
X0164014Y0128190D01*
X0163954Y0128252D01*
X0163897Y0128317D01*
X0163844Y0128385D01*
X0163793Y0128455D01*
X0163746Y0128528D01*
X0163702Y0128602D01*
X0163662Y0128678D01*
X0163625Y0128757D01*
X0163592Y0128836D01*
X0163563Y0128918D01*
X0163537Y0129000D01*
X0163516Y0129084D01*
X0163498Y0129168D01*
X0163484Y0129254D01*
X0163474Y0129339D01*
X0163468Y0129426D01*
X0163466Y0129512D01*
X0163466Y0117480D02*
X0163468Y0117566D01*
X0163474Y0117653D01*
X0163484Y0117738D01*
X0163498Y0117824D01*
X0163516Y0117908D01*
X0163537Y0117992D01*
X0163563Y0118074D01*
X0163592Y0118156D01*
X0163625Y0118235D01*
X0163662Y0118314D01*
X0163702Y0118390D01*
X0163746Y0118464D01*
X0163793Y0118537D01*
X0163844Y0118607D01*
X0163897Y0118675D01*
X0163954Y0118740D01*
X0164014Y0118802D01*
X0164076Y0118862D01*
X0164141Y0118919D01*
X0164209Y0118972D01*
X0164279Y0119023D01*
X0164352Y0119070D01*
X0164426Y0119114D01*
X0164502Y0119154D01*
X0164581Y0119191D01*
X0164660Y0119224D01*
X0164742Y0119253D01*
X0164824Y0119279D01*
X0164908Y0119300D01*
X0164992Y0119318D01*
X0165078Y0119332D01*
X0165163Y0119342D01*
X0165250Y0119348D01*
X0165336Y0119350D01*
X0165422Y0119348D01*
X0165509Y0119342D01*
X0165594Y0119332D01*
X0165680Y0119318D01*
X0165764Y0119300D01*
X0165848Y0119279D01*
X0165930Y0119253D01*
X0166012Y0119224D01*
X0166091Y0119191D01*
X0166170Y0119154D01*
X0166246Y0119114D01*
X0166320Y0119070D01*
X0166393Y0119023D01*
X0166463Y0118972D01*
X0166531Y0118919D01*
X0166596Y0118862D01*
X0166658Y0118802D01*
X0166718Y0118740D01*
X0166775Y0118675D01*
X0166828Y0118607D01*
X0166879Y0118537D01*
X0166926Y0118464D01*
X0166970Y0118390D01*
X0167010Y0118314D01*
X0167047Y0118235D01*
X0167080Y0118156D01*
X0167109Y0118074D01*
X0167135Y0117992D01*
X0167156Y0117908D01*
X0167174Y0117824D01*
X0167188Y0117738D01*
X0167198Y0117653D01*
X0167204Y0117566D01*
X0167206Y0117480D01*
X0167204Y0117394D01*
X0167198Y0117307D01*
X0167188Y0117222D01*
X0167174Y0117136D01*
X0167156Y0117052D01*
X0167135Y0116968D01*
X0167109Y0116886D01*
X0167080Y0116804D01*
X0167047Y0116725D01*
X0167010Y0116646D01*
X0166970Y0116570D01*
X0166926Y0116496D01*
X0166879Y0116423D01*
X0166828Y0116353D01*
X0166775Y0116285D01*
X0166718Y0116220D01*
X0166658Y0116158D01*
X0166596Y0116098D01*
X0166531Y0116041D01*
X0166463Y0115988D01*
X0166393Y0115937D01*
X0166320Y0115890D01*
X0166246Y0115846D01*
X0166170Y0115806D01*
X0166091Y0115769D01*
X0166012Y0115736D01*
X0165930Y0115707D01*
X0165848Y0115681D01*
X0165764Y0115660D01*
X0165680Y0115642D01*
X0165594Y0115628D01*
X0165509Y0115618D01*
X0165422Y0115612D01*
X0165336Y0115610D01*
X0165250Y0115612D01*
X0165163Y0115618D01*
X0165078Y0115628D01*
X0164992Y0115642D01*
X0164908Y0115660D01*
X0164824Y0115681D01*
X0164742Y0115707D01*
X0164660Y0115736D01*
X0164581Y0115769D01*
X0164502Y0115806D01*
X0164426Y0115846D01*
X0164352Y0115890D01*
X0164279Y0115937D01*
X0164209Y0115988D01*
X0164141Y0116041D01*
X0164076Y0116098D01*
X0164014Y0116158D01*
X0163954Y0116220D01*
X0163897Y0116285D01*
X0163844Y0116353D01*
X0163793Y0116423D01*
X0163746Y0116496D01*
X0163702Y0116570D01*
X0163662Y0116646D01*
X0163625Y0116725D01*
X0163592Y0116804D01*
X0163563Y0116886D01*
X0163537Y0116968D01*
X0163516Y0117052D01*
X0163498Y0117136D01*
X0163484Y0117222D01*
X0163474Y0117307D01*
X0163468Y0117394D01*
X0163466Y0117480D01*
D30*
X0165336Y0117480D03*
X0165336Y0129512D03*
D31*
X0103574Y0146342D03*
X0103574Y0153137D03*
X0093574Y0153137D03*
X0083574Y0153137D03*
X0073574Y0153137D03*
X0073574Y0146342D03*
X0063574Y0146342D03*
X0063574Y0153137D03*
X0053574Y0153137D03*
M02*
