%
M48
M72
T01C0.01378
T02C0.03740
T03C0.05276
%
T01
X128690Y42948
X125202Y46262
X121209Y46098
X122163Y40859
X110857Y33496
X99634Y50480
X87022Y55408
X78844Y40034
X61871Y18958
X58757Y14740
X65256Y14854
X37785Y14313
X46266Y50160
X46274Y69896
X52312Y83893
X69241Y71295
X87891Y78814
X98550Y77877
X108054Y81526
X115968Y80731
X116306Y75886
X117529Y71014
X131446Y72870
X133808Y68539
X140423Y66938
X133021Y78382
X122949Y87025
X121008Y93729
X113657Y94594
X102312Y100822
X92146Y112762
X101842Y119647
X114136Y119504
X110952Y134111
X101506Y136216
X121241Y136920
X130276Y123010
X139832Y115620
X144044Y120114
X150737Y118539
X143280Y127150
X28189Y134660
X72391Y111059
X49977Y110061
X31446Y83893
X106934Y13418
X119092Y12605
X164759Y123504
X168995Y112861
X156996Y104833
X154280Y107909
X164328Y98684
X163343Y94661
X163343Y90309
X163335Y83263
X163572Y77673
X163572Y73893
X163572Y70114
X163572Y66334
X169871Y93736
X134132Y93019
T02
X165336Y129512
X165336Y117480
T03
X73574Y146342
X73574Y153137
X63574Y153137
X63574Y146342
X53574Y153137
X83574Y153137
X93574Y153137
X103574Y153137
X103574Y146342
M30
