G75*
%MOIN*%
%OFA0B0*%
%FSLAX25Y25*%
%IPPOS*%
%LPD*%
%AMOC8*
5,1,8,0,0,1.08239X$1,22.5*
%
%ADD10C,0.00394*%
%ADD11R,0.20079X0.29921*%
%ADD12R,0.07199X0.30701*%
%ADD13R,0.11424X0.30131*%
%ADD14R,0.13681X0.20523*%
%ADD15R,0.01984X0.02053*%
%ADD16R,0.01430X0.07041*%
%ADD17R,0.07041X0.01430*%
%ADD18R,0.01181X0.06443*%
%ADD19R,0.02361X0.02361*%
%ADD20R,0.05906X0.05906*%
%ADD21C,0.05118*%
%ADD22R,0.05512X0.05512*%
%ADD23C,0.05512*%
%ADD24R,0.04331X0.04331*%
%ADD25R,0.03500X0.03100*%
%ADD26R,0.04016X0.05512*%
%ADD27R,0.03100X0.03500*%
%ADD28R,0.06298X0.06298*%
%ADD29R,0.07480X0.07480*%
%ADD30R,0.06693X0.04134*%
%ADD31R,0.05906X0.02756*%
%ADD32C,0.00000*%
%ADD33C,0.07913*%
%ADD34C,0.00800*%
%ADD35C,0.00787*%
%ADD36C,0.01200*%
%ADD37C,0.02978*%
%ADD38C,0.01000*%
%ADD39C,0.00600*%
D10*
X0022784Y0008696D02*
X0160949Y0008696D01*
X0160949Y0038821D01*
X0136952Y0038821D01*
X0136810Y0038823D01*
X0136668Y0038829D01*
X0136526Y0038839D01*
X0136385Y0038852D01*
X0136244Y0038870D01*
X0136103Y0038891D01*
X0135963Y0038917D01*
X0135824Y0038946D01*
X0135686Y0038979D01*
X0135549Y0039016D01*
X0135413Y0039056D01*
X0135278Y0039100D01*
X0135144Y0039148D01*
X0135011Y0039200D01*
X0134880Y0039255D01*
X0134751Y0039314D01*
X0134623Y0039377D01*
X0134498Y0039443D01*
X0134373Y0039512D01*
X0134251Y0039585D01*
X0134131Y0039661D01*
X0134013Y0039740D01*
X0133898Y0039823D01*
X0133785Y0039908D01*
X0133674Y0039997D01*
X0133565Y0040089D01*
X0133459Y0040184D01*
X0133356Y0040282D01*
X0133256Y0040382D01*
X0133158Y0040485D01*
X0133063Y0040591D01*
X0132971Y0040700D01*
X0132882Y0040811D01*
X0132797Y0040924D01*
X0132714Y0041039D01*
X0132635Y0041157D01*
X0132559Y0041277D01*
X0132486Y0041400D01*
X0132417Y0041524D01*
X0132351Y0041649D01*
X0132288Y0041777D01*
X0132229Y0041906D01*
X0132174Y0042037D01*
X0132122Y0042170D01*
X0132074Y0042304D01*
X0132030Y0042439D01*
X0131990Y0042575D01*
X0131953Y0042712D01*
X0131920Y0042850D01*
X0131891Y0042989D01*
X0131865Y0043129D01*
X0131844Y0043270D01*
X0131826Y0043411D01*
X0131813Y0043552D01*
X0131803Y0043694D01*
X0131797Y0043836D01*
X0131795Y0043978D01*
X0131795Y0048540D01*
X0131797Y0048694D01*
X0131803Y0048848D01*
X0131813Y0049001D01*
X0131827Y0049154D01*
X0131844Y0049307D01*
X0131866Y0049459D01*
X0131892Y0049611D01*
X0131921Y0049762D01*
X0131955Y0049912D01*
X0131992Y0050062D01*
X0132033Y0050210D01*
X0132078Y0050357D01*
X0132127Y0050503D01*
X0132179Y0050648D01*
X0132235Y0050791D01*
X0132295Y0050933D01*
X0132358Y0051073D01*
X0132425Y0051211D01*
X0132496Y0051348D01*
X0132570Y0051483D01*
X0132648Y0051616D01*
X0132728Y0051747D01*
X0132813Y0051876D01*
X0132900Y0052002D01*
X0132991Y0052126D01*
X0133085Y0052248D01*
X0133182Y0052368D01*
X0133282Y0052484D01*
X0133385Y0052599D01*
X0133491Y0052710D01*
X0133600Y0052819D01*
X0133711Y0052925D01*
X0133826Y0053028D01*
X0133942Y0053128D01*
X0134062Y0053225D01*
X0134184Y0053319D01*
X0134308Y0053410D01*
X0134434Y0053497D01*
X0134563Y0053582D01*
X0134694Y0053662D01*
X0134827Y0053740D01*
X0134962Y0053814D01*
X0135099Y0053885D01*
X0135237Y0053952D01*
X0135377Y0054015D01*
X0135519Y0054075D01*
X0135662Y0054131D01*
X0135807Y0054183D01*
X0135953Y0054232D01*
X0136100Y0054277D01*
X0136248Y0054318D01*
X0136398Y0054355D01*
X0136548Y0054389D01*
X0136699Y0054418D01*
X0136851Y0054444D01*
X0137003Y0054466D01*
X0137156Y0054483D01*
X0137309Y0054497D01*
X0137462Y0054507D01*
X0137616Y0054513D01*
X0137770Y0054515D01*
X0137770Y0054516D02*
X0175455Y0054516D01*
X0175455Y0138091D01*
X0143886Y0138091D01*
X0143738Y0138093D01*
X0143590Y0138099D01*
X0143443Y0138108D01*
X0143296Y0138122D01*
X0143149Y0138139D01*
X0143002Y0138161D01*
X0142857Y0138186D01*
X0142712Y0138214D01*
X0142568Y0138247D01*
X0142424Y0138283D01*
X0142282Y0138324D01*
X0142141Y0138367D01*
X0142001Y0138415D01*
X0141862Y0138466D01*
X0141725Y0138521D01*
X0141589Y0138579D01*
X0141454Y0138641D01*
X0141322Y0138707D01*
X0141191Y0138775D01*
X0141062Y0138848D01*
X0140935Y0138923D01*
X0140810Y0139002D01*
X0140687Y0139084D01*
X0140566Y0139170D01*
X0140448Y0139258D01*
X0140332Y0139350D01*
X0140218Y0139444D01*
X0140107Y0139542D01*
X0139998Y0139642D01*
X0139892Y0139745D01*
X0139789Y0139851D01*
X0139689Y0139960D01*
X0139591Y0140071D01*
X0139497Y0140185D01*
X0139405Y0140301D01*
X0139317Y0140419D01*
X0139231Y0140540D01*
X0139149Y0140663D01*
X0139070Y0140788D01*
X0138995Y0140915D01*
X0138922Y0141044D01*
X0138854Y0141175D01*
X0138788Y0141307D01*
X0138726Y0141442D01*
X0138668Y0141578D01*
X0138613Y0141715D01*
X0138562Y0141854D01*
X0138514Y0141994D01*
X0138471Y0142135D01*
X0138430Y0142277D01*
X0138394Y0142421D01*
X0138361Y0142565D01*
X0138333Y0142710D01*
X0138308Y0142855D01*
X0138286Y0143002D01*
X0138269Y0143149D01*
X0138255Y0143296D01*
X0138246Y0143443D01*
X0138240Y0143591D01*
X0138238Y0143739D01*
X0138239Y0143739D02*
X0138239Y0165285D01*
X0022784Y0165285D01*
X0022784Y0008696D01*
X0045436Y0131992D02*
X0082738Y0131992D01*
X0082818Y0131994D01*
X0082897Y0132000D01*
X0082977Y0132009D01*
X0083055Y0132022D01*
X0083133Y0132039D01*
X0083210Y0132060D01*
X0083286Y0132084D01*
X0083361Y0132112D01*
X0083435Y0132144D01*
X0083506Y0132178D01*
X0083577Y0132217D01*
X0083645Y0132258D01*
X0083711Y0132303D01*
X0083775Y0132351D01*
X0083836Y0132402D01*
X0083895Y0132455D01*
X0083952Y0132512D01*
X0084005Y0132571D01*
X0084056Y0132632D01*
X0084104Y0132696D01*
X0084149Y0132762D01*
X0084190Y0132831D01*
X0084229Y0132901D01*
X0084263Y0132972D01*
X0084295Y0133046D01*
X0084323Y0133121D01*
X0084347Y0133197D01*
X0084368Y0133274D01*
X0084385Y0133352D01*
X0084398Y0133430D01*
X0084407Y0133510D01*
X0084413Y0133589D01*
X0084415Y0133669D01*
X0084413Y0133755D01*
X0084407Y0133841D01*
X0084398Y0133927D01*
X0084385Y0134013D01*
X0084368Y0134097D01*
X0084348Y0134181D01*
X0084323Y0134264D01*
X0084296Y0134346D01*
X0084264Y0134426D01*
X0084230Y0134505D01*
X0084191Y0134583D01*
X0084150Y0134659D01*
X0084105Y0134732D01*
X0084057Y0134804D01*
X0084006Y0134874D01*
X0083952Y0134941D01*
X0083895Y0135006D01*
X0083835Y0135068D01*
X0083773Y0135128D01*
X0083708Y0135185D01*
X0083641Y0135239D01*
X0083571Y0135290D01*
X0083499Y0135338D01*
X0083426Y0135383D01*
X0083350Y0135424D01*
X0083272Y0135463D01*
X0083193Y0135497D01*
X0083113Y0135529D01*
X0083031Y0135556D01*
X0082948Y0135581D01*
X0082864Y0135601D01*
X0082780Y0135618D01*
X0082694Y0135631D01*
X0082608Y0135640D01*
X0082522Y0135646D01*
X0082436Y0135648D01*
X0081529Y0135648D01*
X0081529Y0135647D01*
X0081528Y0135646D01*
X0081527Y0135646D01*
X0045655Y0135646D01*
X0045656Y0135646D02*
X0045573Y0135644D01*
X0045491Y0135638D01*
X0045409Y0135629D01*
X0045328Y0135616D01*
X0045247Y0135599D01*
X0045167Y0135578D01*
X0045088Y0135554D01*
X0045011Y0135526D01*
X0044934Y0135494D01*
X0044860Y0135459D01*
X0044787Y0135421D01*
X0044715Y0135379D01*
X0044646Y0135334D01*
X0044579Y0135286D01*
X0044515Y0135235D01*
X0044452Y0135180D01*
X0044393Y0135123D01*
X0044336Y0135064D01*
X0044281Y0135002D01*
X0044230Y0134937D01*
X0044182Y0134870D01*
X0044137Y0134801D01*
X0044095Y0134730D01*
X0044057Y0134657D01*
X0044022Y0134582D01*
X0043990Y0134506D01*
X0043962Y0134428D01*
X0043937Y0134350D01*
X0043917Y0134270D01*
X0043900Y0134189D01*
X0043886Y0134108D01*
X0043877Y0134026D01*
X0043871Y0133943D01*
X0043869Y0133861D01*
X0043869Y0133559D01*
X0043871Y0133482D01*
X0043877Y0133405D01*
X0043886Y0133329D01*
X0043899Y0133253D01*
X0043916Y0133178D01*
X0043936Y0133104D01*
X0043961Y0133031D01*
X0043988Y0132959D01*
X0044019Y0132889D01*
X0044054Y0132820D01*
X0044092Y0132753D01*
X0044133Y0132688D01*
X0044177Y0132626D01*
X0044225Y0132565D01*
X0044275Y0132507D01*
X0044328Y0132451D01*
X0044384Y0132398D01*
X0044442Y0132348D01*
X0044503Y0132300D01*
X0044565Y0132256D01*
X0044630Y0132215D01*
X0044697Y0132177D01*
X0044766Y0132142D01*
X0044836Y0132111D01*
X0044908Y0132084D01*
X0044981Y0132059D01*
X0045055Y0132039D01*
X0045130Y0132022D01*
X0045206Y0132009D01*
X0045282Y0132000D01*
X0045359Y0131994D01*
X0045436Y0131992D01*
X0048098Y0145156D02*
X0109088Y0145156D01*
X0109089Y0145156D02*
X0109224Y0145159D01*
X0109360Y0145165D01*
X0109495Y0145176D01*
X0109630Y0145190D01*
X0109764Y0145208D01*
X0109898Y0145230D01*
X0110031Y0145257D01*
X0110163Y0145286D01*
X0110294Y0145320D01*
X0110425Y0145358D01*
X0110554Y0145399D01*
X0110682Y0145444D01*
X0110808Y0145493D01*
X0110933Y0145545D01*
X0111057Y0145602D01*
X0111179Y0145661D01*
X0111299Y0145724D01*
X0111417Y0145791D01*
X0111533Y0145861D01*
X0111647Y0145934D01*
X0111759Y0146011D01*
X0111868Y0146091D01*
X0111976Y0146174D01*
X0112080Y0146260D01*
X0112183Y0146349D01*
X0112282Y0146441D01*
X0112379Y0146536D01*
X0112473Y0146634D01*
X0112564Y0146734D01*
X0112652Y0146837D01*
X0112738Y0146943D01*
X0112820Y0147051D01*
X0112899Y0147161D01*
X0112974Y0147273D01*
X0113047Y0147388D01*
X0113116Y0147505D01*
X0113181Y0147623D01*
X0113243Y0147744D01*
X0113302Y0147866D01*
X0113357Y0147990D01*
X0113408Y0148116D01*
X0113456Y0148243D01*
X0113500Y0148371D01*
X0113540Y0148501D01*
X0113576Y0148631D01*
X0113609Y0148763D01*
X0113638Y0148895D01*
X0113663Y0149029D01*
X0113684Y0149163D01*
X0113701Y0149297D01*
X0113714Y0149432D01*
X0113723Y0149567D01*
X0113729Y0149703D01*
X0113730Y0149839D01*
X0113729Y0149838D02*
X0113729Y0150957D01*
X0113727Y0151069D01*
X0113721Y0151180D01*
X0113712Y0151292D01*
X0113699Y0151403D01*
X0113681Y0151513D01*
X0113661Y0151623D01*
X0113636Y0151732D01*
X0113608Y0151840D01*
X0113576Y0151947D01*
X0113540Y0152053D01*
X0113501Y0152158D01*
X0113458Y0152261D01*
X0113412Y0152363D01*
X0113362Y0152463D01*
X0113309Y0152562D01*
X0113252Y0152658D01*
X0113193Y0152753D01*
X0113130Y0152845D01*
X0113064Y0152935D01*
X0112995Y0153023D01*
X0112923Y0153109D01*
X0112848Y0153192D01*
X0112770Y0153272D01*
X0112690Y0153350D01*
X0112607Y0153425D01*
X0112521Y0153497D01*
X0112433Y0153566D01*
X0112343Y0153632D01*
X0112251Y0153695D01*
X0112156Y0153754D01*
X0112060Y0153811D01*
X0111961Y0153864D01*
X0111861Y0153914D01*
X0111759Y0153960D01*
X0111656Y0154003D01*
X0111551Y0154042D01*
X0111445Y0154078D01*
X0111338Y0154110D01*
X0111230Y0154138D01*
X0111121Y0154163D01*
X0111011Y0154183D01*
X0110901Y0154201D01*
X0110790Y0154214D01*
X0110678Y0154223D01*
X0110567Y0154229D01*
X0110455Y0154231D01*
X0110455Y0154230D02*
X0048720Y0154230D01*
X0048592Y0154228D01*
X0048464Y0154222D01*
X0048337Y0154212D01*
X0048210Y0154199D01*
X0048083Y0154181D01*
X0047957Y0154159D01*
X0047831Y0154134D01*
X0047707Y0154105D01*
X0047583Y0154071D01*
X0047461Y0154035D01*
X0047339Y0153994D01*
X0047219Y0153949D01*
X0047101Y0153901D01*
X0046984Y0153850D01*
X0046868Y0153795D01*
X0046755Y0153736D01*
X0046643Y0153673D01*
X0046533Y0153608D01*
X0046425Y0153539D01*
X0046320Y0153466D01*
X0046217Y0153391D01*
X0046116Y0153312D01*
X0046017Y0153231D01*
X0045921Y0153146D01*
X0045828Y0153058D01*
X0045738Y0152968D01*
X0045650Y0152875D01*
X0045565Y0152779D01*
X0045484Y0152680D01*
X0045405Y0152579D01*
X0045330Y0152476D01*
X0045257Y0152371D01*
X0045188Y0152263D01*
X0045123Y0152153D01*
X0045060Y0152041D01*
X0045001Y0151928D01*
X0044946Y0151812D01*
X0044895Y0151695D01*
X0044847Y0151577D01*
X0044802Y0151457D01*
X0044761Y0151335D01*
X0044725Y0151213D01*
X0044691Y0151089D01*
X0044662Y0150965D01*
X0044637Y0150839D01*
X0044615Y0150713D01*
X0044597Y0150586D01*
X0044584Y0150459D01*
X0044574Y0150332D01*
X0044568Y0150204D01*
X0044566Y0150076D01*
X0044566Y0148688D01*
X0044568Y0148570D01*
X0044574Y0148452D01*
X0044584Y0148334D01*
X0044598Y0148217D01*
X0044615Y0148101D01*
X0044637Y0147984D01*
X0044662Y0147869D01*
X0044691Y0147755D01*
X0044725Y0147642D01*
X0044761Y0147529D01*
X0044802Y0147419D01*
X0044846Y0147309D01*
X0044894Y0147201D01*
X0044946Y0147095D01*
X0045001Y0146991D01*
X0045059Y0146888D01*
X0045121Y0146787D01*
X0045186Y0146689D01*
X0045254Y0146593D01*
X0045326Y0146499D01*
X0045401Y0146408D01*
X0045478Y0146319D01*
X0045559Y0146233D01*
X0045643Y0146149D01*
X0045729Y0146068D01*
X0045818Y0145991D01*
X0045909Y0145916D01*
X0046003Y0145844D01*
X0046099Y0145776D01*
X0046197Y0145711D01*
X0046298Y0145649D01*
X0046401Y0145591D01*
X0046505Y0145536D01*
X0046611Y0145484D01*
X0046719Y0145436D01*
X0046829Y0145392D01*
X0046939Y0145351D01*
X0047052Y0145315D01*
X0047165Y0145281D01*
X0047279Y0145252D01*
X0047394Y0145227D01*
X0047511Y0145205D01*
X0047627Y0145188D01*
X0047744Y0145174D01*
X0047862Y0145164D01*
X0047980Y0145158D01*
X0048098Y0145156D01*
D11*
X0094635Y0066964D03*
D12*
X0099783Y0063540D03*
D13*
X0108382Y0063256D03*
D14*
X0111759Y0058437D03*
D15*
X0045601Y0010894D03*
X0039897Y0010883D03*
X0033628Y0010886D03*
D16*
X0086686Y0042547D03*
X0088654Y0042547D03*
X0090623Y0042547D03*
X0092591Y0042547D03*
X0094560Y0042547D03*
X0096528Y0042547D03*
X0098497Y0042547D03*
X0100465Y0042547D03*
X0102434Y0042547D03*
X0104402Y0042547D03*
X0106371Y0042547D03*
X0108339Y0042547D03*
X0110308Y0042547D03*
X0112276Y0042547D03*
X0114245Y0042547D03*
X0116213Y0042547D03*
X0116213Y0087639D03*
X0114245Y0087639D03*
X0112276Y0087639D03*
X0110308Y0087639D03*
X0108339Y0087639D03*
X0106371Y0087639D03*
X0104402Y0087639D03*
X0102434Y0087639D03*
X0100465Y0087639D03*
X0098497Y0087639D03*
X0096528Y0087639D03*
X0094560Y0087639D03*
X0092591Y0087639D03*
X0090623Y0087639D03*
X0088654Y0087639D03*
X0086686Y0087639D03*
D17*
X0078904Y0079857D03*
X0078904Y0077888D03*
X0078904Y0075920D03*
X0078904Y0073951D03*
X0078904Y0071983D03*
X0078904Y0070014D03*
X0078904Y0068046D03*
X0078904Y0066077D03*
X0078904Y0064109D03*
X0078904Y0062140D03*
X0078904Y0060172D03*
X0078904Y0058203D03*
X0078904Y0056235D03*
X0078904Y0054266D03*
X0078904Y0052298D03*
X0078904Y0050329D03*
X0123995Y0050329D03*
X0123995Y0052298D03*
X0123995Y0054266D03*
X0123995Y0056235D03*
X0123995Y0058203D03*
X0123995Y0060172D03*
X0123995Y0062140D03*
X0123995Y0064109D03*
X0123995Y0066077D03*
X0123995Y0068046D03*
X0123995Y0070014D03*
X0123995Y0071983D03*
X0123995Y0073951D03*
X0123995Y0075920D03*
X0123995Y0077888D03*
X0123995Y0079857D03*
D18*
X0072426Y0118438D03*
X0070458Y0118438D03*
X0068489Y0118438D03*
X0066521Y0118438D03*
X0064552Y0118438D03*
X0062584Y0118438D03*
X0060615Y0118438D03*
X0058647Y0118438D03*
X0056678Y0118438D03*
X0054710Y0118438D03*
X0052741Y0118438D03*
X0050773Y0118438D03*
X0048804Y0118438D03*
X0046836Y0118438D03*
X0044867Y0118438D03*
X0042899Y0118438D03*
X0040930Y0118438D03*
X0038962Y0118438D03*
X0036993Y0118438D03*
X0035025Y0118438D03*
X0033056Y0118438D03*
X0031088Y0118438D03*
X0029119Y0118438D03*
X0027151Y0118438D03*
X0027151Y0040963D03*
X0029119Y0040963D03*
X0031088Y0040963D03*
X0033056Y0040963D03*
X0035025Y0040963D03*
X0036993Y0040963D03*
X0038962Y0040963D03*
X0040930Y0040963D03*
X0042899Y0040963D03*
X0044867Y0040963D03*
X0046836Y0040963D03*
X0048804Y0040963D03*
X0050773Y0040963D03*
X0052741Y0040963D03*
X0054710Y0040963D03*
X0056678Y0040963D03*
X0058647Y0040963D03*
X0060615Y0040963D03*
X0062584Y0040963D03*
X0064552Y0040963D03*
X0066521Y0040963D03*
X0068489Y0040963D03*
X0070458Y0040963D03*
X0072426Y0040963D03*
D19*
X0152763Y0064833D03*
X0154535Y0064833D03*
X0156306Y0064833D03*
X0158274Y0064833D03*
X0158282Y0068769D03*
X0156314Y0068769D03*
X0154543Y0068769D03*
X0152771Y0068769D03*
X0152763Y0072713D03*
X0154535Y0072713D03*
X0156306Y0072713D03*
X0158274Y0072713D03*
X0158278Y0076651D03*
X0156311Y0076651D03*
X0154539Y0076651D03*
X0152767Y0076651D03*
X0152763Y0080585D03*
X0154534Y0080585D03*
X0156306Y0080585D03*
X0158274Y0080585D03*
X0158278Y0084526D03*
X0156310Y0084526D03*
X0154538Y0084526D03*
X0152767Y0084526D03*
X0152775Y0088461D03*
X0154546Y0088461D03*
X0156318Y0088461D03*
X0158286Y0088461D03*
X0158278Y0092405D03*
X0156310Y0092405D03*
X0154538Y0092405D03*
X0152767Y0092405D03*
X0152771Y0096344D03*
X0154543Y0096344D03*
X0156314Y0096344D03*
X0158282Y0096344D03*
X0158277Y0100278D03*
X0156310Y0100278D03*
X0154538Y0100278D03*
X0152767Y0100278D03*
X0128080Y0141130D03*
X0128080Y0142901D03*
X0128080Y0144673D03*
X0128080Y0146640D03*
X0124145Y0146649D03*
X0124143Y0144681D03*
X0124143Y0142909D03*
X0124143Y0141138D03*
X0036545Y0141130D03*
X0036545Y0142901D03*
X0036545Y0144673D03*
X0036545Y0146640D03*
X0032609Y0146649D03*
X0032608Y0144681D03*
X0032608Y0142909D03*
X0032608Y0141138D03*
D20*
X0026796Y0154544D03*
X0026796Y0157496D03*
X0026796Y0160893D03*
X0042612Y0160889D03*
X0042612Y0157492D03*
X0042612Y0154539D03*
X0118332Y0154544D03*
X0118332Y0157496D03*
X0118332Y0160893D03*
X0134147Y0160889D03*
X0134147Y0157492D03*
X0134147Y0154539D03*
X0166173Y0106090D03*
X0169125Y0106090D03*
X0172522Y0106090D03*
X0172522Y0058766D03*
X0169125Y0058766D03*
X0166173Y0058766D03*
D21*
X0150359Y0018768D03*
X0051599Y0140399D03*
D22*
X0093257Y0141987D03*
X0098769Y0141987D03*
X0104280Y0141987D03*
X0109792Y0141987D03*
X0112548Y0141987D03*
X0097233Y0133973D03*
X0097233Y0129556D03*
D23*
X0107298Y0129474D03*
X0107298Y0133994D03*
X0117298Y0133994D03*
X0117298Y0129474D03*
X0127298Y0129474D03*
X0127298Y0133994D03*
X0137298Y0133994D03*
X0137298Y0129474D03*
X0147298Y0129474D03*
X0147298Y0133994D03*
X0147298Y0111041D03*
X0147298Y0106521D03*
X0137298Y0106521D03*
X0137298Y0111041D03*
X0127298Y0111041D03*
X0127298Y0106521D03*
X0117298Y0106521D03*
X0117298Y0111041D03*
X0107298Y0111041D03*
X0107298Y0106521D03*
X0097298Y0106521D03*
X0097298Y0111041D03*
D24*
X0096710Y0108800D03*
X0097889Y0108800D03*
X0106710Y0108800D03*
X0107889Y0108800D03*
X0116710Y0108800D03*
X0117889Y0108800D03*
X0126710Y0108800D03*
X0127889Y0108800D03*
X0136710Y0108800D03*
X0137889Y0108800D03*
X0146710Y0108800D03*
X0147889Y0108800D03*
X0147889Y0131753D03*
X0146710Y0131753D03*
X0137889Y0131753D03*
X0136710Y0131753D03*
X0127889Y0131753D03*
X0126710Y0131753D03*
X0117889Y0131753D03*
X0116710Y0131753D03*
X0107889Y0131753D03*
X0106710Y0131753D03*
D25*
X0129061Y0023161D03*
X0129061Y0015561D03*
X0137061Y0019361D03*
X0052794Y0018979D03*
X0044794Y0022779D03*
X0044794Y0015179D03*
X0037617Y0018979D03*
X0029617Y0022779D03*
X0029617Y0015179D03*
D26*
X0029527Y0031068D03*
X0036929Y0031068D03*
X0058635Y0024978D03*
X0066037Y0024978D03*
X0073166Y0023627D03*
X0080568Y0023627D03*
X0080568Y0015806D03*
X0073166Y0015806D03*
X0110995Y0018179D03*
X0110995Y0025115D03*
X0118396Y0025115D03*
X0118396Y0018179D03*
X0118320Y0034299D03*
X0125721Y0034299D03*
X0135817Y0030741D03*
X0143218Y0030741D03*
X0134646Y0087221D03*
X0127244Y0087221D03*
X0117058Y0099671D03*
X0109656Y0099671D03*
D27*
X0088222Y0113297D03*
X0080622Y0113297D03*
X0084422Y0121297D03*
D28*
X0038783Y0130867D03*
X0038783Y0134811D03*
D29*
X0063571Y0140553D03*
X0063571Y0141221D03*
X0073571Y0141221D03*
X0073571Y0140553D03*
X0073571Y0158153D03*
X0073571Y0158821D03*
X0063571Y0158821D03*
X0063571Y0158153D03*
X0053571Y0158153D03*
X0053571Y0158821D03*
X0083571Y0158821D03*
X0083571Y0158153D03*
X0093571Y0158153D03*
X0093571Y0158821D03*
X0103571Y0158821D03*
X0103571Y0158153D03*
D30*
X0101834Y0022483D03*
X0101834Y0016987D03*
X0087310Y0016987D03*
X0087310Y0022483D03*
D31*
X0158446Y0114638D03*
X0158446Y0126449D03*
X0158446Y0132354D03*
D32*
X0163466Y0129512D02*
X0163468Y0129598D01*
X0163474Y0129685D01*
X0163484Y0129770D01*
X0163498Y0129856D01*
X0163516Y0129940D01*
X0163537Y0130024D01*
X0163563Y0130106D01*
X0163592Y0130188D01*
X0163625Y0130267D01*
X0163662Y0130346D01*
X0163702Y0130422D01*
X0163746Y0130496D01*
X0163793Y0130569D01*
X0163844Y0130639D01*
X0163897Y0130707D01*
X0163954Y0130772D01*
X0164014Y0130834D01*
X0164076Y0130894D01*
X0164141Y0130951D01*
X0164209Y0131004D01*
X0164279Y0131055D01*
X0164352Y0131102D01*
X0164426Y0131146D01*
X0164502Y0131186D01*
X0164581Y0131223D01*
X0164660Y0131256D01*
X0164742Y0131285D01*
X0164824Y0131311D01*
X0164908Y0131332D01*
X0164992Y0131350D01*
X0165078Y0131364D01*
X0165163Y0131374D01*
X0165250Y0131380D01*
X0165336Y0131382D01*
X0165422Y0131380D01*
X0165509Y0131374D01*
X0165594Y0131364D01*
X0165680Y0131350D01*
X0165764Y0131332D01*
X0165848Y0131311D01*
X0165930Y0131285D01*
X0166012Y0131256D01*
X0166091Y0131223D01*
X0166170Y0131186D01*
X0166246Y0131146D01*
X0166320Y0131102D01*
X0166393Y0131055D01*
X0166463Y0131004D01*
X0166531Y0130951D01*
X0166596Y0130894D01*
X0166658Y0130834D01*
X0166718Y0130772D01*
X0166775Y0130707D01*
X0166828Y0130639D01*
X0166879Y0130569D01*
X0166926Y0130496D01*
X0166970Y0130422D01*
X0167010Y0130346D01*
X0167047Y0130267D01*
X0167080Y0130188D01*
X0167109Y0130106D01*
X0167135Y0130024D01*
X0167156Y0129940D01*
X0167174Y0129856D01*
X0167188Y0129770D01*
X0167198Y0129685D01*
X0167204Y0129598D01*
X0167206Y0129512D01*
X0167204Y0129426D01*
X0167198Y0129339D01*
X0167188Y0129254D01*
X0167174Y0129168D01*
X0167156Y0129084D01*
X0167135Y0129000D01*
X0167109Y0128918D01*
X0167080Y0128836D01*
X0167047Y0128757D01*
X0167010Y0128678D01*
X0166970Y0128602D01*
X0166926Y0128528D01*
X0166879Y0128455D01*
X0166828Y0128385D01*
X0166775Y0128317D01*
X0166718Y0128252D01*
X0166658Y0128190D01*
X0166596Y0128130D01*
X0166531Y0128073D01*
X0166463Y0128020D01*
X0166393Y0127969D01*
X0166320Y0127922D01*
X0166246Y0127878D01*
X0166170Y0127838D01*
X0166091Y0127801D01*
X0166012Y0127768D01*
X0165930Y0127739D01*
X0165848Y0127713D01*
X0165764Y0127692D01*
X0165680Y0127674D01*
X0165594Y0127660D01*
X0165509Y0127650D01*
X0165422Y0127644D01*
X0165336Y0127642D01*
X0165250Y0127644D01*
X0165163Y0127650D01*
X0165078Y0127660D01*
X0164992Y0127674D01*
X0164908Y0127692D01*
X0164824Y0127713D01*
X0164742Y0127739D01*
X0164660Y0127768D01*
X0164581Y0127801D01*
X0164502Y0127838D01*
X0164426Y0127878D01*
X0164352Y0127922D01*
X0164279Y0127969D01*
X0164209Y0128020D01*
X0164141Y0128073D01*
X0164076Y0128130D01*
X0164014Y0128190D01*
X0163954Y0128252D01*
X0163897Y0128317D01*
X0163844Y0128385D01*
X0163793Y0128455D01*
X0163746Y0128528D01*
X0163702Y0128602D01*
X0163662Y0128678D01*
X0163625Y0128757D01*
X0163592Y0128836D01*
X0163563Y0128918D01*
X0163537Y0129000D01*
X0163516Y0129084D01*
X0163498Y0129168D01*
X0163484Y0129254D01*
X0163474Y0129339D01*
X0163468Y0129426D01*
X0163466Y0129512D01*
X0163466Y0117480D02*
X0163468Y0117566D01*
X0163474Y0117653D01*
X0163484Y0117738D01*
X0163498Y0117824D01*
X0163516Y0117908D01*
X0163537Y0117992D01*
X0163563Y0118074D01*
X0163592Y0118156D01*
X0163625Y0118235D01*
X0163662Y0118314D01*
X0163702Y0118390D01*
X0163746Y0118464D01*
X0163793Y0118537D01*
X0163844Y0118607D01*
X0163897Y0118675D01*
X0163954Y0118740D01*
X0164014Y0118802D01*
X0164076Y0118862D01*
X0164141Y0118919D01*
X0164209Y0118972D01*
X0164279Y0119023D01*
X0164352Y0119070D01*
X0164426Y0119114D01*
X0164502Y0119154D01*
X0164581Y0119191D01*
X0164660Y0119224D01*
X0164742Y0119253D01*
X0164824Y0119279D01*
X0164908Y0119300D01*
X0164992Y0119318D01*
X0165078Y0119332D01*
X0165163Y0119342D01*
X0165250Y0119348D01*
X0165336Y0119350D01*
X0165422Y0119348D01*
X0165509Y0119342D01*
X0165594Y0119332D01*
X0165680Y0119318D01*
X0165764Y0119300D01*
X0165848Y0119279D01*
X0165930Y0119253D01*
X0166012Y0119224D01*
X0166091Y0119191D01*
X0166170Y0119154D01*
X0166246Y0119114D01*
X0166320Y0119070D01*
X0166393Y0119023D01*
X0166463Y0118972D01*
X0166531Y0118919D01*
X0166596Y0118862D01*
X0166658Y0118802D01*
X0166718Y0118740D01*
X0166775Y0118675D01*
X0166828Y0118607D01*
X0166879Y0118537D01*
X0166926Y0118464D01*
X0166970Y0118390D01*
X0167010Y0118314D01*
X0167047Y0118235D01*
X0167080Y0118156D01*
X0167109Y0118074D01*
X0167135Y0117992D01*
X0167156Y0117908D01*
X0167174Y0117824D01*
X0167188Y0117738D01*
X0167198Y0117653D01*
X0167204Y0117566D01*
X0167206Y0117480D01*
X0167204Y0117394D01*
X0167198Y0117307D01*
X0167188Y0117222D01*
X0167174Y0117136D01*
X0167156Y0117052D01*
X0167135Y0116968D01*
X0167109Y0116886D01*
X0167080Y0116804D01*
X0167047Y0116725D01*
X0167010Y0116646D01*
X0166970Y0116570D01*
X0166926Y0116496D01*
X0166879Y0116423D01*
X0166828Y0116353D01*
X0166775Y0116285D01*
X0166718Y0116220D01*
X0166658Y0116158D01*
X0166596Y0116098D01*
X0166531Y0116041D01*
X0166463Y0115988D01*
X0166393Y0115937D01*
X0166320Y0115890D01*
X0166246Y0115846D01*
X0166170Y0115806D01*
X0166091Y0115769D01*
X0166012Y0115736D01*
X0165930Y0115707D01*
X0165848Y0115681D01*
X0165764Y0115660D01*
X0165680Y0115642D01*
X0165594Y0115628D01*
X0165509Y0115618D01*
X0165422Y0115612D01*
X0165336Y0115610D01*
X0165250Y0115612D01*
X0165163Y0115618D01*
X0165078Y0115628D01*
X0164992Y0115642D01*
X0164908Y0115660D01*
X0164824Y0115681D01*
X0164742Y0115707D01*
X0164660Y0115736D01*
X0164581Y0115769D01*
X0164502Y0115806D01*
X0164426Y0115846D01*
X0164352Y0115890D01*
X0164279Y0115937D01*
X0164209Y0115988D01*
X0164141Y0116041D01*
X0164076Y0116098D01*
X0164014Y0116158D01*
X0163954Y0116220D01*
X0163897Y0116285D01*
X0163844Y0116353D01*
X0163793Y0116423D01*
X0163746Y0116496D01*
X0163702Y0116570D01*
X0163662Y0116646D01*
X0163625Y0116725D01*
X0163592Y0116804D01*
X0163563Y0116886D01*
X0163537Y0116968D01*
X0163516Y0117052D01*
X0163498Y0117136D01*
X0163484Y0117222D01*
X0163474Y0117307D01*
X0163468Y0117394D01*
X0163466Y0117480D01*
D33*
X0103574Y0146342D03*
X0103574Y0153137D03*
X0093574Y0153137D03*
X0083574Y0153137D03*
X0073574Y0153137D03*
X0073574Y0146342D03*
X0063574Y0146342D03*
X0063574Y0153137D03*
X0053574Y0153137D03*
D34*
X0102323Y0100819D02*
X0108225Y0094916D01*
X0109724Y0094916D01*
X0112276Y0092365D01*
X0112276Y0090470D01*
X0112247Y0090470D01*
X0077082Y0079856D02*
X0028984Y0079856D01*
X0027115Y0077988D01*
X0027115Y0043342D01*
X0029169Y0043131D02*
X0029169Y0075838D01*
X0031285Y0077953D01*
X0076921Y0077953D01*
X0076864Y0075949D02*
X0032973Y0075949D01*
X0031097Y0074073D01*
X0031097Y0043468D01*
X0033024Y0043449D02*
X0033024Y0071775D01*
X0035236Y0073987D01*
X0076746Y0073987D01*
X0076771Y0066106D02*
X0037036Y0066106D01*
X0034994Y0064064D01*
X0034994Y0043380D01*
X0036964Y0043472D02*
X0036964Y0061934D01*
X0039117Y0064087D01*
X0076554Y0064087D01*
X0076488Y0062141D02*
X0041093Y0062141D01*
X0038957Y0060004D01*
X0038957Y0043216D01*
X0040931Y0043330D02*
X0040931Y0057915D01*
X0043211Y0060195D01*
X0076369Y0060195D01*
X0076092Y0058215D02*
X0065107Y0058215D01*
X0056629Y0049737D01*
X0056629Y0043336D01*
X0058642Y0043336D02*
X0058642Y0049374D01*
X0065503Y0056235D01*
X0076026Y0056235D01*
X0076323Y0054289D02*
X0065866Y0054289D01*
X0060621Y0049044D01*
X0060621Y0043336D01*
X0062600Y0043798D02*
X0062600Y0048648D01*
X0066295Y0052343D01*
X0076290Y0052343D01*
X0076306Y0050290D02*
X0066740Y0050290D01*
X0064568Y0048118D01*
X0064568Y0043362D01*
X0072391Y0040980D02*
X0074884Y0043473D01*
X0085209Y0043473D01*
X0086235Y0042447D01*
X0085861Y0048034D02*
X0087774Y0048034D01*
D35*
X0088629Y0047179D01*
X0088629Y0045354D01*
X0085861Y0048034D02*
X0084983Y0047155D01*
X0084983Y0046356D01*
X0084186Y0045582D01*
X0071470Y0045582D01*
X0070444Y0044556D01*
X0070444Y0043530D01*
X0068507Y0043695D02*
X0068507Y0044684D01*
X0070922Y0047099D01*
X0083154Y0047099D01*
X0085411Y0049356D01*
X0091230Y0049356D01*
X0092576Y0048010D01*
X0092576Y0045318D01*
X0094515Y0045437D02*
X0094515Y0048960D01*
X0092892Y0050583D01*
X0084896Y0050583D01*
X0082837Y0048525D01*
X0069893Y0048525D01*
X0066528Y0045160D01*
X0066528Y0043536D01*
X0052275Y0035650D02*
X0094586Y0035650D01*
X0096574Y0037637D01*
X0096574Y0039617D01*
X0098588Y0039760D02*
X0098588Y0036954D01*
X0095646Y0034012D01*
X0049261Y0034012D01*
X0046866Y0036407D01*
X0046866Y0038596D01*
X0044754Y0038520D02*
X0044754Y0035814D01*
X0048086Y0032482D01*
X0096542Y0032482D01*
X0100453Y0036394D01*
X0100453Y0039814D01*
X0102425Y0040109D02*
X0102425Y0035548D01*
X0097902Y0031026D01*
X0047051Y0031026D01*
X0042855Y0035222D01*
X0042855Y0038587D01*
X0048793Y0042863D02*
X0048793Y0047575D01*
X0046259Y0050108D01*
X0050758Y0038652D02*
X0050758Y0037167D01*
X0052275Y0035650D01*
X0046061Y0029552D02*
X0099075Y0029552D01*
X0104444Y0034921D01*
X0104444Y0039767D01*
X0106455Y0040033D02*
X0106455Y0034286D01*
X0100298Y0028128D01*
X0068485Y0028128D01*
X0066980Y0026623D01*
X0071470Y0022721D02*
X0067764Y0019015D01*
X0061871Y0018958D01*
X0052714Y0019015D01*
X0048723Y0017134D02*
X0048723Y0015652D01*
X0049692Y0014683D01*
X0061436Y0014683D01*
X0064173Y0017419D01*
X0072325Y0017419D01*
X0069170Y0010886D02*
X0113320Y0010831D01*
X0118555Y0016089D01*
X0118584Y0018357D02*
X0124166Y0018357D01*
X0125274Y0019465D01*
X0136794Y0019465D01*
X0136834Y0019426D01*
X0127847Y0024176D02*
X0126660Y0025364D01*
X0118267Y0025364D01*
X0113706Y0030526D02*
X0135543Y0030503D01*
X0139644Y0035016D02*
X0141877Y0032783D01*
X0139644Y0035016D02*
X0125916Y0035016D01*
X0125726Y0034826D01*
X0125821Y0035253D02*
X0125488Y0035586D01*
X0128729Y0042905D02*
X0128729Y0051801D01*
X0128194Y0052335D01*
X0126629Y0052335D01*
X0126834Y0054194D02*
X0129651Y0054194D01*
X0131703Y0056246D01*
X0133055Y0056246D01*
X0132871Y0056245D02*
X0144513Y0056245D01*
X0150353Y0062051D01*
X0150349Y0101754D01*
X0154272Y0105696D01*
X0154272Y0107931D01*
X0151330Y0104757D02*
X0151330Y0117917D01*
X0150855Y0118392D01*
X0144131Y0120113D02*
X0144131Y0115269D01*
X0143228Y0114366D01*
X0143228Y0097452D01*
X0147415Y0093265D01*
X0147415Y0063686D01*
X0143910Y0060181D01*
X0126972Y0060181D01*
X0126340Y0062037D02*
X0143152Y0062037D01*
X0145842Y0064727D01*
X0145842Y0092166D01*
X0141507Y0096501D01*
X0141507Y0105470D01*
X0141211Y0105765D01*
X0141211Y0116509D01*
X0131753Y0125967D01*
X0130177Y0125967D01*
X0127319Y0128825D01*
X0122112Y0125698D02*
X0100930Y0125698D01*
X0099157Y0127473D01*
X0101602Y0120278D02*
X0085510Y0120278D01*
X0084607Y0121755D02*
X0084607Y0124219D01*
X0081405Y0127421D01*
X0043474Y0127421D01*
X0040518Y0130376D01*
X0038844Y0135231D02*
X0036479Y0137596D01*
X0036479Y0142129D01*
X0032962Y0116521D02*
X0032962Y0093689D01*
X0034637Y0092014D01*
X0087678Y0091991D01*
X0088715Y0090929D01*
X0088731Y0089662D01*
X0090652Y0089502D02*
X0090652Y0091019D01*
X0088257Y0093413D01*
X0036125Y0093413D01*
X0034962Y0094576D01*
X0034962Y0115639D01*
X0038849Y0116082D02*
X0038849Y0095729D01*
X0039761Y0094817D01*
X0089074Y0094817D01*
X0092551Y0091339D01*
X0092551Y0089743D01*
X0094490Y0089686D02*
X0094490Y0091852D01*
X0090100Y0096242D01*
X0044094Y0096242D01*
X0042840Y0097496D01*
X0042840Y0115511D01*
X0046831Y0115511D02*
X0046831Y0099066D01*
X0048256Y0097640D01*
X0090784Y0097640D01*
X0096485Y0091939D01*
X0096485Y0089629D01*
X0098423Y0089401D02*
X0098423Y0092031D01*
X0091411Y0099043D01*
X0054071Y0099043D01*
X0052645Y0100469D01*
X0052645Y0115683D01*
X0048723Y0115819D02*
X0048723Y0111373D01*
X0049977Y0110118D01*
X0056609Y0115683D02*
X0056609Y0101644D01*
X0057806Y0100446D01*
X0092095Y0100446D01*
X0099592Y0092990D01*
X0099604Y0092940D02*
X0100744Y0092940D01*
X0102387Y0091296D01*
X0102387Y0090766D01*
X0104416Y0090620D02*
X0104416Y0091972D01*
X0101844Y0094544D01*
X0100054Y0094544D01*
X0099776Y0094823D01*
X0099763Y0094784D02*
X0092701Y0101867D01*
X0061995Y0101867D01*
X0060627Y0103235D01*
X0060627Y0115740D01*
X0064583Y0115587D02*
X0064583Y0103960D01*
X0065256Y0103287D01*
X0093259Y0103287D01*
X0100121Y0096464D01*
X0100147Y0096400D02*
X0102320Y0096400D01*
X0106244Y0092476D01*
X0106263Y0090600D01*
X0107465Y0093448D02*
X0103117Y0097796D01*
X0100731Y0097815D01*
X0093842Y0104704D01*
X0067676Y0104704D01*
X0066528Y0105852D01*
X0066528Y0115749D01*
X0072496Y0116047D02*
X0072496Y0111031D01*
X0072382Y0110916D01*
X0080526Y0113381D02*
X0080526Y0114749D01*
X0082989Y0117212D01*
X0098656Y0117212D01*
X0102077Y0113791D01*
X0102077Y0104759D01*
X0107755Y0099081D01*
X0107465Y0093448D02*
X0108853Y0093448D01*
X0110354Y0091946D01*
X0110345Y0090551D01*
X0108371Y0085027D02*
X0108371Y0081860D01*
X0108094Y0081583D01*
X0115827Y0080604D02*
X0118669Y0077753D01*
X0118669Y0076791D01*
X0119576Y0075884D01*
X0121141Y0075884D01*
X0121389Y0073932D02*
X0118255Y0073932D01*
X0116385Y0075801D01*
X0118557Y0071980D02*
X0121334Y0071980D01*
X0118557Y0071980D02*
X0117623Y0071045D01*
X0120524Y0077861D02*
X0119099Y0079286D01*
X0119099Y0082167D01*
X0120215Y0083284D01*
X0120215Y0089032D01*
X0121688Y0090505D01*
X0123635Y0090505D01*
X0125013Y0091883D01*
X0125013Y0096824D01*
X0122733Y0099104D01*
X0116082Y0099104D01*
X0127509Y0102397D02*
X0129871Y0100035D01*
X0129871Y0093342D01*
X0130913Y0092300D01*
X0130913Y0083823D01*
X0132719Y0082016D01*
X0136035Y0082016D01*
X0138369Y0079682D01*
X0138369Y0068715D01*
X0135723Y0066069D01*
X0126447Y0066069D01*
X0126531Y0063981D02*
X0142242Y0063981D01*
X0143650Y0065389D01*
X0143650Y0090980D01*
X0137467Y0097163D01*
X0137467Y0107046D01*
X0137369Y0110693D02*
X0136580Y0111481D01*
X0136580Y0116689D01*
X0130296Y0122974D01*
X0127319Y0115423D02*
X0127319Y0112171D01*
X0127319Y0115423D02*
X0120421Y0122321D01*
X0089584Y0122321D01*
X0087614Y0124292D01*
X0087614Y0137793D01*
X0084165Y0141242D01*
X0075101Y0141242D01*
X0098474Y0136099D02*
X0098593Y0136218D01*
X0101522Y0136218D01*
X0108688Y0133723D02*
X0110984Y0133723D01*
X0111023Y0133763D01*
X0118624Y0134634D02*
X0120730Y0136920D01*
X0121324Y0136920D01*
X0122112Y0125698D02*
X0133376Y0114491D01*
X0133376Y0099341D01*
X0136167Y0096549D01*
X0136167Y0095318D01*
X0140437Y0091048D01*
X0140437Y0066909D01*
X0148828Y0062856D02*
X0144157Y0058185D01*
X0132871Y0058185D01*
X0132960Y0058187D02*
X0131353Y0058187D01*
X0129412Y0056246D01*
X0126962Y0056246D01*
X0122506Y0050197D02*
X0122506Y0046570D01*
X0122033Y0046098D01*
X0121209Y0046098D01*
X0110239Y0039957D02*
X0110239Y0033970D01*
X0113706Y0030526D01*
X0110186Y0026413D02*
X0108292Y0028307D01*
X0108292Y0039767D01*
X0107002Y0022654D02*
X0102624Y0022654D01*
X0107002Y0022654D02*
X0109466Y0020191D01*
X0085460Y0022222D02*
X0081502Y0022222D01*
X0081898Y0017142D02*
X0085526Y0017142D01*
X0069170Y0010886D02*
X0065270Y0014786D01*
X0058016Y0024659D02*
X0048438Y0024659D01*
X0046329Y0022550D01*
X0045303Y0022550D01*
X0047013Y0018844D02*
X0048723Y0017134D01*
X0047013Y0018844D02*
X0037607Y0018844D01*
X0029625Y0022607D02*
X0029625Y0030190D01*
X0037416Y0031215D02*
X0044399Y0031215D01*
X0046061Y0029552D01*
X0069303Y0071351D02*
X0069930Y0071978D01*
X0076600Y0071978D01*
X0086478Y0087723D02*
X0033526Y0087723D01*
X0027163Y0094086D01*
X0027163Y0116323D01*
X0088303Y0112565D02*
X0089092Y0111777D01*
X0101602Y0120278D02*
X0107103Y0114777D01*
X0107103Y0111328D01*
X0127509Y0106334D02*
X0127509Y0102397D01*
X0139834Y0115635D02*
X0140631Y0116432D01*
X0141181Y0116432D01*
X0143326Y0127151D02*
X0143959Y0127151D01*
X0145464Y0128656D01*
X0151330Y0104757D02*
X0148828Y0102255D01*
X0148828Y0062856D01*
X0158245Y0064870D02*
X0160298Y0062818D01*
X0166181Y0062818D01*
X0169944Y0066581D01*
X0169944Y0093812D01*
X0163257Y0094681D02*
X0161052Y0092476D01*
X0157902Y0092476D01*
X0157272Y0096256D02*
X0160737Y0096256D01*
X0163572Y0099090D01*
X0157154Y0100370D02*
X0156983Y0100541D01*
X0163257Y0090271D02*
X0161367Y0088382D01*
X0158217Y0088382D01*
X0158217Y0084602D02*
X0160107Y0084602D01*
X0161502Y0083207D01*
X0163240Y0083207D01*
X0160776Y0076570D02*
X0158245Y0076570D01*
X0160776Y0076570D02*
X0163513Y0073833D01*
X0160982Y0072602D02*
X0163513Y0070070D01*
X0161187Y0068633D02*
X0163582Y0066239D01*
X0163513Y0066239D01*
X0161187Y0068633D02*
X0158108Y0068633D01*
X0158245Y0072602D02*
X0160982Y0072602D01*
X0133069Y0078212D02*
X0131427Y0079854D01*
X0126227Y0079854D01*
X0121078Y0077861D02*
X0120524Y0077861D01*
X0125748Y0070002D02*
X0128485Y0070002D01*
X0131358Y0072875D01*
D36*
X0133786Y0068489D02*
X0133346Y0068049D01*
X0125759Y0068049D01*
X0121703Y0058232D02*
X0115765Y0058232D01*
X0112330Y0049428D02*
X0112330Y0044915D01*
X0112329Y0039767D02*
X0112329Y0035918D01*
X0114230Y0034018D01*
X0118172Y0034018D01*
X0090668Y0038151D02*
X0090668Y0039339D01*
X0090668Y0038151D02*
X0089765Y0037249D01*
X0081642Y0037249D01*
X0078887Y0040004D01*
X0076429Y0068102D02*
X0047989Y0068102D01*
X0046449Y0069641D01*
X0024563Y0083891D02*
X0082578Y0083891D01*
X0086341Y0080128D01*
X0086638Y0070022D02*
X0081135Y0070022D01*
X0100544Y0079732D02*
X0100544Y0085205D01*
X0122984Y0086943D02*
X0123181Y0087140D01*
X0126827Y0087140D01*
X0127319Y0087337D02*
X0127319Y0097685D01*
X0122196Y0102808D01*
X0122151Y0115849D01*
X0118406Y0119504D01*
X0114235Y0119504D01*
X0121339Y0123947D02*
X0093514Y0124029D01*
X0090888Y0126655D01*
X0090888Y0137901D01*
X0092900Y0139913D01*
X0075692Y0123011D02*
X0075692Y0111776D01*
X0078120Y0109348D01*
X0078352Y0109313D01*
X0086727Y0109313D01*
X0088303Y0110890D01*
X0088303Y0112565D01*
X0075692Y0123011D02*
X0074214Y0124489D01*
X0026134Y0124489D01*
X0024558Y0122913D01*
X0024558Y0016292D01*
X0025720Y0015130D01*
X0029547Y0015130D01*
X0029682Y0015139D02*
X0044733Y0015139D01*
X0131512Y0098722D02*
X0131529Y0113707D01*
X0121339Y0123947D01*
X0134772Y0136781D02*
X0134772Y0141379D01*
X0132555Y0143595D01*
X0128450Y0143595D01*
X0128368Y0143513D01*
X0124180Y0143678D02*
X0121799Y0141296D01*
X0113179Y0141296D01*
X0134772Y0136781D02*
X0137399Y0134153D01*
X0160784Y0125803D02*
X0162446Y0125803D01*
X0164821Y0123428D01*
X0134249Y0095985D02*
X0131512Y0098722D01*
X0134249Y0095985D02*
X0134249Y0088938D01*
X0158314Y0080470D02*
X0160639Y0080470D01*
X0163513Y0077596D01*
X0070457Y0121094D02*
X0070457Y0124261D01*
X0068488Y0124261D02*
X0068488Y0121094D01*
X0032704Y0141707D02*
X0028257Y0137260D01*
X0028257Y0124807D01*
X0029118Y0124261D02*
X0029118Y0121094D01*
X0031087Y0121094D02*
X0031087Y0124261D01*
D37*
X0028189Y0134660D03*
X0049977Y0110061D03*
X0072391Y0111059D03*
X0092146Y0112762D03*
X0101842Y0119647D03*
X0114136Y0119504D03*
X0110952Y0134111D03*
X0101506Y0136216D03*
X0121241Y0136920D03*
X0130276Y0123010D03*
X0139832Y0115620D03*
X0144044Y0120114D03*
X0150737Y0118539D03*
X0143280Y0127150D03*
X0154280Y0107909D03*
X0156996Y0104833D03*
X0164328Y0098684D03*
X0163343Y0094661D03*
X0163343Y0090309D03*
X0163335Y0083263D03*
X0163572Y0077673D03*
X0163572Y0073893D03*
X0163572Y0070114D03*
X0163572Y0066334D03*
X0140423Y0066938D03*
X0133808Y0068539D03*
X0131446Y0072870D03*
X0133021Y0078382D03*
X0122949Y0087025D03*
X0115968Y0080731D03*
X0116306Y0075886D03*
X0117529Y0071014D03*
X0108054Y0081526D03*
X0098550Y0077877D03*
X0087891Y0078814D03*
X0069241Y0071295D03*
X0052312Y0083893D03*
X0046274Y0069896D03*
X0031446Y0083893D03*
X0046266Y0050160D03*
X0078844Y0040034D03*
X0087022Y0055408D03*
X0099634Y0050480D03*
X0110857Y0033496D03*
X0122163Y0040859D03*
X0121209Y0046098D03*
X0125202Y0046262D03*
X0128690Y0042948D03*
X0106934Y0013418D03*
X0119092Y0012605D03*
X0065256Y0014854D03*
X0061871Y0018958D03*
X0058757Y0014740D03*
X0037785Y0014313D03*
X0113657Y0094594D03*
X0121008Y0093729D03*
X0134132Y0093019D03*
X0102312Y0100822D03*
X0164759Y0123504D03*
X0168995Y0112861D03*
X0169871Y0093736D03*
D38*
X0167155Y0100830D02*
X0167155Y0078713D01*
X0165854Y0077412D01*
X0163726Y0077412D01*
X0167155Y0100830D02*
X0166327Y0101658D01*
X0161952Y0101658D01*
X0161006Y0102604D01*
X0161006Y0109464D01*
X0162307Y0110765D01*
X0166918Y0110765D01*
X0169046Y0112894D01*
X0169144Y0112976D02*
X0169144Y0131172D01*
X0167248Y0133141D01*
X0160265Y0133141D01*
X0151310Y0123775D02*
X0140906Y0123775D01*
X0137122Y0127559D01*
X0151310Y0123775D02*
X0153277Y0121808D01*
X0153277Y0111430D01*
X0153847Y0110859D01*
X0155443Y0110859D01*
X0156983Y0109320D01*
X0156983Y0100541D01*
X0098254Y0111777D02*
X0089092Y0111777D01*
X0122115Y0040859D02*
X0124110Y0040859D01*
X0125488Y0039482D01*
X0125488Y0035586D01*
X0128599Y0029006D02*
X0131767Y0025839D01*
X0140634Y0025839D01*
X0143088Y0028294D01*
X0128599Y0029006D02*
X0115338Y0029006D01*
X0114230Y0027898D01*
X0114230Y0014754D01*
X0112686Y0013210D01*
X0107302Y0013210D01*
X0104214Y0016298D01*
X0119171Y0012468D02*
X0124759Y0012537D01*
X0128006Y0015783D01*
D39*
X0117403Y0090158D02*
X0116431Y0090158D01*
X0117403Y0090158D02*
X0121016Y0093771D01*
X0114277Y0093910D02*
X0114277Y0090470D01*
X0114277Y0093910D02*
X0113687Y0094500D01*
M02*
