G75*
%MOIN*%
%OFA0B0*%
%FSLAX25Y25*%
%IPPOS*%
%LPD*%
%AMOC8*
5,1,8,0,0,1.08239X$1,22.5*
%
%ADD10C,0.00394*%
%ADD11R,0.03937X0.03937*%
%ADD12R,0.06298X0.06298*%
%ADD13R,0.05906X0.05906*%
%ADD14C,0.00000*%
%ADD15C,0.07913*%
%ADD16C,0.02978*%
%ADD17C,0.00787*%
%ADD18C,0.02400*%
%ADD19C,0.02000*%
%ADD20C,0.02756*%
%ADD21C,0.01000*%
%ADD22C,0.01200*%
%ADD23C,0.00800*%
D10*
X0022784Y0008696D02*
X0160949Y0008696D01*
X0160949Y0038821D01*
X0136952Y0038821D01*
X0136810Y0038823D01*
X0136668Y0038829D01*
X0136526Y0038839D01*
X0136385Y0038852D01*
X0136244Y0038870D01*
X0136103Y0038891D01*
X0135963Y0038917D01*
X0135824Y0038946D01*
X0135686Y0038979D01*
X0135549Y0039016D01*
X0135413Y0039056D01*
X0135278Y0039100D01*
X0135144Y0039148D01*
X0135011Y0039200D01*
X0134880Y0039255D01*
X0134751Y0039314D01*
X0134623Y0039377D01*
X0134498Y0039443D01*
X0134373Y0039512D01*
X0134251Y0039585D01*
X0134131Y0039661D01*
X0134013Y0039740D01*
X0133898Y0039823D01*
X0133785Y0039908D01*
X0133674Y0039997D01*
X0133565Y0040089D01*
X0133459Y0040184D01*
X0133356Y0040282D01*
X0133256Y0040382D01*
X0133158Y0040485D01*
X0133063Y0040591D01*
X0132971Y0040700D01*
X0132882Y0040811D01*
X0132797Y0040924D01*
X0132714Y0041039D01*
X0132635Y0041157D01*
X0132559Y0041277D01*
X0132486Y0041400D01*
X0132417Y0041524D01*
X0132351Y0041649D01*
X0132288Y0041777D01*
X0132229Y0041906D01*
X0132174Y0042037D01*
X0132122Y0042170D01*
X0132074Y0042304D01*
X0132030Y0042439D01*
X0131990Y0042575D01*
X0131953Y0042712D01*
X0131920Y0042850D01*
X0131891Y0042989D01*
X0131865Y0043129D01*
X0131844Y0043270D01*
X0131826Y0043411D01*
X0131813Y0043552D01*
X0131803Y0043694D01*
X0131797Y0043836D01*
X0131795Y0043978D01*
X0131795Y0048540D01*
X0131797Y0048694D01*
X0131803Y0048848D01*
X0131813Y0049001D01*
X0131827Y0049154D01*
X0131844Y0049307D01*
X0131866Y0049459D01*
X0131892Y0049611D01*
X0131921Y0049762D01*
X0131955Y0049912D01*
X0131992Y0050062D01*
X0132033Y0050210D01*
X0132078Y0050357D01*
X0132127Y0050503D01*
X0132179Y0050648D01*
X0132235Y0050791D01*
X0132295Y0050933D01*
X0132358Y0051073D01*
X0132425Y0051211D01*
X0132496Y0051348D01*
X0132570Y0051483D01*
X0132648Y0051616D01*
X0132728Y0051747D01*
X0132813Y0051876D01*
X0132900Y0052002D01*
X0132991Y0052126D01*
X0133085Y0052248D01*
X0133182Y0052368D01*
X0133282Y0052484D01*
X0133385Y0052599D01*
X0133491Y0052710D01*
X0133600Y0052819D01*
X0133711Y0052925D01*
X0133826Y0053028D01*
X0133942Y0053128D01*
X0134062Y0053225D01*
X0134184Y0053319D01*
X0134308Y0053410D01*
X0134434Y0053497D01*
X0134563Y0053582D01*
X0134694Y0053662D01*
X0134827Y0053740D01*
X0134962Y0053814D01*
X0135099Y0053885D01*
X0135237Y0053952D01*
X0135377Y0054015D01*
X0135519Y0054075D01*
X0135662Y0054131D01*
X0135807Y0054183D01*
X0135953Y0054232D01*
X0136100Y0054277D01*
X0136248Y0054318D01*
X0136398Y0054355D01*
X0136548Y0054389D01*
X0136699Y0054418D01*
X0136851Y0054444D01*
X0137003Y0054466D01*
X0137156Y0054483D01*
X0137309Y0054497D01*
X0137462Y0054507D01*
X0137616Y0054513D01*
X0137770Y0054515D01*
X0137770Y0054516D02*
X0175455Y0054516D01*
X0175455Y0138091D01*
X0143886Y0138091D01*
X0143738Y0138093D01*
X0143590Y0138099D01*
X0143443Y0138108D01*
X0143296Y0138122D01*
X0143149Y0138139D01*
X0143002Y0138161D01*
X0142857Y0138186D01*
X0142712Y0138214D01*
X0142568Y0138247D01*
X0142424Y0138283D01*
X0142282Y0138324D01*
X0142141Y0138367D01*
X0142001Y0138415D01*
X0141862Y0138466D01*
X0141725Y0138521D01*
X0141589Y0138579D01*
X0141454Y0138641D01*
X0141322Y0138707D01*
X0141191Y0138775D01*
X0141062Y0138848D01*
X0140935Y0138923D01*
X0140810Y0139002D01*
X0140687Y0139084D01*
X0140566Y0139170D01*
X0140448Y0139258D01*
X0140332Y0139350D01*
X0140218Y0139444D01*
X0140107Y0139542D01*
X0139998Y0139642D01*
X0139892Y0139745D01*
X0139789Y0139851D01*
X0139689Y0139960D01*
X0139591Y0140071D01*
X0139497Y0140185D01*
X0139405Y0140301D01*
X0139317Y0140419D01*
X0139231Y0140540D01*
X0139149Y0140663D01*
X0139070Y0140788D01*
X0138995Y0140915D01*
X0138922Y0141044D01*
X0138854Y0141175D01*
X0138788Y0141307D01*
X0138726Y0141442D01*
X0138668Y0141578D01*
X0138613Y0141715D01*
X0138562Y0141854D01*
X0138514Y0141994D01*
X0138471Y0142135D01*
X0138430Y0142277D01*
X0138394Y0142421D01*
X0138361Y0142565D01*
X0138333Y0142710D01*
X0138308Y0142855D01*
X0138286Y0143002D01*
X0138269Y0143149D01*
X0138255Y0143296D01*
X0138246Y0143443D01*
X0138240Y0143591D01*
X0138238Y0143739D01*
X0138239Y0143739D02*
X0138239Y0165285D01*
X0022784Y0165285D01*
X0022784Y0008696D01*
X0045436Y0131992D02*
X0082738Y0131992D01*
X0082818Y0131994D01*
X0082897Y0132000D01*
X0082977Y0132009D01*
X0083055Y0132022D01*
X0083133Y0132039D01*
X0083210Y0132060D01*
X0083286Y0132084D01*
X0083361Y0132112D01*
X0083435Y0132144D01*
X0083506Y0132178D01*
X0083577Y0132217D01*
X0083645Y0132258D01*
X0083711Y0132303D01*
X0083775Y0132351D01*
X0083836Y0132402D01*
X0083895Y0132455D01*
X0083952Y0132512D01*
X0084005Y0132571D01*
X0084056Y0132632D01*
X0084104Y0132696D01*
X0084149Y0132762D01*
X0084190Y0132831D01*
X0084229Y0132901D01*
X0084263Y0132972D01*
X0084295Y0133046D01*
X0084323Y0133121D01*
X0084347Y0133197D01*
X0084368Y0133274D01*
X0084385Y0133352D01*
X0084398Y0133430D01*
X0084407Y0133510D01*
X0084413Y0133589D01*
X0084415Y0133669D01*
X0084413Y0133755D01*
X0084407Y0133841D01*
X0084398Y0133927D01*
X0084385Y0134013D01*
X0084368Y0134097D01*
X0084348Y0134181D01*
X0084323Y0134264D01*
X0084296Y0134346D01*
X0084264Y0134426D01*
X0084230Y0134505D01*
X0084191Y0134583D01*
X0084150Y0134659D01*
X0084105Y0134732D01*
X0084057Y0134804D01*
X0084006Y0134874D01*
X0083952Y0134941D01*
X0083895Y0135006D01*
X0083835Y0135068D01*
X0083773Y0135128D01*
X0083708Y0135185D01*
X0083641Y0135239D01*
X0083571Y0135290D01*
X0083499Y0135338D01*
X0083426Y0135383D01*
X0083350Y0135424D01*
X0083272Y0135463D01*
X0083193Y0135497D01*
X0083113Y0135529D01*
X0083031Y0135556D01*
X0082948Y0135581D01*
X0082864Y0135601D01*
X0082780Y0135618D01*
X0082694Y0135631D01*
X0082608Y0135640D01*
X0082522Y0135646D01*
X0082436Y0135648D01*
X0081529Y0135648D01*
X0081529Y0135647D01*
X0081528Y0135646D01*
X0081527Y0135646D01*
X0045655Y0135646D01*
X0045656Y0135646D02*
X0045573Y0135644D01*
X0045491Y0135638D01*
X0045409Y0135629D01*
X0045328Y0135616D01*
X0045247Y0135599D01*
X0045167Y0135578D01*
X0045088Y0135554D01*
X0045011Y0135526D01*
X0044934Y0135494D01*
X0044860Y0135459D01*
X0044787Y0135421D01*
X0044715Y0135379D01*
X0044646Y0135334D01*
X0044579Y0135286D01*
X0044515Y0135235D01*
X0044452Y0135180D01*
X0044393Y0135123D01*
X0044336Y0135064D01*
X0044281Y0135002D01*
X0044230Y0134937D01*
X0044182Y0134870D01*
X0044137Y0134801D01*
X0044095Y0134730D01*
X0044057Y0134657D01*
X0044022Y0134582D01*
X0043990Y0134506D01*
X0043962Y0134428D01*
X0043937Y0134350D01*
X0043917Y0134270D01*
X0043900Y0134189D01*
X0043886Y0134108D01*
X0043877Y0134026D01*
X0043871Y0133943D01*
X0043869Y0133861D01*
X0043869Y0133559D01*
X0043871Y0133482D01*
X0043877Y0133405D01*
X0043886Y0133329D01*
X0043899Y0133253D01*
X0043916Y0133178D01*
X0043936Y0133104D01*
X0043961Y0133031D01*
X0043988Y0132959D01*
X0044019Y0132889D01*
X0044054Y0132820D01*
X0044092Y0132753D01*
X0044133Y0132688D01*
X0044177Y0132626D01*
X0044225Y0132565D01*
X0044275Y0132507D01*
X0044328Y0132451D01*
X0044384Y0132398D01*
X0044442Y0132348D01*
X0044503Y0132300D01*
X0044565Y0132256D01*
X0044630Y0132215D01*
X0044697Y0132177D01*
X0044766Y0132142D01*
X0044836Y0132111D01*
X0044908Y0132084D01*
X0044981Y0132059D01*
X0045055Y0132039D01*
X0045130Y0132022D01*
X0045206Y0132009D01*
X0045282Y0132000D01*
X0045359Y0131994D01*
X0045436Y0131992D01*
X0048098Y0145156D02*
X0109088Y0145156D01*
X0109089Y0145156D02*
X0109224Y0145159D01*
X0109360Y0145165D01*
X0109495Y0145176D01*
X0109630Y0145190D01*
X0109764Y0145208D01*
X0109898Y0145230D01*
X0110031Y0145257D01*
X0110163Y0145286D01*
X0110294Y0145320D01*
X0110425Y0145358D01*
X0110554Y0145399D01*
X0110682Y0145444D01*
X0110808Y0145493D01*
X0110933Y0145545D01*
X0111057Y0145602D01*
X0111179Y0145661D01*
X0111299Y0145724D01*
X0111417Y0145791D01*
X0111533Y0145861D01*
X0111647Y0145934D01*
X0111759Y0146011D01*
X0111868Y0146091D01*
X0111976Y0146174D01*
X0112080Y0146260D01*
X0112183Y0146349D01*
X0112282Y0146441D01*
X0112379Y0146536D01*
X0112473Y0146634D01*
X0112564Y0146734D01*
X0112652Y0146837D01*
X0112738Y0146943D01*
X0112820Y0147051D01*
X0112899Y0147161D01*
X0112974Y0147273D01*
X0113047Y0147388D01*
X0113116Y0147505D01*
X0113181Y0147623D01*
X0113243Y0147744D01*
X0113302Y0147866D01*
X0113357Y0147990D01*
X0113408Y0148116D01*
X0113456Y0148243D01*
X0113500Y0148371D01*
X0113540Y0148501D01*
X0113576Y0148631D01*
X0113609Y0148763D01*
X0113638Y0148895D01*
X0113663Y0149029D01*
X0113684Y0149163D01*
X0113701Y0149297D01*
X0113714Y0149432D01*
X0113723Y0149567D01*
X0113729Y0149703D01*
X0113730Y0149839D01*
X0113729Y0149838D02*
X0113729Y0150957D01*
X0113727Y0151069D01*
X0113721Y0151180D01*
X0113712Y0151292D01*
X0113699Y0151403D01*
X0113681Y0151513D01*
X0113661Y0151623D01*
X0113636Y0151732D01*
X0113608Y0151840D01*
X0113576Y0151947D01*
X0113540Y0152053D01*
X0113501Y0152158D01*
X0113458Y0152261D01*
X0113412Y0152363D01*
X0113362Y0152463D01*
X0113309Y0152562D01*
X0113252Y0152658D01*
X0113193Y0152753D01*
X0113130Y0152845D01*
X0113064Y0152935D01*
X0112995Y0153023D01*
X0112923Y0153109D01*
X0112848Y0153192D01*
X0112770Y0153272D01*
X0112690Y0153350D01*
X0112607Y0153425D01*
X0112521Y0153497D01*
X0112433Y0153566D01*
X0112343Y0153632D01*
X0112251Y0153695D01*
X0112156Y0153754D01*
X0112060Y0153811D01*
X0111961Y0153864D01*
X0111861Y0153914D01*
X0111759Y0153960D01*
X0111656Y0154003D01*
X0111551Y0154042D01*
X0111445Y0154078D01*
X0111338Y0154110D01*
X0111230Y0154138D01*
X0111121Y0154163D01*
X0111011Y0154183D01*
X0110901Y0154201D01*
X0110790Y0154214D01*
X0110678Y0154223D01*
X0110567Y0154229D01*
X0110455Y0154231D01*
X0110455Y0154230D02*
X0048720Y0154230D01*
X0048592Y0154228D01*
X0048464Y0154222D01*
X0048337Y0154212D01*
X0048210Y0154199D01*
X0048083Y0154181D01*
X0047957Y0154159D01*
X0047831Y0154134D01*
X0047707Y0154105D01*
X0047583Y0154071D01*
X0047461Y0154035D01*
X0047339Y0153994D01*
X0047219Y0153949D01*
X0047101Y0153901D01*
X0046984Y0153850D01*
X0046868Y0153795D01*
X0046755Y0153736D01*
X0046643Y0153673D01*
X0046533Y0153608D01*
X0046425Y0153539D01*
X0046320Y0153466D01*
X0046217Y0153391D01*
X0046116Y0153312D01*
X0046017Y0153231D01*
X0045921Y0153146D01*
X0045828Y0153058D01*
X0045738Y0152968D01*
X0045650Y0152875D01*
X0045565Y0152779D01*
X0045484Y0152680D01*
X0045405Y0152579D01*
X0045330Y0152476D01*
X0045257Y0152371D01*
X0045188Y0152263D01*
X0045123Y0152153D01*
X0045060Y0152041D01*
X0045001Y0151928D01*
X0044946Y0151812D01*
X0044895Y0151695D01*
X0044847Y0151577D01*
X0044802Y0151457D01*
X0044761Y0151335D01*
X0044725Y0151213D01*
X0044691Y0151089D01*
X0044662Y0150965D01*
X0044637Y0150839D01*
X0044615Y0150713D01*
X0044597Y0150586D01*
X0044584Y0150459D01*
X0044574Y0150332D01*
X0044568Y0150204D01*
X0044566Y0150076D01*
X0044566Y0148688D01*
X0044568Y0148570D01*
X0044574Y0148452D01*
X0044584Y0148334D01*
X0044598Y0148217D01*
X0044615Y0148101D01*
X0044637Y0147984D01*
X0044662Y0147869D01*
X0044691Y0147755D01*
X0044725Y0147642D01*
X0044761Y0147529D01*
X0044802Y0147419D01*
X0044846Y0147309D01*
X0044894Y0147201D01*
X0044946Y0147095D01*
X0045001Y0146991D01*
X0045059Y0146888D01*
X0045121Y0146787D01*
X0045186Y0146689D01*
X0045254Y0146593D01*
X0045326Y0146499D01*
X0045401Y0146408D01*
X0045478Y0146319D01*
X0045559Y0146233D01*
X0045643Y0146149D01*
X0045729Y0146068D01*
X0045818Y0145991D01*
X0045909Y0145916D01*
X0046003Y0145844D01*
X0046099Y0145776D01*
X0046197Y0145711D01*
X0046298Y0145649D01*
X0046401Y0145591D01*
X0046505Y0145536D01*
X0046611Y0145484D01*
X0046719Y0145436D01*
X0046829Y0145392D01*
X0046939Y0145351D01*
X0047052Y0145315D01*
X0047165Y0145281D01*
X0047279Y0145252D01*
X0047394Y0145227D01*
X0047511Y0145205D01*
X0047627Y0145188D01*
X0047744Y0145174D01*
X0047862Y0145164D01*
X0047980Y0145158D01*
X0048098Y0145156D01*
D11*
X0051800Y0155887D03*
X0055343Y0155887D03*
X0061800Y0155887D03*
X0065343Y0155887D03*
X0071800Y0155887D03*
X0075343Y0155887D03*
X0081800Y0155887D03*
X0085343Y0155887D03*
X0091800Y0155887D03*
X0095343Y0155887D03*
X0101800Y0155887D03*
X0105343Y0155887D03*
X0105343Y0143977D03*
X0101800Y0143977D03*
X0075348Y0143977D03*
X0071805Y0143977D03*
X0065348Y0143977D03*
X0061805Y0143977D03*
D12*
X0107127Y0022394D03*
X0107127Y0017729D03*
X0107127Y0013000D03*
X0117127Y0013000D03*
X0117127Y0017729D03*
X0117127Y0022394D03*
X0127127Y0022394D03*
X0127127Y0017729D03*
X0127127Y0013000D03*
X0137127Y0013000D03*
X0137127Y0017729D03*
X0137127Y0022394D03*
X0147127Y0022394D03*
X0147127Y0017729D03*
X0147127Y0013000D03*
X0157127Y0013000D03*
X0157127Y0017729D03*
X0157127Y0022394D03*
D13*
X0155848Y0129383D03*
X0155848Y0131306D03*
X0171535Y0131306D03*
X0171535Y0129383D03*
D14*
X0163466Y0129512D02*
X0163468Y0129598D01*
X0163474Y0129685D01*
X0163484Y0129770D01*
X0163498Y0129856D01*
X0163516Y0129940D01*
X0163537Y0130024D01*
X0163563Y0130106D01*
X0163592Y0130188D01*
X0163625Y0130267D01*
X0163662Y0130346D01*
X0163702Y0130422D01*
X0163746Y0130496D01*
X0163793Y0130569D01*
X0163844Y0130639D01*
X0163897Y0130707D01*
X0163954Y0130772D01*
X0164014Y0130834D01*
X0164076Y0130894D01*
X0164141Y0130951D01*
X0164209Y0131004D01*
X0164279Y0131055D01*
X0164352Y0131102D01*
X0164426Y0131146D01*
X0164502Y0131186D01*
X0164581Y0131223D01*
X0164660Y0131256D01*
X0164742Y0131285D01*
X0164824Y0131311D01*
X0164908Y0131332D01*
X0164992Y0131350D01*
X0165078Y0131364D01*
X0165163Y0131374D01*
X0165250Y0131380D01*
X0165336Y0131382D01*
X0165422Y0131380D01*
X0165509Y0131374D01*
X0165594Y0131364D01*
X0165680Y0131350D01*
X0165764Y0131332D01*
X0165848Y0131311D01*
X0165930Y0131285D01*
X0166012Y0131256D01*
X0166091Y0131223D01*
X0166170Y0131186D01*
X0166246Y0131146D01*
X0166320Y0131102D01*
X0166393Y0131055D01*
X0166463Y0131004D01*
X0166531Y0130951D01*
X0166596Y0130894D01*
X0166658Y0130834D01*
X0166718Y0130772D01*
X0166775Y0130707D01*
X0166828Y0130639D01*
X0166879Y0130569D01*
X0166926Y0130496D01*
X0166970Y0130422D01*
X0167010Y0130346D01*
X0167047Y0130267D01*
X0167080Y0130188D01*
X0167109Y0130106D01*
X0167135Y0130024D01*
X0167156Y0129940D01*
X0167174Y0129856D01*
X0167188Y0129770D01*
X0167198Y0129685D01*
X0167204Y0129598D01*
X0167206Y0129512D01*
X0167204Y0129426D01*
X0167198Y0129339D01*
X0167188Y0129254D01*
X0167174Y0129168D01*
X0167156Y0129084D01*
X0167135Y0129000D01*
X0167109Y0128918D01*
X0167080Y0128836D01*
X0167047Y0128757D01*
X0167010Y0128678D01*
X0166970Y0128602D01*
X0166926Y0128528D01*
X0166879Y0128455D01*
X0166828Y0128385D01*
X0166775Y0128317D01*
X0166718Y0128252D01*
X0166658Y0128190D01*
X0166596Y0128130D01*
X0166531Y0128073D01*
X0166463Y0128020D01*
X0166393Y0127969D01*
X0166320Y0127922D01*
X0166246Y0127878D01*
X0166170Y0127838D01*
X0166091Y0127801D01*
X0166012Y0127768D01*
X0165930Y0127739D01*
X0165848Y0127713D01*
X0165764Y0127692D01*
X0165680Y0127674D01*
X0165594Y0127660D01*
X0165509Y0127650D01*
X0165422Y0127644D01*
X0165336Y0127642D01*
X0165250Y0127644D01*
X0165163Y0127650D01*
X0165078Y0127660D01*
X0164992Y0127674D01*
X0164908Y0127692D01*
X0164824Y0127713D01*
X0164742Y0127739D01*
X0164660Y0127768D01*
X0164581Y0127801D01*
X0164502Y0127838D01*
X0164426Y0127878D01*
X0164352Y0127922D01*
X0164279Y0127969D01*
X0164209Y0128020D01*
X0164141Y0128073D01*
X0164076Y0128130D01*
X0164014Y0128190D01*
X0163954Y0128252D01*
X0163897Y0128317D01*
X0163844Y0128385D01*
X0163793Y0128455D01*
X0163746Y0128528D01*
X0163702Y0128602D01*
X0163662Y0128678D01*
X0163625Y0128757D01*
X0163592Y0128836D01*
X0163563Y0128918D01*
X0163537Y0129000D01*
X0163516Y0129084D01*
X0163498Y0129168D01*
X0163484Y0129254D01*
X0163474Y0129339D01*
X0163468Y0129426D01*
X0163466Y0129512D01*
X0163466Y0117480D02*
X0163468Y0117566D01*
X0163474Y0117653D01*
X0163484Y0117738D01*
X0163498Y0117824D01*
X0163516Y0117908D01*
X0163537Y0117992D01*
X0163563Y0118074D01*
X0163592Y0118156D01*
X0163625Y0118235D01*
X0163662Y0118314D01*
X0163702Y0118390D01*
X0163746Y0118464D01*
X0163793Y0118537D01*
X0163844Y0118607D01*
X0163897Y0118675D01*
X0163954Y0118740D01*
X0164014Y0118802D01*
X0164076Y0118862D01*
X0164141Y0118919D01*
X0164209Y0118972D01*
X0164279Y0119023D01*
X0164352Y0119070D01*
X0164426Y0119114D01*
X0164502Y0119154D01*
X0164581Y0119191D01*
X0164660Y0119224D01*
X0164742Y0119253D01*
X0164824Y0119279D01*
X0164908Y0119300D01*
X0164992Y0119318D01*
X0165078Y0119332D01*
X0165163Y0119342D01*
X0165250Y0119348D01*
X0165336Y0119350D01*
X0165422Y0119348D01*
X0165509Y0119342D01*
X0165594Y0119332D01*
X0165680Y0119318D01*
X0165764Y0119300D01*
X0165848Y0119279D01*
X0165930Y0119253D01*
X0166012Y0119224D01*
X0166091Y0119191D01*
X0166170Y0119154D01*
X0166246Y0119114D01*
X0166320Y0119070D01*
X0166393Y0119023D01*
X0166463Y0118972D01*
X0166531Y0118919D01*
X0166596Y0118862D01*
X0166658Y0118802D01*
X0166718Y0118740D01*
X0166775Y0118675D01*
X0166828Y0118607D01*
X0166879Y0118537D01*
X0166926Y0118464D01*
X0166970Y0118390D01*
X0167010Y0118314D01*
X0167047Y0118235D01*
X0167080Y0118156D01*
X0167109Y0118074D01*
X0167135Y0117992D01*
X0167156Y0117908D01*
X0167174Y0117824D01*
X0167188Y0117738D01*
X0167198Y0117653D01*
X0167204Y0117566D01*
X0167206Y0117480D01*
X0167204Y0117394D01*
X0167198Y0117307D01*
X0167188Y0117222D01*
X0167174Y0117136D01*
X0167156Y0117052D01*
X0167135Y0116968D01*
X0167109Y0116886D01*
X0167080Y0116804D01*
X0167047Y0116725D01*
X0167010Y0116646D01*
X0166970Y0116570D01*
X0166926Y0116496D01*
X0166879Y0116423D01*
X0166828Y0116353D01*
X0166775Y0116285D01*
X0166718Y0116220D01*
X0166658Y0116158D01*
X0166596Y0116098D01*
X0166531Y0116041D01*
X0166463Y0115988D01*
X0166393Y0115937D01*
X0166320Y0115890D01*
X0166246Y0115846D01*
X0166170Y0115806D01*
X0166091Y0115769D01*
X0166012Y0115736D01*
X0165930Y0115707D01*
X0165848Y0115681D01*
X0165764Y0115660D01*
X0165680Y0115642D01*
X0165594Y0115628D01*
X0165509Y0115618D01*
X0165422Y0115612D01*
X0165336Y0115610D01*
X0165250Y0115612D01*
X0165163Y0115618D01*
X0165078Y0115628D01*
X0164992Y0115642D01*
X0164908Y0115660D01*
X0164824Y0115681D01*
X0164742Y0115707D01*
X0164660Y0115736D01*
X0164581Y0115769D01*
X0164502Y0115806D01*
X0164426Y0115846D01*
X0164352Y0115890D01*
X0164279Y0115937D01*
X0164209Y0115988D01*
X0164141Y0116041D01*
X0164076Y0116098D01*
X0164014Y0116158D01*
X0163954Y0116220D01*
X0163897Y0116285D01*
X0163844Y0116353D01*
X0163793Y0116423D01*
X0163746Y0116496D01*
X0163702Y0116570D01*
X0163662Y0116646D01*
X0163625Y0116725D01*
X0163592Y0116804D01*
X0163563Y0116886D01*
X0163537Y0116968D01*
X0163516Y0117052D01*
X0163498Y0117136D01*
X0163484Y0117222D01*
X0163474Y0117307D01*
X0163468Y0117394D01*
X0163466Y0117480D01*
D15*
X0103574Y0146342D03*
X0103574Y0153137D03*
X0093574Y0153137D03*
X0083574Y0153137D03*
X0073574Y0153137D03*
X0073574Y0146342D03*
X0063574Y0146342D03*
X0063574Y0153137D03*
X0053574Y0153137D03*
D16*
X0028189Y0134660D03*
X0049977Y0110061D03*
X0072391Y0111059D03*
X0092146Y0112762D03*
X0101842Y0119647D03*
X0114136Y0119504D03*
X0110952Y0134111D03*
X0101506Y0136216D03*
X0121241Y0136920D03*
X0130276Y0123010D03*
X0139832Y0115620D03*
X0144044Y0120114D03*
X0150737Y0118539D03*
X0143280Y0127150D03*
X0154280Y0107909D03*
X0156996Y0104833D03*
X0164328Y0098684D03*
X0163343Y0094661D03*
X0163343Y0090309D03*
X0163335Y0083263D03*
X0163572Y0077673D03*
X0163572Y0073893D03*
X0163572Y0070114D03*
X0163572Y0066334D03*
X0140423Y0066938D03*
X0133808Y0068539D03*
X0131446Y0072870D03*
X0133021Y0078382D03*
X0122949Y0087025D03*
X0115968Y0080731D03*
X0116306Y0075886D03*
X0117529Y0071014D03*
X0108054Y0081526D03*
X0098550Y0077877D03*
X0087891Y0078814D03*
X0069241Y0071295D03*
X0052312Y0083893D03*
X0046274Y0069896D03*
X0031446Y0083893D03*
X0046266Y0050160D03*
X0078844Y0040034D03*
X0087022Y0055408D03*
X0099634Y0050480D03*
X0110857Y0033496D03*
X0122163Y0040859D03*
X0121209Y0046098D03*
X0125202Y0046262D03*
X0128690Y0042948D03*
X0106934Y0013418D03*
X0119092Y0012605D03*
X0065256Y0014854D03*
X0061871Y0018958D03*
X0058757Y0014740D03*
X0037785Y0014313D03*
X0113657Y0094594D03*
X0121008Y0093729D03*
X0134132Y0093019D03*
X0102312Y0100822D03*
X0164759Y0123504D03*
X0168995Y0112861D03*
X0169871Y0093736D03*
D17*
X0170015Y0093682D02*
X0170015Y0090566D01*
X0166901Y0087452D01*
X0161048Y0087452D01*
X0149210Y0099290D01*
X0119694Y0099290D01*
X0114834Y0094430D01*
X0113838Y0094430D01*
X0114642Y0091383D02*
X0071370Y0091383D01*
X0064108Y0084121D01*
X0064108Y0058038D01*
X0073584Y0048562D01*
X0089927Y0048562D01*
X0100056Y0058690D01*
X0106293Y0058690D01*
X0108230Y0056753D01*
X0108230Y0036182D01*
X0110788Y0033624D01*
X0108400Y0034051D02*
X0108374Y0033989D01*
X0108374Y0033002D01*
X0108752Y0032089D01*
X0109451Y0031391D01*
X0110363Y0031013D01*
X0111351Y0031013D01*
X0112263Y0031391D01*
X0112949Y0032076D01*
X0117958Y0027067D01*
X0119307Y0027067D01*
X0119837Y0026536D01*
X0113567Y0026536D01*
X0112985Y0025954D01*
X0112985Y0013287D01*
X0111270Y0013287D01*
X0111270Y0025954D01*
X0110688Y0026536D01*
X0103567Y0026536D01*
X0102985Y0025954D01*
X0102985Y0013300D01*
X0102799Y0013300D01*
X0102838Y0013339D01*
X0102838Y0025309D01*
X0102838Y0026464D01*
X0102022Y0027280D01*
X0087097Y0027280D01*
X0086281Y0026464D01*
X0086281Y0014494D01*
X0086281Y0014494D01*
X0086281Y0014061D01*
X0086281Y0013339D01*
X0086320Y0013300D01*
X0067213Y0013300D01*
X0067360Y0013447D01*
X0067738Y0014360D01*
X0067738Y0015347D01*
X0067360Y0016260D01*
X0066787Y0016833D01*
X0066787Y0023924D01*
X0065974Y0024737D01*
X0063774Y0026938D01*
X0063774Y0056411D01*
X0072197Y0047988D01*
X0073010Y0047175D01*
X0090502Y0047175D01*
X0100630Y0057303D01*
X0105718Y0057303D01*
X0106843Y0056179D01*
X0106843Y0035608D01*
X0108400Y0034051D01*
X0108163Y0034287D02*
X0063774Y0034287D01*
X0063774Y0032319D02*
X0108657Y0032319D01*
X0109398Y0031443D02*
X0109398Y0026536D01*
X0110811Y0026413D02*
X0113444Y0026413D01*
X0113335Y0026305D02*
X0113335Y0031689D01*
X0114675Y0030350D02*
X0063774Y0030350D01*
X0063774Y0028382D02*
X0116643Y0028382D01*
X0117272Y0027752D02*
X0117272Y0026536D01*
X0117167Y0026037D02*
X0117167Y0023453D01*
X0115304Y0026536D02*
X0115304Y0029721D01*
X0112179Y0026454D02*
X0125268Y0026478D01*
X0125743Y0027913D02*
X0120422Y0027913D01*
X0110373Y0037963D01*
X0110373Y0077384D01*
X0113723Y0080734D01*
X0116087Y0080734D01*
X0114184Y0083562D02*
X0120213Y0083562D01*
X0123051Y0080724D01*
X0123051Y0068541D01*
X0120686Y0066176D01*
X0118913Y0066176D01*
X0117021Y0064285D01*
X0117021Y0041220D01*
X0124471Y0033770D01*
X0151546Y0033770D01*
X0157223Y0028093D01*
X0157223Y0023007D01*
X0147024Y0023479D02*
X0138845Y0031658D01*
X0123477Y0031658D01*
X0115004Y0040132D01*
X0115004Y0069402D01*
X0116580Y0070978D01*
X0117467Y0070978D01*
X0116284Y0075906D02*
X0114413Y0075906D01*
X0112737Y0074231D01*
X0112737Y0039048D01*
X0121901Y0029884D01*
X0134413Y0029884D01*
X0137270Y0027027D01*
X0137270Y0022887D01*
X0127122Y0023380D02*
X0127122Y0026534D01*
X0125743Y0027913D01*
X0123556Y0026526D02*
X0122985Y0025954D01*
X0122985Y0013287D01*
X0121497Y0013287D01*
X0121270Y0013835D01*
X0121270Y0025954D01*
X0120698Y0026526D01*
X0123556Y0026526D01*
X0123444Y0026413D02*
X0120811Y0026413D01*
X0121209Y0026526D02*
X0121209Y0026015D01*
X0121270Y0024445D02*
X0122985Y0024445D01*
X0123178Y0026147D02*
X0123178Y0026526D01*
X0119241Y0026536D02*
X0119241Y0027067D01*
X0121270Y0022476D02*
X0122985Y0022476D01*
X0122985Y0020508D02*
X0121270Y0020508D01*
X0121270Y0018539D02*
X0122985Y0018539D01*
X0122985Y0016570D02*
X0121270Y0016570D01*
X0120767Y0017942D02*
X0113562Y0017942D01*
X0112985Y0018539D02*
X0111270Y0018539D01*
X0111270Y0016570D02*
X0112985Y0016570D01*
X0112985Y0014602D02*
X0111270Y0014602D01*
X0111367Y0013287D02*
X0111367Y0031020D01*
X0107430Y0035020D02*
X0107430Y0026536D01*
X0105461Y0026536D02*
X0105461Y0057303D01*
X0106843Y0055941D02*
X0099268Y0055941D01*
X0099556Y0056229D02*
X0099556Y0027280D01*
X0101524Y0027280D02*
X0101524Y0057303D01*
X0103493Y0057303D02*
X0103493Y0026462D01*
X0103444Y0026413D02*
X0102838Y0026413D01*
X0102838Y0024445D02*
X0102985Y0024445D01*
X0102985Y0022476D02*
X0102838Y0022476D01*
X0102838Y0020508D02*
X0102985Y0020508D01*
X0102985Y0018539D02*
X0102838Y0018539D01*
X0102838Y0016570D02*
X0102985Y0016570D01*
X0102985Y0014602D02*
X0102838Y0014602D01*
X0111270Y0020508D02*
X0112985Y0020508D01*
X0112985Y0022476D02*
X0111270Y0022476D01*
X0111270Y0024445D02*
X0112985Y0024445D01*
X0121270Y0014602D02*
X0122985Y0014602D01*
X0125046Y0035157D02*
X0121826Y0038377D01*
X0122657Y0038377D01*
X0123569Y0038755D01*
X0124268Y0039453D01*
X0124645Y0040365D01*
X0124645Y0041353D01*
X0124268Y0042266D01*
X0123569Y0042964D01*
X0122657Y0043342D01*
X0121780Y0043342D01*
X0121715Y0043407D01*
X0121715Y0043620D01*
X0122616Y0043993D01*
X0123314Y0044692D01*
X0123692Y0045604D01*
X0123692Y0046592D01*
X0123314Y0047504D01*
X0122638Y0048180D01*
X0122638Y0056195D01*
X0128083Y0061640D01*
X0135170Y0061640D01*
X0138690Y0065160D01*
X0139017Y0064833D01*
X0139929Y0064455D01*
X0140917Y0064455D01*
X0141829Y0064833D01*
X0142528Y0065531D01*
X0142906Y0066444D01*
X0142906Y0067432D01*
X0142528Y0068344D01*
X0141829Y0069042D01*
X0140917Y0069420D01*
X0139929Y0069420D01*
X0139017Y0069042D01*
X0138398Y0068424D01*
X0138030Y0068424D01*
X0137821Y0068215D01*
X0137744Y0068215D01*
X0133943Y0064415D01*
X0131926Y0064415D01*
X0133568Y0066056D01*
X0134302Y0066056D01*
X0135214Y0066434D01*
X0135913Y0067133D01*
X0136291Y0068045D01*
X0136291Y0069033D01*
X0135913Y0069945D01*
X0135214Y0070644D01*
X0134302Y0071022D01*
X0133314Y0071022D01*
X0132963Y0070876D01*
X0133550Y0071463D01*
X0133928Y0072376D01*
X0133928Y0073364D01*
X0133550Y0074276D01*
X0132852Y0074974D01*
X0131940Y0075352D01*
X0131000Y0075352D01*
X0130379Y0075973D01*
X0130379Y0079100D01*
X0130809Y0079531D01*
X0130538Y0078875D01*
X0130538Y0077888D01*
X0130916Y0076975D01*
X0131614Y0076277D01*
X0132527Y0075899D01*
X0133514Y0075899D01*
X0133622Y0075944D01*
X0136674Y0072892D01*
X0137487Y0072079D01*
X0158586Y0072079D01*
X0161120Y0069545D01*
X0161467Y0068707D01*
X0161950Y0068224D01*
X0161467Y0067741D01*
X0161089Y0066828D01*
X0161089Y0065840D01*
X0161467Y0064928D01*
X0162165Y0064230D01*
X0163078Y0063852D01*
X0164066Y0063852D01*
X0164978Y0064230D01*
X0165412Y0064664D01*
X0165412Y0064573D01*
X0164378Y0063539D01*
X0146218Y0063539D01*
X0145406Y0062726D01*
X0143727Y0061048D01*
X0133869Y0061048D01*
X0133057Y0060235D01*
X0127453Y0054631D01*
X0127453Y0050977D01*
X0127205Y0050214D01*
X0127205Y0044974D01*
X0126585Y0044355D01*
X0126207Y0043442D01*
X0126207Y0042455D01*
X0126585Y0041542D01*
X0127283Y0040844D01*
X0127789Y0040634D01*
X0128159Y0039497D01*
X0129974Y0036999D01*
X0131312Y0036027D01*
X0131312Y0035240D01*
X0124963Y0035240D01*
X0121826Y0038377D01*
X0122657Y0038377D01*
X0123569Y0038755D01*
X0124268Y0039453D01*
X0124645Y0040365D01*
X0124645Y0041353D01*
X0124268Y0042266D01*
X0123569Y0042964D01*
X0122657Y0043342D01*
X0121780Y0043342D01*
X0121507Y0043615D01*
X0121703Y0043615D01*
X0122616Y0043993D01*
X0123314Y0044692D01*
X0123692Y0045604D01*
X0123692Y0046592D01*
X0123314Y0047504D01*
X0122638Y0048180D01*
X0122638Y0056195D01*
X0128083Y0061640D01*
X0135170Y0061640D01*
X0138690Y0065160D01*
X0139017Y0064833D01*
X0139929Y0064455D01*
X0140917Y0064455D01*
X0141829Y0064833D01*
X0142528Y0065531D01*
X0142906Y0066444D01*
X0142906Y0067432D01*
X0142528Y0068344D01*
X0141829Y0069042D01*
X0140917Y0069420D01*
X0139929Y0069420D01*
X0139017Y0069042D01*
X0138398Y0068424D01*
X0138030Y0068424D01*
X0137217Y0067611D01*
X0134021Y0064415D01*
X0131926Y0064415D01*
X0133568Y0066056D01*
X0134302Y0066056D01*
X0135214Y0066434D01*
X0135913Y0067133D01*
X0136291Y0068045D01*
X0136291Y0069033D01*
X0135913Y0069945D01*
X0135214Y0070644D01*
X0134302Y0071022D01*
X0133314Y0071022D01*
X0132963Y0070876D01*
X0133550Y0071463D01*
X0133928Y0072376D01*
X0133928Y0073364D01*
X0133550Y0074276D01*
X0132852Y0074974D01*
X0131940Y0075352D01*
X0131000Y0075352D01*
X0130379Y0075973D01*
X0130379Y0079100D01*
X0130724Y0079445D01*
X0130774Y0079445D01*
X0130538Y0078875D01*
X0130538Y0077888D01*
X0130916Y0076975D01*
X0131614Y0076277D01*
X0132527Y0075899D01*
X0133514Y0075899D01*
X0133622Y0075944D01*
X0136674Y0072892D01*
X0137487Y0072079D01*
X0158586Y0072079D01*
X0161120Y0069545D01*
X0161467Y0068707D01*
X0161950Y0068224D01*
X0161467Y0067741D01*
X0161089Y0066828D01*
X0161089Y0065840D01*
X0161467Y0064928D01*
X0162165Y0064230D01*
X0163078Y0063852D01*
X0164066Y0063852D01*
X0164493Y0064029D01*
X0164493Y0063654D01*
X0164378Y0063539D01*
X0146218Y0063539D01*
X0145406Y0062726D01*
X0143727Y0061048D01*
X0133869Y0061048D01*
X0133057Y0060235D01*
X0127453Y0054631D01*
X0127453Y0050977D01*
X0127205Y0050214D01*
X0127205Y0044974D01*
X0126585Y0044355D01*
X0126207Y0043442D01*
X0126207Y0042455D01*
X0126585Y0041542D01*
X0127283Y0040844D01*
X0127789Y0040634D01*
X0128159Y0039497D01*
X0128159Y0039497D01*
X0129974Y0036999D01*
X0129974Y0036999D01*
X0130495Y0036620D01*
X0130495Y0035157D01*
X0125046Y0035157D01*
X0125147Y0035157D02*
X0125147Y0058703D01*
X0125147Y0035240D01*
X0123948Y0036256D02*
X0130997Y0036256D01*
X0131052Y0036216D02*
X0131052Y0035240D01*
X0130495Y0036256D02*
X0123948Y0036256D01*
X0123178Y0037025D02*
X0123178Y0038593D01*
X0123178Y0037025D01*
X0121979Y0038224D02*
X0129084Y0038224D01*
X0121979Y0038224D01*
X0124574Y0040193D02*
X0127933Y0040193D01*
X0124574Y0040193D01*
X0124311Y0042161D02*
X0126329Y0042161D01*
X0124311Y0042161D01*
X0123178Y0043126D02*
X0123178Y0044556D01*
X0123178Y0043126D01*
X0122752Y0044130D02*
X0126492Y0044130D01*
X0122752Y0044130D01*
X0123692Y0046098D02*
X0127205Y0046098D01*
X0123692Y0046098D01*
X0123178Y0047641D02*
X0123178Y0056734D01*
X0123178Y0047641D01*
X0122752Y0048067D02*
X0127205Y0048067D01*
X0122752Y0048067D01*
X0122638Y0050035D02*
X0127205Y0050035D01*
X0122638Y0050035D01*
X0122638Y0052004D02*
X0127453Y0052004D01*
X0122638Y0052004D01*
X0122638Y0053972D02*
X0127453Y0053972D01*
X0122638Y0053972D01*
X0122638Y0055941D02*
X0128762Y0055941D01*
X0122638Y0055941D01*
X0121251Y0056769D02*
X0127509Y0063027D01*
X0134595Y0063027D01*
X0138604Y0067036D01*
X0140452Y0067036D01*
X0140895Y0069420D02*
X0140895Y0072079D01*
X0140895Y0069420D01*
X0138926Y0068952D02*
X0138926Y0072079D01*
X0138926Y0068952D01*
X0137358Y0067752D02*
X0136169Y0067752D01*
X0137280Y0067752D01*
X0136958Y0067429D02*
X0136958Y0072608D01*
X0136958Y0067351D01*
X0134989Y0066341D02*
X0134989Y0065460D01*
X0134989Y0065383D02*
X0134989Y0066341D01*
X0135312Y0065783D02*
X0133295Y0065783D01*
X0135389Y0065783D01*
X0133021Y0065509D02*
X0133021Y0064415D01*
X0133021Y0065509D01*
X0131039Y0067752D02*
X0127716Y0067752D01*
X0127115Y0068353D02*
X0127115Y0094319D01*
X0125147Y0094319D02*
X0125147Y0088207D01*
X0125054Y0088431D02*
X0124355Y0089130D01*
X0123443Y0089508D01*
X0122455Y0089508D01*
X0121543Y0089130D01*
X0120844Y0088431D01*
X0120801Y0088327D01*
X0109326Y0088327D01*
X0108451Y0087452D01*
X0107410Y0086411D01*
X0106535Y0085536D01*
X0106535Y0083518D01*
X0105949Y0082932D01*
X0105571Y0082020D01*
X0105571Y0081032D01*
X0105949Y0080120D01*
X0106648Y0079421D01*
X0107560Y0079043D01*
X0107669Y0079043D01*
X0107669Y0079009D01*
X0107002Y0078342D01*
X0107002Y0075740D01*
X0103794Y0072531D01*
X0071416Y0072531D01*
X0071346Y0072701D01*
X0070647Y0073400D01*
X0069735Y0073778D01*
X0068747Y0073778D01*
X0067835Y0073400D01*
X0067136Y0072701D01*
X0066758Y0071789D01*
X0066758Y0070801D01*
X0067136Y0069889D01*
X0067835Y0069190D01*
X0068747Y0068812D01*
X0069735Y0068812D01*
X0070647Y0069190D01*
X0071213Y0069756D01*
X0104943Y0069756D01*
X0108964Y0073778D01*
X0108985Y0073799D01*
X0108985Y0057960D01*
X0108805Y0058141D01*
X0106868Y0060078D01*
X0099481Y0060078D01*
X0098668Y0059265D01*
X0089353Y0049950D01*
X0074159Y0049950D01*
X0065496Y0058613D01*
X0065496Y0083547D01*
X0071945Y0089996D01*
X0115217Y0089996D01*
X0116030Y0090808D01*
X0118525Y0093303D01*
X0118525Y0093236D01*
X0118903Y0092323D01*
X0119601Y0091625D01*
X0120514Y0091247D01*
X0121501Y0091247D01*
X0122414Y0091625D01*
X0123112Y0092323D01*
X0123490Y0093236D01*
X0123490Y0094126D01*
X0123683Y0094319D01*
X0146787Y0094319D01*
X0157864Y0083242D01*
X0157864Y0081321D01*
X0158677Y0080508D01*
X0160118Y0079067D01*
X0164320Y0079067D01*
X0165429Y0077958D01*
X0165429Y0075972D01*
X0165217Y0075760D01*
X0164978Y0075998D01*
X0164066Y0076376D01*
X0163078Y0076376D01*
X0162559Y0076161D01*
X0162464Y0076257D01*
X0162464Y0076259D01*
X0162060Y0076663D01*
X0161654Y0077070D01*
X0161652Y0077070D01*
X0161651Y0077071D01*
X0161079Y0077071D01*
X0160504Y0077072D01*
X0160503Y0077071D01*
X0141880Y0077071D01*
X0138360Y0080591D01*
X0138360Y0080591D01*
X0138360Y0080592D01*
X0137962Y0080989D01*
X0135723Y0083228D01*
X0130583Y0083228D01*
X0129770Y0082416D01*
X0127604Y0080249D01*
X0127604Y0074824D01*
X0128417Y0074011D01*
X0128993Y0073435D01*
X0128963Y0073364D01*
X0128963Y0072376D01*
X0129341Y0071463D01*
X0130039Y0070765D01*
X0130952Y0070387D01*
X0131940Y0070387D01*
X0132290Y0070532D01*
X0131703Y0069945D01*
X0131325Y0069033D01*
X0131325Y0068045D01*
X0131327Y0068040D01*
X0130294Y0067007D01*
X0128461Y0067007D01*
X0126421Y0069047D01*
X0126421Y0085605D01*
X0125432Y0086594D01*
X0125432Y0087519D01*
X0125054Y0088431D01*
X0125432Y0087437D02*
X0153670Y0087437D01*
X0152706Y0088401D02*
X0152706Y0077071D01*
X0154674Y0077071D02*
X0154674Y0086432D01*
X0155638Y0085468D02*
X0126421Y0085468D01*
X0126421Y0083500D02*
X0157607Y0083500D01*
X0156643Y0084464D02*
X0156643Y0077071D01*
X0158611Y0077071D02*
X0158611Y0080574D01*
X0157864Y0081531D02*
X0137420Y0081531D01*
X0136958Y0081994D02*
X0136958Y0094319D01*
X0138926Y0094319D02*
X0138926Y0080025D01*
X0139389Y0079563D02*
X0159622Y0079563D01*
X0160580Y0079067D02*
X0160580Y0077072D01*
X0161076Y0075684D02*
X0163105Y0073648D01*
X0162548Y0076172D02*
X0162548Y0079067D01*
X0164517Y0078871D02*
X0164517Y0076189D01*
X0165429Y0077594D02*
X0141357Y0077594D01*
X0140895Y0078057D02*
X0140895Y0094319D01*
X0142863Y0094319D02*
X0142863Y0077071D01*
X0144832Y0077071D02*
X0144832Y0094319D01*
X0146800Y0094306D02*
X0146800Y0077071D01*
X0148769Y0077071D02*
X0148769Y0092338D01*
X0149733Y0091374D02*
X0121808Y0091374D01*
X0121209Y0091247D02*
X0121209Y0088796D01*
X0122208Y0089405D02*
X0071354Y0089405D01*
X0071997Y0089996D02*
X0071997Y0072531D01*
X0073965Y0072531D02*
X0073965Y0089996D01*
X0075934Y0089996D02*
X0075934Y0072531D01*
X0077902Y0072531D02*
X0077902Y0089996D01*
X0079871Y0089996D02*
X0079871Y0072531D01*
X0081839Y0072531D02*
X0081839Y0089996D01*
X0083808Y0089996D02*
X0083808Y0072531D01*
X0085776Y0072531D02*
X0085776Y0089996D01*
X0087745Y0089996D02*
X0087745Y0072531D01*
X0089713Y0072531D02*
X0089713Y0089996D01*
X0091682Y0089996D02*
X0091682Y0072531D01*
X0093650Y0072531D02*
X0093650Y0089996D01*
X0095619Y0089996D02*
X0095619Y0072531D01*
X0097587Y0072531D02*
X0097587Y0089996D01*
X0099556Y0089996D02*
X0099556Y0072531D01*
X0101524Y0072531D02*
X0101524Y0089996D01*
X0103493Y0089996D02*
X0103493Y0072531D01*
X0104368Y0071144D02*
X0108390Y0075165D01*
X0108390Y0077768D01*
X0114184Y0083562D01*
X0113335Y0088327D02*
X0113335Y0089996D01*
X0114642Y0091383D02*
X0120767Y0097508D01*
X0148323Y0097508D01*
X0159912Y0085919D01*
X0169638Y0085919D01*
X0173286Y0089567D01*
X0173286Y0124428D01*
X0170837Y0126877D01*
X0170837Y0128679D01*
X0160896Y0135241D02*
X0160896Y0117768D01*
X0156918Y0113790D01*
X0156918Y0110243D01*
X0154410Y0107735D01*
X0156722Y0107316D02*
X0156763Y0107415D01*
X0156763Y0108126D01*
X0158305Y0109668D01*
X0158305Y0113215D01*
X0159732Y0114641D01*
X0160025Y0113932D01*
X0161788Y0112170D01*
X0164090Y0111216D01*
X0166582Y0111216D01*
X0168884Y0112170D01*
X0170646Y0113932D01*
X0170865Y0114461D01*
X0170865Y0096011D01*
X0170365Y0096219D01*
X0169377Y0096219D01*
X0168465Y0095841D01*
X0167766Y0095142D01*
X0167388Y0094230D01*
X0167388Y0093242D01*
X0167766Y0092330D01*
X0168465Y0091631D01*
X0168627Y0091564D01*
X0168627Y0091141D01*
X0166326Y0088839D01*
X0165384Y0088839D01*
X0165448Y0088903D01*
X0165826Y0089815D01*
X0165826Y0090803D01*
X0165448Y0091715D01*
X0165304Y0091859D01*
X0165304Y0093110D01*
X0165448Y0093254D01*
X0165826Y0094167D01*
X0165826Y0095155D01*
X0165448Y0096067D01*
X0165304Y0096211D01*
X0165304Y0096401D01*
X0165735Y0096579D01*
X0166433Y0097278D01*
X0166811Y0098190D01*
X0166811Y0099178D01*
X0166433Y0100090D01*
X0165735Y0100789D01*
X0164822Y0101167D01*
X0164173Y0101167D01*
X0161367Y0103972D01*
X0159326Y0103972D01*
X0159478Y0104339D01*
X0159478Y0105327D01*
X0159100Y0106240D01*
X0158402Y0106938D01*
X0157490Y0107316D01*
X0156722Y0107316D01*
X0157958Y0107122D02*
X0170865Y0107122D01*
X0170865Y0109090D02*
X0157727Y0109090D01*
X0158305Y0111059D02*
X0170865Y0111059D01*
X0170865Y0113027D02*
X0169741Y0113027D01*
X0170422Y0113708D02*
X0170422Y0096195D01*
X0170865Y0097279D02*
X0166434Y0097279D01*
X0166485Y0097403D02*
X0166485Y0088998D01*
X0166892Y0089405D02*
X0165656Y0089405D01*
X0165590Y0091374D02*
X0168627Y0091374D01*
X0168454Y0091642D02*
X0168454Y0090967D01*
X0167388Y0093342D02*
X0165484Y0093342D01*
X0165761Y0095311D02*
X0167935Y0095311D01*
X0168454Y0095830D02*
X0168454Y0111992D01*
X0166485Y0111216D02*
X0166485Y0099965D01*
X0166782Y0099248D02*
X0170865Y0099248D01*
X0170865Y0101216D02*
X0164123Y0101216D01*
X0164517Y0101167D02*
X0164517Y0111216D01*
X0162548Y0111855D02*
X0162548Y0102791D01*
X0162154Y0103185D02*
X0170865Y0103185D01*
X0170865Y0105153D02*
X0159478Y0105153D01*
X0160580Y0103972D02*
X0160580Y0113378D01*
X0160930Y0113027D02*
X0158305Y0113027D01*
X0158611Y0113521D02*
X0158611Y0106729D01*
X0151326Y0103813D02*
X0114884Y0103813D01*
X0107077Y0096007D01*
X0069075Y0096007D01*
X0059108Y0086039D01*
X0059108Y0015001D01*
X0058687Y0014581D01*
X0056597Y0013467D02*
X0048544Y0021520D01*
X0048544Y0049172D01*
X0048748Y0049666D01*
X0048748Y0050653D01*
X0048544Y0051147D01*
X0048544Y0068888D01*
X0048757Y0069403D01*
X0048757Y0070390D01*
X0048544Y0070905D01*
X0048544Y0107920D01*
X0048659Y0107920D01*
X0049484Y0107579D01*
X0050471Y0107579D01*
X0051296Y0107920D01*
X0063360Y0107920D01*
X0072798Y0117358D01*
X0076868Y0117358D01*
X0089130Y0105095D01*
X0113396Y0105095D01*
X0113698Y0104793D01*
X0106578Y0097673D01*
X0068733Y0097673D01*
X0057831Y0086771D01*
X0057831Y0086725D01*
X0057720Y0086614D01*
X0057720Y0016997D01*
X0057350Y0016844D01*
X0056652Y0016146D01*
X0056274Y0015233D01*
X0056274Y0014246D01*
X0056597Y0013467D01*
X0056249Y0013815D02*
X0056249Y0107920D01*
X0058217Y0107920D02*
X0058217Y0087158D01*
X0058496Y0087437D02*
X0048544Y0087437D01*
X0048544Y0089405D02*
X0060465Y0089405D01*
X0060186Y0089126D02*
X0060186Y0107920D01*
X0062154Y0107920D02*
X0062154Y0091095D01*
X0062433Y0091374D02*
X0048544Y0091374D01*
X0048544Y0093342D02*
X0064402Y0093342D01*
X0064123Y0093063D02*
X0064123Y0108683D01*
X0064530Y0109090D02*
X0070848Y0109090D01*
X0070984Y0108954D02*
X0071897Y0108576D01*
X0072884Y0108576D01*
X0072902Y0108583D01*
X0079082Y0102403D01*
X0079894Y0101590D01*
X0099524Y0101590D01*
X0099829Y0101285D01*
X0099829Y0100329D01*
X0100207Y0099416D01*
X0100906Y0098718D01*
X0101818Y0098340D01*
X0102806Y0098340D01*
X0103718Y0098718D01*
X0104417Y0099416D01*
X0104795Y0100329D01*
X0104795Y0101316D01*
X0104417Y0102229D01*
X0103718Y0102927D01*
X0102806Y0103305D01*
X0101818Y0103305D01*
X0101758Y0103280D01*
X0100674Y0104365D01*
X0081044Y0104365D01*
X0074865Y0110544D01*
X0074873Y0110565D01*
X0074873Y0111553D01*
X0074495Y0112465D01*
X0073797Y0113163D01*
X0072884Y0113541D01*
X0071897Y0113541D01*
X0070984Y0113163D01*
X0070286Y0112465D01*
X0069908Y0111553D01*
X0069908Y0110565D01*
X0070286Y0109652D01*
X0070984Y0108954D01*
X0071997Y0108576D02*
X0071997Y0097673D01*
X0073965Y0097673D02*
X0073965Y0107519D01*
X0074363Y0107122D02*
X0048544Y0107122D01*
X0050343Y0107579D02*
X0050343Y0019720D01*
X0049556Y0020508D02*
X0057720Y0020508D01*
X0057720Y0022476D02*
X0048544Y0022476D01*
X0048544Y0024445D02*
X0057720Y0024445D01*
X0057720Y0026413D02*
X0048544Y0026413D01*
X0048544Y0028382D02*
X0057720Y0028382D01*
X0057720Y0030350D02*
X0048544Y0030350D01*
X0048544Y0032319D02*
X0057720Y0032319D01*
X0057720Y0034287D02*
X0048544Y0034287D01*
X0048544Y0036256D02*
X0057720Y0036256D01*
X0057720Y0038224D02*
X0048544Y0038224D01*
X0048544Y0040193D02*
X0057720Y0040193D01*
X0057720Y0042161D02*
X0048544Y0042161D01*
X0048544Y0044130D02*
X0057720Y0044130D01*
X0057720Y0046098D02*
X0048544Y0046098D01*
X0048544Y0048067D02*
X0057720Y0048067D01*
X0057720Y0050035D02*
X0048748Y0050035D01*
X0048544Y0052004D02*
X0057720Y0052004D01*
X0057720Y0053972D02*
X0048544Y0053972D01*
X0048544Y0055941D02*
X0057720Y0055941D01*
X0057720Y0057909D02*
X0048544Y0057909D01*
X0048544Y0059878D02*
X0057720Y0059878D01*
X0057720Y0061846D02*
X0048544Y0061846D01*
X0048544Y0063815D02*
X0057720Y0063815D01*
X0057720Y0065783D02*
X0048544Y0065783D01*
X0048544Y0067752D02*
X0057720Y0067752D01*
X0057720Y0069720D02*
X0048757Y0069720D01*
X0048544Y0071689D02*
X0057720Y0071689D01*
X0057720Y0073657D02*
X0048544Y0073657D01*
X0048544Y0075626D02*
X0057720Y0075626D01*
X0057720Y0077594D02*
X0048544Y0077594D01*
X0048544Y0079563D02*
X0057720Y0079563D01*
X0057720Y0081531D02*
X0048544Y0081531D01*
X0048544Y0083500D02*
X0057720Y0083500D01*
X0057720Y0085468D02*
X0048544Y0085468D01*
X0043922Y0085468D02*
X0027375Y0085468D01*
X0027375Y0083500D02*
X0043922Y0083500D01*
X0043922Y0081531D02*
X0027375Y0081531D01*
X0027375Y0079563D02*
X0043922Y0079563D01*
X0043922Y0077594D02*
X0027375Y0077594D01*
X0027375Y0075626D02*
X0043922Y0075626D01*
X0043922Y0073657D02*
X0027375Y0073657D01*
X0027375Y0071689D02*
X0043922Y0071689D01*
X0043922Y0070704D02*
X0043792Y0070390D01*
X0043792Y0069403D01*
X0043922Y0069089D01*
X0043922Y0050988D01*
X0043783Y0050653D01*
X0043783Y0049666D01*
X0043922Y0049331D01*
X0043922Y0019433D01*
X0050067Y0013287D01*
X0027375Y0013287D01*
X0027375Y0136782D01*
X0039585Y0124572D01*
X0039706Y0124572D01*
X0039896Y0124382D01*
X0075081Y0124382D01*
X0062937Y0112239D01*
X0051208Y0112239D01*
X0050471Y0112544D01*
X0049484Y0112544D01*
X0048747Y0112239D01*
X0043922Y0112239D01*
X0043922Y0070704D01*
X0043792Y0069720D02*
X0027375Y0069720D01*
X0027375Y0067752D02*
X0043922Y0067752D01*
X0043922Y0065783D02*
X0027375Y0065783D01*
X0027375Y0063815D02*
X0043922Y0063815D01*
X0043922Y0061846D02*
X0027375Y0061846D01*
X0027375Y0059878D02*
X0043922Y0059878D01*
X0043922Y0057909D02*
X0027375Y0057909D01*
X0027375Y0055941D02*
X0043922Y0055941D01*
X0043922Y0053972D02*
X0027375Y0053972D01*
X0027375Y0052004D02*
X0043922Y0052004D01*
X0043783Y0050035D02*
X0027375Y0050035D01*
X0027375Y0048067D02*
X0043922Y0048067D01*
X0043922Y0046098D02*
X0027375Y0046098D01*
X0027375Y0044130D02*
X0043922Y0044130D01*
X0043922Y0042161D02*
X0027375Y0042161D01*
X0027375Y0040193D02*
X0043922Y0040193D01*
X0043922Y0038224D02*
X0027375Y0038224D01*
X0027375Y0036256D02*
X0043922Y0036256D01*
X0043922Y0034287D02*
X0027375Y0034287D01*
X0027375Y0032319D02*
X0043922Y0032319D01*
X0043922Y0030350D02*
X0027375Y0030350D01*
X0027375Y0028382D02*
X0043922Y0028382D01*
X0043922Y0026413D02*
X0027375Y0026413D01*
X0027375Y0024445D02*
X0043922Y0024445D01*
X0043922Y0022476D02*
X0027375Y0022476D01*
X0027375Y0020508D02*
X0043922Y0020508D01*
X0044438Y0018916D02*
X0044438Y0013287D01*
X0046406Y0013287D02*
X0046406Y0016948D01*
X0046784Y0016570D02*
X0027375Y0016570D01*
X0027375Y0014602D02*
X0048752Y0014602D01*
X0048375Y0014979D02*
X0048375Y0013287D01*
X0052312Y0017752D02*
X0052312Y0107920D01*
X0054280Y0107920D02*
X0054280Y0015783D01*
X0053493Y0016570D02*
X0057077Y0016570D01*
X0057720Y0018539D02*
X0051524Y0018539D01*
X0055461Y0014602D02*
X0056274Y0014602D01*
X0060729Y0019625D02*
X0061449Y0018905D01*
X0060729Y0019625D02*
X0060729Y0085409D01*
X0069914Y0094594D01*
X0107820Y0094594D01*
X0115603Y0102377D01*
X0150780Y0102377D01*
X0158531Y0094626D01*
X0163334Y0094626D01*
X0164415Y0098649D02*
X0156490Y0098649D01*
X0151326Y0103813D01*
X0149978Y0100800D02*
X0116081Y0100783D01*
X0108318Y0093061D01*
X0070807Y0093186D01*
X0062386Y0084766D01*
X0062386Y0026363D01*
X0065400Y0023350D01*
X0065400Y0014730D01*
X0067738Y0014602D02*
X0086281Y0014602D01*
X0086281Y0013339D02*
X0086281Y0013339D01*
X0086281Y0013339D01*
X0085776Y0013300D02*
X0085776Y0047175D01*
X0083808Y0047175D02*
X0083808Y0013300D01*
X0081839Y0013300D02*
X0081839Y0047175D01*
X0079871Y0047175D02*
X0079871Y0013300D01*
X0077902Y0013300D02*
X0077902Y0047175D01*
X0075934Y0047175D02*
X0075934Y0013300D01*
X0073965Y0013300D02*
X0073965Y0047175D01*
X0072118Y0048067D02*
X0063774Y0048067D01*
X0063774Y0050035D02*
X0070149Y0050035D01*
X0070028Y0050156D02*
X0070028Y0013300D01*
X0068060Y0013300D02*
X0068060Y0052125D01*
X0068181Y0052004D02*
X0063774Y0052004D01*
X0063774Y0053972D02*
X0066212Y0053972D01*
X0066091Y0054093D02*
X0066091Y0024620D01*
X0066267Y0024445D02*
X0086281Y0024445D01*
X0086281Y0026413D02*
X0064298Y0026413D01*
X0064123Y0026588D02*
X0064123Y0056062D01*
X0064244Y0055941D02*
X0063774Y0055941D01*
X0066091Y0058017D02*
X0066091Y0084142D01*
X0065496Y0083500D02*
X0106517Y0083500D01*
X0106535Y0085468D02*
X0067417Y0085468D01*
X0068060Y0086111D02*
X0068060Y0073493D01*
X0068456Y0073657D02*
X0065496Y0073657D01*
X0065496Y0071689D02*
X0066758Y0071689D01*
X0067305Y0069720D02*
X0065496Y0069720D01*
X0065496Y0067752D02*
X0108985Y0067752D01*
X0108985Y0069720D02*
X0071177Y0069720D01*
X0071997Y0069756D02*
X0071997Y0052112D01*
X0072105Y0052004D02*
X0091407Y0052004D01*
X0091682Y0052279D02*
X0091682Y0069756D01*
X0093650Y0069756D02*
X0093650Y0054247D01*
X0093375Y0053972D02*
X0070137Y0053972D01*
X0070028Y0054080D02*
X0070028Y0068934D01*
X0068060Y0069097D02*
X0068060Y0056049D01*
X0068168Y0055941D02*
X0095344Y0055941D01*
X0095619Y0056216D02*
X0095619Y0069756D01*
X0097587Y0069756D02*
X0097587Y0058184D01*
X0097312Y0057909D02*
X0066200Y0057909D01*
X0065496Y0059878D02*
X0099281Y0059878D01*
X0099556Y0060078D02*
X0099556Y0069756D01*
X0101524Y0069756D02*
X0101524Y0060078D01*
X0103493Y0060078D02*
X0103493Y0069756D01*
X0104368Y0071144D02*
X0069252Y0071144D01*
X0070028Y0073656D02*
X0070028Y0088079D01*
X0069386Y0087437D02*
X0108436Y0087437D01*
X0108451Y0087452D02*
X0108451Y0087452D01*
X0109398Y0088327D02*
X0109398Y0089996D01*
X0107430Y0089996D02*
X0107430Y0086431D01*
X0107410Y0086411D02*
X0107410Y0086411D01*
X0105461Y0089996D02*
X0105461Y0074199D01*
X0104920Y0073657D02*
X0070026Y0073657D01*
X0065496Y0075626D02*
X0106888Y0075626D01*
X0107002Y0077594D02*
X0065496Y0077594D01*
X0065496Y0079563D02*
X0106507Y0079563D01*
X0107430Y0079097D02*
X0107430Y0078770D01*
X0105571Y0081531D02*
X0065496Y0081531D01*
X0066091Y0095032D02*
X0066091Y0110651D01*
X0066499Y0111059D02*
X0069908Y0111059D01*
X0070028Y0111843D02*
X0070028Y0114588D01*
X0070436Y0114996D02*
X0079230Y0114996D01*
X0079871Y0114355D02*
X0079871Y0105538D01*
X0080256Y0105153D02*
X0089072Y0105153D01*
X0089713Y0105095D02*
X0089713Y0104365D01*
X0087745Y0104365D02*
X0087745Y0106481D01*
X0087104Y0107122D02*
X0078287Y0107122D01*
X0077902Y0107506D02*
X0077902Y0116323D01*
X0077261Y0116964D02*
X0072404Y0116964D01*
X0071997Y0116557D02*
X0071997Y0113541D01*
X0070848Y0113027D02*
X0068467Y0113027D01*
X0068060Y0112620D02*
X0068060Y0097000D01*
X0068339Y0097279D02*
X0048544Y0097279D01*
X0048544Y0095311D02*
X0066370Y0095311D01*
X0070028Y0097673D02*
X0070028Y0110274D01*
X0072425Y0111022D02*
X0080469Y0102978D01*
X0100099Y0102978D01*
X0102434Y0100642D01*
X0103493Y0098624D02*
X0103493Y0097673D01*
X0104248Y0099248D02*
X0108153Y0099248D01*
X0107430Y0098525D02*
X0107430Y0105095D01*
X0109398Y0105095D02*
X0109398Y0100493D01*
X0110121Y0101216D02*
X0104795Y0101216D01*
X0103493Y0103020D02*
X0103493Y0105095D01*
X0103097Y0103185D02*
X0112090Y0103185D01*
X0111367Y0102462D02*
X0111367Y0105095D01*
X0113335Y0105095D02*
X0113335Y0104430D01*
X0110867Y0108651D02*
X0150677Y0108651D01*
X0149905Y0109871D02*
X0111567Y0109871D01*
X0101766Y0119672D01*
X0099556Y0120616D02*
X0099556Y0122230D01*
X0100436Y0121752D02*
X0099737Y0121053D01*
X0099359Y0120141D01*
X0099359Y0119153D01*
X0099737Y0118241D01*
X0100436Y0117542D01*
X0101348Y0117164D01*
X0102312Y0117164D01*
X0110765Y0108711D01*
X0090793Y0108710D01*
X0079215Y0120234D01*
X0078752Y0120697D01*
X0078750Y0120697D01*
X0078748Y0120699D01*
X0078088Y0120697D01*
X0075903Y0120697D01*
X0077436Y0122230D01*
X0109211Y0122230D01*
X0111654Y0119787D01*
X0111654Y0119010D01*
X0112031Y0118098D01*
X0112730Y0117399D01*
X0113642Y0117021D01*
X0114419Y0117021D01*
X0120182Y0111259D01*
X0112142Y0111259D01*
X0104302Y0119098D01*
X0104325Y0119153D01*
X0104325Y0120141D01*
X0103947Y0121053D01*
X0103248Y0121752D01*
X0102336Y0122130D01*
X0101348Y0122130D01*
X0100436Y0121752D01*
X0099674Y0120901D02*
X0076107Y0120901D01*
X0075934Y0120728D02*
X0075934Y0120697D01*
X0077902Y0120697D02*
X0077902Y0122230D01*
X0079871Y0122230D02*
X0079871Y0119581D01*
X0080522Y0118933D02*
X0099451Y0118933D01*
X0099556Y0118679D02*
X0099556Y0108710D01*
X0101524Y0108711D02*
X0101524Y0117164D01*
X0102512Y0116964D02*
X0082500Y0116964D01*
X0081839Y0117622D02*
X0081839Y0122230D01*
X0083808Y0122230D02*
X0083808Y0115662D01*
X0084478Y0114996D02*
X0104480Y0114996D01*
X0105461Y0114015D02*
X0105461Y0108711D01*
X0103493Y0108711D02*
X0103493Y0115983D01*
X0105461Y0117939D02*
X0105461Y0122230D01*
X0104010Y0120901D02*
X0110539Y0120901D01*
X0111367Y0120073D02*
X0111367Y0112033D01*
X0110373Y0113027D02*
X0118413Y0113027D01*
X0119241Y0112199D02*
X0119241Y0111259D01*
X0117272Y0111259D02*
X0117272Y0114168D01*
X0116445Y0114996D02*
X0108405Y0114996D01*
X0107430Y0115970D02*
X0107430Y0122230D01*
X0109398Y0122042D02*
X0109398Y0114002D01*
X0107430Y0112046D02*
X0107430Y0108711D01*
X0109398Y0108711D02*
X0109398Y0110078D01*
X0108417Y0111059D02*
X0088433Y0111059D01*
X0087745Y0111743D02*
X0087745Y0122230D01*
X0089713Y0122230D02*
X0089713Y0109784D01*
X0090410Y0109090D02*
X0110386Y0109090D01*
X0113335Y0111259D02*
X0113335Y0117148D01*
X0114476Y0116964D02*
X0106436Y0116964D01*
X0104468Y0118933D02*
X0111686Y0118933D01*
X0115304Y0116136D02*
X0115304Y0111259D01*
X0106449Y0113027D02*
X0086455Y0113027D01*
X0085776Y0113703D02*
X0085776Y0122230D01*
X0091682Y0122230D02*
X0091682Y0108710D01*
X0093650Y0108710D02*
X0093650Y0122230D01*
X0095619Y0122230D02*
X0095619Y0108710D01*
X0097587Y0108710D02*
X0097587Y0122230D01*
X0101524Y0122230D02*
X0101524Y0122130D01*
X0103493Y0122230D02*
X0103493Y0121507D01*
X0106274Y0131506D02*
X0104674Y0133106D01*
X0091034Y0133106D01*
X0089366Y0134768D01*
X0089366Y0136632D01*
X0087351Y0138618D01*
X0065304Y0138618D01*
X0063729Y0140193D01*
X0063729Y0142555D01*
X0073517Y0157072D02*
X0067464Y0163125D01*
X0038855Y0163125D01*
X0032643Y0156913D01*
X0032643Y0133597D01*
X0040471Y0125770D01*
X0115008Y0125770D01*
X0125286Y0115492D01*
X0139888Y0115492D01*
X0136616Y0120506D02*
X0127852Y0120506D01*
X0118304Y0130054D01*
X0043317Y0130054D01*
X0037485Y0135886D01*
X0037485Y0154189D01*
X0040872Y0157576D01*
X0050601Y0157576D01*
X0027508Y0136649D02*
X0027375Y0136649D01*
X0028690Y0135467D02*
X0028690Y0013287D01*
X0030658Y0013287D02*
X0030658Y0133499D01*
X0031445Y0132712D02*
X0027375Y0132712D01*
X0027375Y0130744D02*
X0033413Y0130744D01*
X0032627Y0131530D02*
X0032627Y0013287D01*
X0034595Y0013287D02*
X0034595Y0129562D01*
X0035382Y0128775D02*
X0027375Y0128775D01*
X0027375Y0126807D02*
X0037350Y0126807D01*
X0036564Y0127593D02*
X0036564Y0013287D01*
X0038532Y0013287D02*
X0038532Y0125625D01*
X0039319Y0124838D02*
X0027375Y0124838D01*
X0027375Y0122870D02*
X0073568Y0122870D01*
X0073965Y0123267D02*
X0073965Y0124382D01*
X0071997Y0124382D02*
X0071997Y0121298D01*
X0071600Y0120901D02*
X0027375Y0120901D01*
X0027375Y0118933D02*
X0069631Y0118933D01*
X0070028Y0119330D02*
X0070028Y0124382D01*
X0068060Y0124382D02*
X0068060Y0117361D01*
X0067663Y0116964D02*
X0027375Y0116964D01*
X0027375Y0114996D02*
X0065694Y0114996D01*
X0066091Y0115393D02*
X0066091Y0124382D01*
X0064123Y0124382D02*
X0064123Y0113424D01*
X0063726Y0113027D02*
X0027375Y0113027D01*
X0027375Y0111059D02*
X0043922Y0111059D01*
X0044438Y0112239D02*
X0044438Y0124382D01*
X0046406Y0124382D02*
X0046406Y0112239D01*
X0048375Y0112239D02*
X0048375Y0124382D01*
X0050343Y0124382D02*
X0050343Y0112544D01*
X0052312Y0112239D02*
X0052312Y0124382D01*
X0054280Y0124382D02*
X0054280Y0112239D01*
X0056249Y0112239D02*
X0056249Y0124382D01*
X0058217Y0124382D02*
X0058217Y0112239D01*
X0060186Y0112239D02*
X0060186Y0124382D01*
X0062154Y0124382D02*
X0062154Y0112239D01*
X0073933Y0113027D02*
X0081198Y0113027D01*
X0081839Y0112386D02*
X0081839Y0104365D01*
X0083808Y0104365D02*
X0083808Y0110418D01*
X0083167Y0111059D02*
X0074873Y0111059D01*
X0075934Y0109475D02*
X0075934Y0117358D01*
X0073965Y0117358D02*
X0073965Y0112995D01*
X0076319Y0109090D02*
X0085135Y0109090D01*
X0085776Y0108449D02*
X0085776Y0104365D01*
X0085776Y0101590D02*
X0085776Y0097673D01*
X0083808Y0097673D02*
X0083808Y0101590D01*
X0081839Y0101590D02*
X0081839Y0097673D01*
X0079871Y0097673D02*
X0079871Y0101614D01*
X0078300Y0103185D02*
X0048544Y0103185D01*
X0048544Y0105153D02*
X0076332Y0105153D01*
X0075934Y0105551D02*
X0075934Y0097673D01*
X0077902Y0097673D02*
X0077902Y0103582D01*
X0087745Y0101590D02*
X0087745Y0097673D01*
X0089713Y0097673D02*
X0089713Y0101590D01*
X0091682Y0101590D02*
X0091682Y0097673D01*
X0093650Y0097673D02*
X0093650Y0101590D01*
X0095619Y0101590D02*
X0095619Y0097673D01*
X0097587Y0097673D02*
X0097587Y0101590D01*
X0099556Y0101558D02*
X0099556Y0097673D01*
X0100376Y0099248D02*
X0048544Y0099248D01*
X0048544Y0101216D02*
X0099829Y0101216D01*
X0101524Y0103514D02*
X0101524Y0105095D01*
X0099556Y0105095D02*
X0099556Y0104365D01*
X0097587Y0104365D02*
X0097587Y0105095D01*
X0095619Y0105095D02*
X0095619Y0104365D01*
X0093650Y0104365D02*
X0093650Y0105095D01*
X0091682Y0105095D02*
X0091682Y0104365D01*
X0101524Y0098461D02*
X0101524Y0097673D01*
X0105461Y0097673D02*
X0105461Y0105095D01*
X0117272Y0092051D02*
X0117272Y0088327D01*
X0115304Y0088327D02*
X0115304Y0090082D01*
X0116595Y0091374D02*
X0120207Y0091374D01*
X0119241Y0091985D02*
X0119241Y0088327D01*
X0123178Y0089508D02*
X0123178Y0092482D01*
X0123490Y0093342D02*
X0147764Y0093342D01*
X0147362Y0095706D02*
X0123109Y0095706D01*
X0121007Y0093605D01*
X0123690Y0089405D02*
X0151701Y0089405D01*
X0150737Y0090369D02*
X0150737Y0077071D01*
X0150737Y0072079D02*
X0150737Y0063539D01*
X0150737Y0072079D01*
X0148769Y0072079D02*
X0148769Y0063539D01*
X0148769Y0072079D01*
X0146800Y0072079D02*
X0146800Y0063539D01*
X0146800Y0072079D01*
X0144832Y0072079D02*
X0144832Y0062152D01*
X0144832Y0072079D01*
X0142863Y0072079D02*
X0142863Y0067534D01*
X0142863Y0072079D01*
X0141305Y0075684D02*
X0161076Y0075684D01*
X0159160Y0073467D02*
X0162921Y0069706D01*
X0160945Y0069720D02*
X0136006Y0069720D01*
X0160945Y0069720D01*
X0160580Y0070085D02*
X0160580Y0063539D01*
X0160580Y0070085D01*
X0158976Y0071689D02*
X0133644Y0071689D01*
X0158976Y0071689D01*
X0158611Y0072054D02*
X0158611Y0063539D01*
X0158611Y0072054D01*
X0159160Y0073467D02*
X0138061Y0073467D01*
X0133152Y0078376D01*
X0133021Y0075899D02*
X0133021Y0074806D01*
X0133021Y0075899D01*
X0133940Y0075626D02*
X0130727Y0075626D01*
X0133940Y0075626D01*
X0134989Y0074577D02*
X0134989Y0070737D01*
X0134989Y0074577D01*
X0135909Y0073657D02*
X0133807Y0073657D01*
X0135909Y0073657D01*
X0133021Y0070933D02*
X0133021Y0070900D01*
X0133021Y0070933D01*
X0131610Y0069720D02*
X0126421Y0069720D01*
X0126421Y0071689D02*
X0129248Y0071689D01*
X0129084Y0072085D02*
X0129084Y0067007D01*
X0131052Y0067765D02*
X0131052Y0070387D01*
X0131500Y0072890D02*
X0128991Y0075399D01*
X0128991Y0079675D01*
X0131158Y0081841D01*
X0135148Y0081841D01*
X0136973Y0080017D01*
X0136916Y0080074D01*
X0141305Y0075684D01*
X0138360Y0080592D02*
X0138360Y0080592D01*
X0134989Y0083228D02*
X0134989Y0094319D01*
X0133021Y0094319D02*
X0133021Y0083228D01*
X0131052Y0083228D02*
X0131052Y0094319D01*
X0129084Y0094319D02*
X0129084Y0081729D01*
X0128886Y0081531D02*
X0126421Y0081531D01*
X0126421Y0079563D02*
X0127604Y0079563D01*
X0127604Y0077594D02*
X0126421Y0077594D01*
X0126421Y0075626D02*
X0127604Y0075626D01*
X0128771Y0073657D02*
X0126421Y0073657D01*
X0131052Y0075352D02*
X0131052Y0076839D01*
X0131052Y0075352D01*
X0130659Y0077594D02*
X0130379Y0077594D01*
X0130659Y0077594D01*
X0142773Y0067752D02*
X0161478Y0067752D01*
X0142773Y0067752D01*
X0142863Y0066341D02*
X0142863Y0061048D01*
X0142863Y0066341D01*
X0142632Y0065783D02*
X0161113Y0065783D01*
X0142632Y0065783D01*
X0140895Y0064455D02*
X0140895Y0061048D01*
X0140895Y0064455D01*
X0138926Y0064924D02*
X0138926Y0061048D01*
X0138926Y0064924D01*
X0137345Y0063815D02*
X0164654Y0063815D01*
X0164493Y0063815D02*
X0137345Y0063815D01*
X0136958Y0063427D02*
X0136958Y0061048D01*
X0136958Y0063427D01*
X0135376Y0061846D02*
X0144526Y0061846D01*
X0135376Y0061846D01*
X0134989Y0061640D02*
X0134989Y0061048D01*
X0134989Y0061640D01*
X0133021Y0061640D02*
X0133021Y0060199D01*
X0133021Y0061640D01*
X0132699Y0059878D02*
X0126321Y0059878D01*
X0132699Y0059878D01*
X0134444Y0059660D02*
X0144302Y0059660D01*
X0146793Y0062151D01*
X0164953Y0062151D01*
X0169311Y0066510D01*
X0169311Y0080939D01*
X0167028Y0083222D01*
X0163189Y0083222D01*
X0164895Y0080454D02*
X0160693Y0080454D01*
X0159251Y0081895D01*
X0159251Y0083817D01*
X0147362Y0095706D01*
X0149978Y0100800D02*
X0160612Y0090176D01*
X0163406Y0090176D01*
X0164895Y0080454D02*
X0166816Y0078533D01*
X0166816Y0067904D01*
X0165135Y0066223D01*
X0163634Y0066223D01*
X0164517Y0064038D02*
X0164517Y0063677D01*
X0162548Y0063539D02*
X0162548Y0064071D01*
X0162548Y0063539D01*
X0156643Y0063539D02*
X0156643Y0072079D01*
X0156643Y0063539D01*
X0154674Y0063539D02*
X0154674Y0072079D01*
X0154674Y0063539D01*
X0152706Y0063539D02*
X0152706Y0072079D01*
X0152706Y0063539D01*
X0134444Y0059660D02*
X0128840Y0054056D01*
X0128840Y0042949D01*
X0127115Y0044885D02*
X0127115Y0060671D01*
X0127115Y0044885D01*
X0127115Y0041012D02*
X0127115Y0035240D01*
X0127115Y0035157D02*
X0127115Y0041012D01*
X0128159Y0039497D02*
X0128159Y0039497D01*
X0129084Y0038224D02*
X0129084Y0035240D01*
X0129084Y0035157D02*
X0129084Y0038224D01*
X0129974Y0036999D02*
X0129974Y0036999D01*
X0129974Y0036999D01*
X0129974Y0036999D01*
X0121251Y0046029D02*
X0121251Y0056769D01*
X0124353Y0057909D02*
X0130731Y0057909D01*
X0124353Y0057909D01*
X0129084Y0056262D02*
X0129084Y0061640D01*
X0129084Y0056262D01*
X0131052Y0058230D02*
X0131052Y0061640D01*
X0131052Y0058230D01*
X0108985Y0059878D02*
X0107068Y0059878D01*
X0107430Y0059516D02*
X0107430Y0072243D01*
X0106875Y0071689D02*
X0108985Y0071689D01*
X0108985Y0073657D02*
X0108844Y0073657D01*
X0105461Y0070275D02*
X0105461Y0060078D01*
X0108985Y0061846D02*
X0065496Y0061846D01*
X0065496Y0063815D02*
X0108985Y0063815D01*
X0108985Y0065783D02*
X0065496Y0065783D01*
X0073965Y0069756D02*
X0073965Y0050143D01*
X0074074Y0050035D02*
X0089438Y0050035D01*
X0089713Y0050310D02*
X0089713Y0069756D01*
X0087745Y0069756D02*
X0087745Y0049950D01*
X0085776Y0049950D02*
X0085776Y0069756D01*
X0083808Y0069756D02*
X0083808Y0049950D01*
X0081839Y0049950D02*
X0081839Y0069756D01*
X0079871Y0069756D02*
X0079871Y0049950D01*
X0077902Y0049950D02*
X0077902Y0069756D01*
X0075934Y0069756D02*
X0075934Y0049950D01*
X0071997Y0048188D02*
X0071997Y0013300D01*
X0067050Y0016570D02*
X0086281Y0016570D01*
X0086281Y0018539D02*
X0066787Y0018539D01*
X0066787Y0020508D02*
X0086281Y0020508D01*
X0086281Y0022476D02*
X0066787Y0022476D01*
X0063774Y0036256D02*
X0106843Y0036256D01*
X0106843Y0038224D02*
X0063774Y0038224D01*
X0063774Y0040193D02*
X0106843Y0040193D01*
X0106843Y0042161D02*
X0063774Y0042161D01*
X0063774Y0044130D02*
X0106843Y0044130D01*
X0106843Y0046098D02*
X0063774Y0046098D01*
X0087745Y0047175D02*
X0087745Y0027280D01*
X0089713Y0027280D02*
X0089713Y0047175D01*
X0091394Y0048067D02*
X0106843Y0048067D01*
X0106843Y0050035D02*
X0093362Y0050035D01*
X0093650Y0050323D02*
X0093650Y0027280D01*
X0091682Y0027280D02*
X0091682Y0048355D01*
X0095331Y0052004D02*
X0106843Y0052004D01*
X0106843Y0053972D02*
X0097299Y0053972D01*
X0097587Y0054260D02*
X0097587Y0027280D01*
X0095619Y0027280D02*
X0095619Y0052292D01*
X0111367Y0088327D02*
X0111367Y0089996D01*
X0136616Y0120506D02*
X0143281Y0127172D01*
X0143221Y0127172D02*
X0143221Y0120927D01*
X0144062Y0120086D01*
X0150951Y0118374D02*
X0150951Y0131799D01*
X0149048Y0133702D01*
X0111593Y0133702D01*
X0110823Y0133684D01*
X0119385Y0142246D01*
X0119385Y0157038D01*
X0116271Y0160152D01*
X0098543Y0160152D01*
X0095256Y0156865D01*
X0087819Y0162833D02*
X0118952Y0162833D01*
X0124141Y0157644D01*
X0124141Y0139738D01*
X0121287Y0136884D01*
X0121893Y0136279D01*
X0159858Y0136279D01*
X0160896Y0135241D01*
X0155887Y0127526D02*
X0155887Y0115853D01*
X0149905Y0109871D01*
X0130345Y0122968D02*
X0127769Y0122968D01*
X0119231Y0131506D01*
X0106274Y0131506D01*
X0101483Y0136192D02*
X0103121Y0137830D01*
X0110125Y0137830D01*
X0116790Y0144496D01*
X0116790Y0155135D01*
X0114455Y0157470D01*
X0106499Y0157470D01*
X0087819Y0162833D02*
X0083668Y0158681D01*
X0083668Y0156951D01*
X0042469Y0124382D02*
X0042469Y0013287D01*
X0040501Y0013287D02*
X0040501Y0124382D01*
X0029476Y0134681D02*
X0027375Y0134681D01*
X0027375Y0109090D02*
X0043922Y0109090D01*
X0043922Y0107122D02*
X0027375Y0107122D01*
X0027375Y0105153D02*
X0043922Y0105153D01*
X0043922Y0103185D02*
X0027375Y0103185D01*
X0027375Y0101216D02*
X0043922Y0101216D01*
X0043922Y0099248D02*
X0027375Y0099248D01*
X0027375Y0097279D02*
X0043922Y0097279D01*
X0043922Y0095311D02*
X0027375Y0095311D01*
X0027375Y0093342D02*
X0043922Y0093342D01*
X0043922Y0091374D02*
X0027375Y0091374D01*
X0027375Y0089405D02*
X0043922Y0089405D01*
X0043922Y0087437D02*
X0027375Y0087437D01*
X0027375Y0018539D02*
X0044815Y0018539D01*
D18*
X0051257Y0011834D02*
X0025774Y0011834D01*
X0025774Y0136269D01*
D19*
X0027194Y0136269D01*
X0039439Y0124025D01*
X0074028Y0124025D01*
D20*
X0112179Y0026454D02*
X0112132Y0011652D01*
X0122122Y0011382D02*
X0122169Y0025374D01*
D21*
X0122128Y0040882D02*
X0118598Y0044412D01*
X0118598Y0049092D01*
X0119501Y0049995D01*
X0119501Y0057878D01*
X0127136Y0065513D01*
X0130913Y0065513D01*
X0133786Y0068387D01*
X0129374Y0065486D02*
X0127869Y0065486D01*
X0124927Y0068428D01*
X0124927Y0084986D01*
X0123080Y0086833D01*
X0109945Y0086833D01*
X0108029Y0084918D01*
X0108029Y0081428D01*
D22*
X0090219Y0107116D02*
X0150818Y0107122D01*
X0153238Y0104875D01*
X0154961Y0104910D01*
X0156818Y0104929D01*
X0143201Y0114153D02*
X0143201Y0116609D01*
X0141150Y0118660D01*
X0126007Y0118660D01*
X0116601Y0128066D01*
X0041715Y0128066D01*
X0035191Y0134590D01*
X0035191Y0155824D01*
X0040124Y0160757D01*
X0059106Y0160757D01*
X0062993Y0156869D01*
X0076776Y0123823D02*
X0109871Y0123823D01*
X0121848Y0111846D01*
X0140895Y0111846D01*
X0143201Y0114153D01*
X0165047Y0123477D02*
X0166603Y0123477D01*
X0169977Y0126851D01*
X0090147Y0107128D02*
X0090105Y0107145D01*
X0078092Y0119103D01*
X0072100Y0119103D01*
X0076776Y0123823D02*
X0063057Y0110105D01*
X0046280Y0110105D01*
X0046280Y0020070D01*
X0054644Y0011706D01*
X0105803Y0011706D01*
X0107153Y0013056D01*
D23*
X0101444Y0013916D02*
X0087674Y0013916D01*
X0087674Y0014906D01*
X0087674Y0025886D01*
X0101444Y0025886D01*
X0101444Y0013916D01*
M02*
