G75*
%MOIN*%
%OFA0B0*%
%FSLAX25Y25*%
%IPPOS*%
%LPD*%
%AMOC8*
5,1,8,0,0,1.08239X$1,22.5*
%
%ADD10C,0.00394*%
%ADD11R,0.01430X0.07041*%
%ADD12R,0.07041X0.01430*%
%ADD13R,0.01181X0.06443*%
%ADD14R,0.03500X0.03100*%
%ADD15R,0.04016X0.05512*%
%ADD16R,0.03100X0.03500*%
%ADD17R,0.06693X0.04134*%
%ADD18R,0.05906X0.02756*%
%ADD19C,0.00000*%
D10*
X0022784Y0008696D02*
X0160949Y0008696D01*
X0160949Y0038821D01*
X0136952Y0038821D01*
X0136810Y0038823D01*
X0136668Y0038829D01*
X0136526Y0038839D01*
X0136385Y0038852D01*
X0136244Y0038870D01*
X0136103Y0038891D01*
X0135963Y0038917D01*
X0135824Y0038946D01*
X0135686Y0038979D01*
X0135549Y0039016D01*
X0135413Y0039056D01*
X0135278Y0039100D01*
X0135144Y0039148D01*
X0135011Y0039200D01*
X0134880Y0039255D01*
X0134751Y0039314D01*
X0134623Y0039377D01*
X0134498Y0039443D01*
X0134373Y0039512D01*
X0134251Y0039585D01*
X0134131Y0039661D01*
X0134013Y0039740D01*
X0133898Y0039823D01*
X0133785Y0039908D01*
X0133674Y0039997D01*
X0133565Y0040089D01*
X0133459Y0040184D01*
X0133356Y0040282D01*
X0133256Y0040382D01*
X0133158Y0040485D01*
X0133063Y0040591D01*
X0132971Y0040700D01*
X0132882Y0040811D01*
X0132797Y0040924D01*
X0132714Y0041039D01*
X0132635Y0041157D01*
X0132559Y0041277D01*
X0132486Y0041400D01*
X0132417Y0041524D01*
X0132351Y0041649D01*
X0132288Y0041777D01*
X0132229Y0041906D01*
X0132174Y0042037D01*
X0132122Y0042170D01*
X0132074Y0042304D01*
X0132030Y0042439D01*
X0131990Y0042575D01*
X0131953Y0042712D01*
X0131920Y0042850D01*
X0131891Y0042989D01*
X0131865Y0043129D01*
X0131844Y0043270D01*
X0131826Y0043411D01*
X0131813Y0043552D01*
X0131803Y0043694D01*
X0131797Y0043836D01*
X0131795Y0043978D01*
X0131795Y0048540D01*
X0131797Y0048694D01*
X0131803Y0048848D01*
X0131813Y0049001D01*
X0131827Y0049154D01*
X0131844Y0049307D01*
X0131866Y0049459D01*
X0131892Y0049611D01*
X0131921Y0049762D01*
X0131955Y0049912D01*
X0131992Y0050062D01*
X0132033Y0050210D01*
X0132078Y0050357D01*
X0132127Y0050503D01*
X0132179Y0050648D01*
X0132235Y0050791D01*
X0132295Y0050933D01*
X0132358Y0051073D01*
X0132425Y0051211D01*
X0132496Y0051348D01*
X0132570Y0051483D01*
X0132648Y0051616D01*
X0132728Y0051747D01*
X0132813Y0051876D01*
X0132900Y0052002D01*
X0132991Y0052126D01*
X0133085Y0052248D01*
X0133182Y0052368D01*
X0133282Y0052484D01*
X0133385Y0052599D01*
X0133491Y0052710D01*
X0133600Y0052819D01*
X0133711Y0052925D01*
X0133826Y0053028D01*
X0133942Y0053128D01*
X0134062Y0053225D01*
X0134184Y0053319D01*
X0134308Y0053410D01*
X0134434Y0053497D01*
X0134563Y0053582D01*
X0134694Y0053662D01*
X0134827Y0053740D01*
X0134962Y0053814D01*
X0135099Y0053885D01*
X0135237Y0053952D01*
X0135377Y0054015D01*
X0135519Y0054075D01*
X0135662Y0054131D01*
X0135807Y0054183D01*
X0135953Y0054232D01*
X0136100Y0054277D01*
X0136248Y0054318D01*
X0136398Y0054355D01*
X0136548Y0054389D01*
X0136699Y0054418D01*
X0136851Y0054444D01*
X0137003Y0054466D01*
X0137156Y0054483D01*
X0137309Y0054497D01*
X0137462Y0054507D01*
X0137616Y0054513D01*
X0137770Y0054515D01*
X0137770Y0054516D02*
X0175455Y0054516D01*
X0175455Y0138091D01*
X0143886Y0138091D01*
X0143738Y0138093D01*
X0143590Y0138099D01*
X0143443Y0138108D01*
X0143296Y0138122D01*
X0143149Y0138139D01*
X0143002Y0138161D01*
X0142857Y0138186D01*
X0142712Y0138214D01*
X0142568Y0138247D01*
X0142424Y0138283D01*
X0142282Y0138324D01*
X0142141Y0138367D01*
X0142001Y0138415D01*
X0141862Y0138466D01*
X0141725Y0138521D01*
X0141589Y0138579D01*
X0141454Y0138641D01*
X0141322Y0138707D01*
X0141191Y0138775D01*
X0141062Y0138848D01*
X0140935Y0138923D01*
X0140810Y0139002D01*
X0140687Y0139084D01*
X0140566Y0139170D01*
X0140448Y0139258D01*
X0140332Y0139350D01*
X0140218Y0139444D01*
X0140107Y0139542D01*
X0139998Y0139642D01*
X0139892Y0139745D01*
X0139789Y0139851D01*
X0139689Y0139960D01*
X0139591Y0140071D01*
X0139497Y0140185D01*
X0139405Y0140301D01*
X0139317Y0140419D01*
X0139231Y0140540D01*
X0139149Y0140663D01*
X0139070Y0140788D01*
X0138995Y0140915D01*
X0138922Y0141044D01*
X0138854Y0141175D01*
X0138788Y0141307D01*
X0138726Y0141442D01*
X0138668Y0141578D01*
X0138613Y0141715D01*
X0138562Y0141854D01*
X0138514Y0141994D01*
X0138471Y0142135D01*
X0138430Y0142277D01*
X0138394Y0142421D01*
X0138361Y0142565D01*
X0138333Y0142710D01*
X0138308Y0142855D01*
X0138286Y0143002D01*
X0138269Y0143149D01*
X0138255Y0143296D01*
X0138246Y0143443D01*
X0138240Y0143591D01*
X0138238Y0143739D01*
X0138239Y0143739D02*
X0138239Y0165285D01*
X0022784Y0165285D01*
X0022784Y0008696D01*
X0045436Y0131992D02*
X0082738Y0131992D01*
X0082818Y0131994D01*
X0082897Y0132000D01*
X0082977Y0132009D01*
X0083055Y0132022D01*
X0083133Y0132039D01*
X0083210Y0132060D01*
X0083286Y0132084D01*
X0083361Y0132112D01*
X0083435Y0132144D01*
X0083506Y0132178D01*
X0083577Y0132217D01*
X0083645Y0132258D01*
X0083711Y0132303D01*
X0083775Y0132351D01*
X0083836Y0132402D01*
X0083895Y0132455D01*
X0083952Y0132512D01*
X0084005Y0132571D01*
X0084056Y0132632D01*
X0084104Y0132696D01*
X0084149Y0132762D01*
X0084190Y0132831D01*
X0084229Y0132901D01*
X0084263Y0132972D01*
X0084295Y0133046D01*
X0084323Y0133121D01*
X0084347Y0133197D01*
X0084368Y0133274D01*
X0084385Y0133352D01*
X0084398Y0133430D01*
X0084407Y0133510D01*
X0084413Y0133589D01*
X0084415Y0133669D01*
X0084413Y0133755D01*
X0084407Y0133841D01*
X0084398Y0133927D01*
X0084385Y0134013D01*
X0084368Y0134097D01*
X0084348Y0134181D01*
X0084323Y0134264D01*
X0084296Y0134346D01*
X0084264Y0134426D01*
X0084230Y0134505D01*
X0084191Y0134583D01*
X0084150Y0134659D01*
X0084105Y0134732D01*
X0084057Y0134804D01*
X0084006Y0134874D01*
X0083952Y0134941D01*
X0083895Y0135006D01*
X0083835Y0135068D01*
X0083773Y0135128D01*
X0083708Y0135185D01*
X0083641Y0135239D01*
X0083571Y0135290D01*
X0083499Y0135338D01*
X0083426Y0135383D01*
X0083350Y0135424D01*
X0083272Y0135463D01*
X0083193Y0135497D01*
X0083113Y0135529D01*
X0083031Y0135556D01*
X0082948Y0135581D01*
X0082864Y0135601D01*
X0082780Y0135618D01*
X0082694Y0135631D01*
X0082608Y0135640D01*
X0082522Y0135646D01*
X0082436Y0135648D01*
X0081529Y0135648D01*
X0081529Y0135647D01*
X0081528Y0135646D01*
X0081527Y0135646D01*
X0045655Y0135646D01*
X0045656Y0135646D02*
X0045573Y0135644D01*
X0045491Y0135638D01*
X0045409Y0135629D01*
X0045328Y0135616D01*
X0045247Y0135599D01*
X0045167Y0135578D01*
X0045088Y0135554D01*
X0045011Y0135526D01*
X0044934Y0135494D01*
X0044860Y0135459D01*
X0044787Y0135421D01*
X0044715Y0135379D01*
X0044646Y0135334D01*
X0044579Y0135286D01*
X0044515Y0135235D01*
X0044452Y0135180D01*
X0044393Y0135123D01*
X0044336Y0135064D01*
X0044281Y0135002D01*
X0044230Y0134937D01*
X0044182Y0134870D01*
X0044137Y0134801D01*
X0044095Y0134730D01*
X0044057Y0134657D01*
X0044022Y0134582D01*
X0043990Y0134506D01*
X0043962Y0134428D01*
X0043937Y0134350D01*
X0043917Y0134270D01*
X0043900Y0134189D01*
X0043886Y0134108D01*
X0043877Y0134026D01*
X0043871Y0133943D01*
X0043869Y0133861D01*
X0043869Y0133559D01*
X0043871Y0133482D01*
X0043877Y0133405D01*
X0043886Y0133329D01*
X0043899Y0133253D01*
X0043916Y0133178D01*
X0043936Y0133104D01*
X0043961Y0133031D01*
X0043988Y0132959D01*
X0044019Y0132889D01*
X0044054Y0132820D01*
X0044092Y0132753D01*
X0044133Y0132688D01*
X0044177Y0132626D01*
X0044225Y0132565D01*
X0044275Y0132507D01*
X0044328Y0132451D01*
X0044384Y0132398D01*
X0044442Y0132348D01*
X0044503Y0132300D01*
X0044565Y0132256D01*
X0044630Y0132215D01*
X0044697Y0132177D01*
X0044766Y0132142D01*
X0044836Y0132111D01*
X0044908Y0132084D01*
X0044981Y0132059D01*
X0045055Y0132039D01*
X0045130Y0132022D01*
X0045206Y0132009D01*
X0045282Y0132000D01*
X0045359Y0131994D01*
X0045436Y0131992D01*
X0048098Y0145156D02*
X0109088Y0145156D01*
X0109089Y0145156D02*
X0109224Y0145159D01*
X0109360Y0145165D01*
X0109495Y0145176D01*
X0109630Y0145190D01*
X0109764Y0145208D01*
X0109898Y0145230D01*
X0110031Y0145257D01*
X0110163Y0145286D01*
X0110294Y0145320D01*
X0110425Y0145358D01*
X0110554Y0145399D01*
X0110682Y0145444D01*
X0110808Y0145493D01*
X0110933Y0145545D01*
X0111057Y0145602D01*
X0111179Y0145661D01*
X0111299Y0145724D01*
X0111417Y0145791D01*
X0111533Y0145861D01*
X0111647Y0145934D01*
X0111759Y0146011D01*
X0111868Y0146091D01*
X0111976Y0146174D01*
X0112080Y0146260D01*
X0112183Y0146349D01*
X0112282Y0146441D01*
X0112379Y0146536D01*
X0112473Y0146634D01*
X0112564Y0146734D01*
X0112652Y0146837D01*
X0112738Y0146943D01*
X0112820Y0147051D01*
X0112899Y0147161D01*
X0112974Y0147273D01*
X0113047Y0147388D01*
X0113116Y0147505D01*
X0113181Y0147623D01*
X0113243Y0147744D01*
X0113302Y0147866D01*
X0113357Y0147990D01*
X0113408Y0148116D01*
X0113456Y0148243D01*
X0113500Y0148371D01*
X0113540Y0148501D01*
X0113576Y0148631D01*
X0113609Y0148763D01*
X0113638Y0148895D01*
X0113663Y0149029D01*
X0113684Y0149163D01*
X0113701Y0149297D01*
X0113714Y0149432D01*
X0113723Y0149567D01*
X0113729Y0149703D01*
X0113730Y0149839D01*
X0113729Y0149838D02*
X0113729Y0150957D01*
X0113727Y0151069D01*
X0113721Y0151180D01*
X0113712Y0151292D01*
X0113699Y0151403D01*
X0113681Y0151513D01*
X0113661Y0151623D01*
X0113636Y0151732D01*
X0113608Y0151840D01*
X0113576Y0151947D01*
X0113540Y0152053D01*
X0113501Y0152158D01*
X0113458Y0152261D01*
X0113412Y0152363D01*
X0113362Y0152463D01*
X0113309Y0152562D01*
X0113252Y0152658D01*
X0113193Y0152753D01*
X0113130Y0152845D01*
X0113064Y0152935D01*
X0112995Y0153023D01*
X0112923Y0153109D01*
X0112848Y0153192D01*
X0112770Y0153272D01*
X0112690Y0153350D01*
X0112607Y0153425D01*
X0112521Y0153497D01*
X0112433Y0153566D01*
X0112343Y0153632D01*
X0112251Y0153695D01*
X0112156Y0153754D01*
X0112060Y0153811D01*
X0111961Y0153864D01*
X0111861Y0153914D01*
X0111759Y0153960D01*
X0111656Y0154003D01*
X0111551Y0154042D01*
X0111445Y0154078D01*
X0111338Y0154110D01*
X0111230Y0154138D01*
X0111121Y0154163D01*
X0111011Y0154183D01*
X0110901Y0154201D01*
X0110790Y0154214D01*
X0110678Y0154223D01*
X0110567Y0154229D01*
X0110455Y0154231D01*
X0110455Y0154230D02*
X0048720Y0154230D01*
X0048592Y0154228D01*
X0048464Y0154222D01*
X0048337Y0154212D01*
X0048210Y0154199D01*
X0048083Y0154181D01*
X0047957Y0154159D01*
X0047831Y0154134D01*
X0047707Y0154105D01*
X0047583Y0154071D01*
X0047461Y0154035D01*
X0047339Y0153994D01*
X0047219Y0153949D01*
X0047101Y0153901D01*
X0046984Y0153850D01*
X0046868Y0153795D01*
X0046755Y0153736D01*
X0046643Y0153673D01*
X0046533Y0153608D01*
X0046425Y0153539D01*
X0046320Y0153466D01*
X0046217Y0153391D01*
X0046116Y0153312D01*
X0046017Y0153231D01*
X0045921Y0153146D01*
X0045828Y0153058D01*
X0045738Y0152968D01*
X0045650Y0152875D01*
X0045565Y0152779D01*
X0045484Y0152680D01*
X0045405Y0152579D01*
X0045330Y0152476D01*
X0045257Y0152371D01*
X0045188Y0152263D01*
X0045123Y0152153D01*
X0045060Y0152041D01*
X0045001Y0151928D01*
X0044946Y0151812D01*
X0044895Y0151695D01*
X0044847Y0151577D01*
X0044802Y0151457D01*
X0044761Y0151335D01*
X0044725Y0151213D01*
X0044691Y0151089D01*
X0044662Y0150965D01*
X0044637Y0150839D01*
X0044615Y0150713D01*
X0044597Y0150586D01*
X0044584Y0150459D01*
X0044574Y0150332D01*
X0044568Y0150204D01*
X0044566Y0150076D01*
X0044566Y0148688D01*
X0044568Y0148570D01*
X0044574Y0148452D01*
X0044584Y0148334D01*
X0044598Y0148217D01*
X0044615Y0148101D01*
X0044637Y0147984D01*
X0044662Y0147869D01*
X0044691Y0147755D01*
X0044725Y0147642D01*
X0044761Y0147529D01*
X0044802Y0147419D01*
X0044846Y0147309D01*
X0044894Y0147201D01*
X0044946Y0147095D01*
X0045001Y0146991D01*
X0045059Y0146888D01*
X0045121Y0146787D01*
X0045186Y0146689D01*
X0045254Y0146593D01*
X0045326Y0146499D01*
X0045401Y0146408D01*
X0045478Y0146319D01*
X0045559Y0146233D01*
X0045643Y0146149D01*
X0045729Y0146068D01*
X0045818Y0145991D01*
X0045909Y0145916D01*
X0046003Y0145844D01*
X0046099Y0145776D01*
X0046197Y0145711D01*
X0046298Y0145649D01*
X0046401Y0145591D01*
X0046505Y0145536D01*
X0046611Y0145484D01*
X0046719Y0145436D01*
X0046829Y0145392D01*
X0046939Y0145351D01*
X0047052Y0145315D01*
X0047165Y0145281D01*
X0047279Y0145252D01*
X0047394Y0145227D01*
X0047511Y0145205D01*
X0047627Y0145188D01*
X0047744Y0145174D01*
X0047862Y0145164D01*
X0047980Y0145158D01*
X0048098Y0145156D01*
D11*
X0086686Y0087639D03*
X0088654Y0087639D03*
X0090623Y0087639D03*
X0092591Y0087639D03*
X0094560Y0087639D03*
X0096528Y0087639D03*
X0098497Y0087639D03*
X0100465Y0087639D03*
X0102434Y0087639D03*
X0104402Y0087639D03*
X0106371Y0087639D03*
X0108339Y0087639D03*
X0110308Y0087639D03*
X0112276Y0087639D03*
X0114245Y0087639D03*
X0116213Y0087639D03*
X0116213Y0042547D03*
X0114245Y0042547D03*
X0112276Y0042547D03*
X0110308Y0042547D03*
X0108339Y0042547D03*
X0106371Y0042547D03*
X0104402Y0042547D03*
X0102434Y0042547D03*
X0100465Y0042547D03*
X0098497Y0042547D03*
X0096528Y0042547D03*
X0094560Y0042547D03*
X0092591Y0042547D03*
X0090623Y0042547D03*
X0088654Y0042547D03*
X0086686Y0042547D03*
D12*
X0078904Y0050329D03*
X0078904Y0052298D03*
X0078904Y0054266D03*
X0078904Y0056235D03*
X0078904Y0058203D03*
X0078904Y0060172D03*
X0078904Y0062140D03*
X0078904Y0064109D03*
X0078904Y0066077D03*
X0078904Y0068046D03*
X0078904Y0070014D03*
X0078904Y0071983D03*
X0078904Y0073951D03*
X0078904Y0075920D03*
X0078904Y0077888D03*
X0078904Y0079857D03*
X0123995Y0079857D03*
X0123995Y0077888D03*
X0123995Y0075920D03*
X0123995Y0073951D03*
X0123995Y0071983D03*
X0123995Y0070014D03*
X0123995Y0068046D03*
X0123995Y0066077D03*
X0123995Y0064109D03*
X0123995Y0062140D03*
X0123995Y0060172D03*
X0123995Y0058203D03*
X0123995Y0056235D03*
X0123995Y0054266D03*
X0123995Y0052298D03*
X0123995Y0050329D03*
D13*
X0072426Y0040963D03*
X0070458Y0040963D03*
X0068489Y0040963D03*
X0066521Y0040963D03*
X0064552Y0040963D03*
X0062584Y0040963D03*
X0060615Y0040963D03*
X0058647Y0040963D03*
X0056678Y0040963D03*
X0054710Y0040963D03*
X0052741Y0040963D03*
X0050773Y0040963D03*
X0048804Y0040963D03*
X0046836Y0040963D03*
X0044867Y0040963D03*
X0042899Y0040963D03*
X0040930Y0040963D03*
X0038962Y0040963D03*
X0036993Y0040963D03*
X0035025Y0040963D03*
X0033056Y0040963D03*
X0031088Y0040963D03*
X0029119Y0040963D03*
X0027151Y0040963D03*
X0027151Y0118438D03*
X0029119Y0118438D03*
X0031088Y0118438D03*
X0033056Y0118438D03*
X0035025Y0118438D03*
X0036993Y0118438D03*
X0038962Y0118438D03*
X0040930Y0118438D03*
X0042899Y0118438D03*
X0044867Y0118438D03*
X0046836Y0118438D03*
X0048804Y0118438D03*
X0050773Y0118438D03*
X0052741Y0118438D03*
X0054710Y0118438D03*
X0056678Y0118438D03*
X0058647Y0118438D03*
X0060615Y0118438D03*
X0062584Y0118438D03*
X0064552Y0118438D03*
X0066521Y0118438D03*
X0068489Y0118438D03*
X0070458Y0118438D03*
X0072426Y0118438D03*
D14*
X0044794Y0022779D03*
X0044794Y0015179D03*
X0037617Y0018979D03*
X0029617Y0022779D03*
X0029617Y0015179D03*
X0052794Y0018979D03*
X0129061Y0015561D03*
X0129061Y0023161D03*
X0137061Y0019361D03*
D15*
X0135817Y0030741D03*
X0143218Y0030741D03*
X0125721Y0034299D03*
X0118320Y0034299D03*
X0118396Y0025115D03*
X0118396Y0018179D03*
X0110995Y0018179D03*
X0110995Y0025115D03*
X0080568Y0023627D03*
X0073166Y0023627D03*
X0066037Y0024978D03*
X0058635Y0024978D03*
X0073166Y0015806D03*
X0080568Y0015806D03*
X0036929Y0031068D03*
X0029527Y0031068D03*
X0109656Y0099671D03*
X0117058Y0099671D03*
X0127244Y0087221D03*
X0134646Y0087221D03*
D16*
X0088222Y0113297D03*
X0080622Y0113297D03*
X0084422Y0121297D03*
D17*
X0087310Y0022483D03*
X0087310Y0016987D03*
X0101834Y0016987D03*
X0101834Y0022483D03*
D18*
X0158446Y0114638D03*
X0158446Y0126449D03*
X0158446Y0132354D03*
D19*
X0163466Y0129512D02*
X0163468Y0129598D01*
X0163474Y0129685D01*
X0163484Y0129770D01*
X0163498Y0129856D01*
X0163516Y0129940D01*
X0163537Y0130024D01*
X0163563Y0130106D01*
X0163592Y0130188D01*
X0163625Y0130267D01*
X0163662Y0130346D01*
X0163702Y0130422D01*
X0163746Y0130496D01*
X0163793Y0130569D01*
X0163844Y0130639D01*
X0163897Y0130707D01*
X0163954Y0130772D01*
X0164014Y0130834D01*
X0164076Y0130894D01*
X0164141Y0130951D01*
X0164209Y0131004D01*
X0164279Y0131055D01*
X0164352Y0131102D01*
X0164426Y0131146D01*
X0164502Y0131186D01*
X0164581Y0131223D01*
X0164660Y0131256D01*
X0164742Y0131285D01*
X0164824Y0131311D01*
X0164908Y0131332D01*
X0164992Y0131350D01*
X0165078Y0131364D01*
X0165163Y0131374D01*
X0165250Y0131380D01*
X0165336Y0131382D01*
X0165422Y0131380D01*
X0165509Y0131374D01*
X0165594Y0131364D01*
X0165680Y0131350D01*
X0165764Y0131332D01*
X0165848Y0131311D01*
X0165930Y0131285D01*
X0166012Y0131256D01*
X0166091Y0131223D01*
X0166170Y0131186D01*
X0166246Y0131146D01*
X0166320Y0131102D01*
X0166393Y0131055D01*
X0166463Y0131004D01*
X0166531Y0130951D01*
X0166596Y0130894D01*
X0166658Y0130834D01*
X0166718Y0130772D01*
X0166775Y0130707D01*
X0166828Y0130639D01*
X0166879Y0130569D01*
X0166926Y0130496D01*
X0166970Y0130422D01*
X0167010Y0130346D01*
X0167047Y0130267D01*
X0167080Y0130188D01*
X0167109Y0130106D01*
X0167135Y0130024D01*
X0167156Y0129940D01*
X0167174Y0129856D01*
X0167188Y0129770D01*
X0167198Y0129685D01*
X0167204Y0129598D01*
X0167206Y0129512D01*
X0167204Y0129426D01*
X0167198Y0129339D01*
X0167188Y0129254D01*
X0167174Y0129168D01*
X0167156Y0129084D01*
X0167135Y0129000D01*
X0167109Y0128918D01*
X0167080Y0128836D01*
X0167047Y0128757D01*
X0167010Y0128678D01*
X0166970Y0128602D01*
X0166926Y0128528D01*
X0166879Y0128455D01*
X0166828Y0128385D01*
X0166775Y0128317D01*
X0166718Y0128252D01*
X0166658Y0128190D01*
X0166596Y0128130D01*
X0166531Y0128073D01*
X0166463Y0128020D01*
X0166393Y0127969D01*
X0166320Y0127922D01*
X0166246Y0127878D01*
X0166170Y0127838D01*
X0166091Y0127801D01*
X0166012Y0127768D01*
X0165930Y0127739D01*
X0165848Y0127713D01*
X0165764Y0127692D01*
X0165680Y0127674D01*
X0165594Y0127660D01*
X0165509Y0127650D01*
X0165422Y0127644D01*
X0165336Y0127642D01*
X0165250Y0127644D01*
X0165163Y0127650D01*
X0165078Y0127660D01*
X0164992Y0127674D01*
X0164908Y0127692D01*
X0164824Y0127713D01*
X0164742Y0127739D01*
X0164660Y0127768D01*
X0164581Y0127801D01*
X0164502Y0127838D01*
X0164426Y0127878D01*
X0164352Y0127922D01*
X0164279Y0127969D01*
X0164209Y0128020D01*
X0164141Y0128073D01*
X0164076Y0128130D01*
X0164014Y0128190D01*
X0163954Y0128252D01*
X0163897Y0128317D01*
X0163844Y0128385D01*
X0163793Y0128455D01*
X0163746Y0128528D01*
X0163702Y0128602D01*
X0163662Y0128678D01*
X0163625Y0128757D01*
X0163592Y0128836D01*
X0163563Y0128918D01*
X0163537Y0129000D01*
X0163516Y0129084D01*
X0163498Y0129168D01*
X0163484Y0129254D01*
X0163474Y0129339D01*
X0163468Y0129426D01*
X0163466Y0129512D01*
X0163466Y0117480D02*
X0163468Y0117566D01*
X0163474Y0117653D01*
X0163484Y0117738D01*
X0163498Y0117824D01*
X0163516Y0117908D01*
X0163537Y0117992D01*
X0163563Y0118074D01*
X0163592Y0118156D01*
X0163625Y0118235D01*
X0163662Y0118314D01*
X0163702Y0118390D01*
X0163746Y0118464D01*
X0163793Y0118537D01*
X0163844Y0118607D01*
X0163897Y0118675D01*
X0163954Y0118740D01*
X0164014Y0118802D01*
X0164076Y0118862D01*
X0164141Y0118919D01*
X0164209Y0118972D01*
X0164279Y0119023D01*
X0164352Y0119070D01*
X0164426Y0119114D01*
X0164502Y0119154D01*
X0164581Y0119191D01*
X0164660Y0119224D01*
X0164742Y0119253D01*
X0164824Y0119279D01*
X0164908Y0119300D01*
X0164992Y0119318D01*
X0165078Y0119332D01*
X0165163Y0119342D01*
X0165250Y0119348D01*
X0165336Y0119350D01*
X0165422Y0119348D01*
X0165509Y0119342D01*
X0165594Y0119332D01*
X0165680Y0119318D01*
X0165764Y0119300D01*
X0165848Y0119279D01*
X0165930Y0119253D01*
X0166012Y0119224D01*
X0166091Y0119191D01*
X0166170Y0119154D01*
X0166246Y0119114D01*
X0166320Y0119070D01*
X0166393Y0119023D01*
X0166463Y0118972D01*
X0166531Y0118919D01*
X0166596Y0118862D01*
X0166658Y0118802D01*
X0166718Y0118740D01*
X0166775Y0118675D01*
X0166828Y0118607D01*
X0166879Y0118537D01*
X0166926Y0118464D01*
X0166970Y0118390D01*
X0167010Y0118314D01*
X0167047Y0118235D01*
X0167080Y0118156D01*
X0167109Y0118074D01*
X0167135Y0117992D01*
X0167156Y0117908D01*
X0167174Y0117824D01*
X0167188Y0117738D01*
X0167198Y0117653D01*
X0167204Y0117566D01*
X0167206Y0117480D01*
X0167204Y0117394D01*
X0167198Y0117307D01*
X0167188Y0117222D01*
X0167174Y0117136D01*
X0167156Y0117052D01*
X0167135Y0116968D01*
X0167109Y0116886D01*
X0167080Y0116804D01*
X0167047Y0116725D01*
X0167010Y0116646D01*
X0166970Y0116570D01*
X0166926Y0116496D01*
X0166879Y0116423D01*
X0166828Y0116353D01*
X0166775Y0116285D01*
X0166718Y0116220D01*
X0166658Y0116158D01*
X0166596Y0116098D01*
X0166531Y0116041D01*
X0166463Y0115988D01*
X0166393Y0115937D01*
X0166320Y0115890D01*
X0166246Y0115846D01*
X0166170Y0115806D01*
X0166091Y0115769D01*
X0166012Y0115736D01*
X0165930Y0115707D01*
X0165848Y0115681D01*
X0165764Y0115660D01*
X0165680Y0115642D01*
X0165594Y0115628D01*
X0165509Y0115618D01*
X0165422Y0115612D01*
X0165336Y0115610D01*
X0165250Y0115612D01*
X0165163Y0115618D01*
X0165078Y0115628D01*
X0164992Y0115642D01*
X0164908Y0115660D01*
X0164824Y0115681D01*
X0164742Y0115707D01*
X0164660Y0115736D01*
X0164581Y0115769D01*
X0164502Y0115806D01*
X0164426Y0115846D01*
X0164352Y0115890D01*
X0164279Y0115937D01*
X0164209Y0115988D01*
X0164141Y0116041D01*
X0164076Y0116098D01*
X0164014Y0116158D01*
X0163954Y0116220D01*
X0163897Y0116285D01*
X0163844Y0116353D01*
X0163793Y0116423D01*
X0163746Y0116496D01*
X0163702Y0116570D01*
X0163662Y0116646D01*
X0163625Y0116725D01*
X0163592Y0116804D01*
X0163563Y0116886D01*
X0163537Y0116968D01*
X0163516Y0117052D01*
X0163498Y0117136D01*
X0163484Y0117222D01*
X0163474Y0117307D01*
X0163468Y0117394D01*
X0163466Y0117480D01*
M02*
